solid OpenSCAD_Model
  facet normal -1 0 0
    outer loop
      vertex -3.2 -3.2 0
      vertex -3.2 41.6 3
      vertex -3.2 41.6 0
    endloop
  endfacet
  facet normal -1 -0 0
    outer loop
      vertex -3.2 41.6 3
      vertex -3.2 -3.2 0
      vertex -3.2 -3.2 3
    endloop
  endfacet
  facet normal 0 0 1
    outer loop
      vertex 12.4 0.4 3
      vertex 12.4 3.2 3
      vertex 9.6 0.4 3
    endloop
  endfacet
  facet normal 0 0 1
    outer loop
      vertex 38 16 3
      vertex 25.6 25.2 3
      vertex 35.2 13.2 3
    endloop
  endfacet
  facet normal 0 0 1
    outer loop
      vertex 25.6 25.2 3
      vertex 25.6 13.2 3
      vertex 35.2 13.2 3
    endloop
  endfacet
  facet normal -0 0 1
    outer loop
      vertex 16 25.2 3
      vertex 25.6 13.2 3
      vertex 25.6 25.2 3
    endloop
  endfacet
  facet normal -0 0 1
    outer loop
      vertex 13.2 22.4 3
      vertex 25.6 13.2 3
      vertex 16 25.2 3
    endloop
  endfacet
  facet normal -0 0 1
    outer loop
      vertex 25.6 12.4 3
      vertex 26 0.4 3
      vertex 26 12.4 3
    endloop
  endfacet
  facet normal 0 0 1
    outer loop
      vertex 25.6 13.2 3
      vertex 13.2 22.4 3
      vertex 25.6 12.4 3
    endloop
  endfacet
  facet normal 0 0 1
    outer loop
      vertex 13.2 3.2 3
      vertex 25.6 12.4 3
      vertex 13.2 22.4 3
    endloop
  endfacet
  facet normal 0 0 1
    outer loop
      vertex 13.2 22.4 3
      vertex 16 25.2 3
      vertex 13.2 25.2 3
    endloop
  endfacet
  facet normal 0 -0 1
    outer loop
      vertex 16 0.4 3
      vertex 25.6 12.4 3
      vertex 13.2 3.2 3
    endloop
  endfacet
  facet normal 0 0 1
    outer loop
      vertex 25.6 12.4 3
      vertex 16 0.4 3
      vertex 26 0.4 3
    endloop
  endfacet
  facet normal 0 0 1
    outer loop
      vertex 16 0.4 3
      vertex 13.2 3.2 3
      vertex 13.2 0.4 3
    endloop
  endfacet
  facet normal -0 0 1
    outer loop
      vertex 35.2 38 3
      vertex 38 35.2 3
      vertex 38 38 3
    endloop
  endfacet
  facet normal 0 0 1
    outer loop
      vertex 38 35.2 3
      vertex 25.6 26 3
      vertex 38 16 3
    endloop
  endfacet
  facet normal 0 0 1
    outer loop
      vertex 38 35.2 3
      vertex 35.2 38 3
      vertex 25.6 26 3
    endloop
  endfacet
  facet normal -0 0 1
    outer loop
      vertex 25.6 25.2 3
      vertex 38 16 3
      vertex 25.6 26 3
    endloop
  endfacet
  facet normal 0 0 1
    outer loop
      vertex 38 16 3
      vertex 35.2 13.2 3
      vertex 38 13.2 3
    endloop
  endfacet
  facet normal 0 0 1
    outer loop
      vertex 35.2 38 3
      vertex 16 26 3
      vertex 25.6 26 3
    endloop
  endfacet
  facet normal -0 0 1
    outer loop
      vertex 3.2 38 3
      vertex 16 26 3
      vertex 35.2 38 3
    endloop
  endfacet
  facet normal 0 0 1
    outer loop
      vertex 0.4 0.4 3
      vertex 12.4 3.2 3
      vertex 12.4 22.4 3
    endloop
  endfacet
  facet normal 0 0 1
    outer loop
      vertex 0.4 35.2 3
      vertex 12.4 22.4 3
      vertex 12.4 26 3
    endloop
  endfacet
  facet normal 0 0 1
    outer loop
      vertex 16 26 3
      vertex 3.2 38 3
      vertex 12.4 26 3
    endloop
  endfacet
  facet normal -0 0 1
    outer loop
      vertex 0.4 35.2 3
      vertex 12.4 26 3
      vertex 3.2 38 3
    endloop
  endfacet
  facet normal 0 0 1
    outer loop
      vertex 0.4 35.2 3
      vertex 3.2 38 3
      vertex 0.4 38 3
    endloop
  endfacet
  facet normal 0 0 1
    outer loop
      vertex 12.4 22.4 3
      vertex 0.4 35.2 3
      vertex 0.4 0.4 3
    endloop
  endfacet
  facet normal 0 0 1
    outer loop
      vertex 12.4 3.2 3
      vertex 0.4 0.4 3
      vertex 9.6 0.4 3
    endloop
  endfacet
  facet normal 0 0 1
    outer loop
      vertex 38.8 35.2 3
      vertex 41.6 41.6 3
      vertex 38.8 38.8 3
    endloop
  endfacet
  facet normal 0 0 1
    outer loop
      vertex 41.6 41.6 3
      vertex 35.2 38.8 3
      vertex 38.8 38.8 3
    endloop
  endfacet
  facet normal 0 0 1
    outer loop
      vertex 41.6 41.6 3
      vertex 3.2 38.8 3
      vertex 35.2 38.8 3
    endloop
  endfacet
  facet normal -0 0 1
    outer loop
      vertex -3.2 41.6 3
      vertex 3.2 38.8 3
      vertex 41.6 41.6 3
    endloop
  endfacet
  facet normal 0 0 1
    outer loop
      vertex -3.2 41.6 3
      vertex -0.4 35.2 3
      vertex -0.4 38.8 3
    endloop
  endfacet
  facet normal 0 0 1
    outer loop
      vertex -3.2 -3.2 3
      vertex -0.4 35.2 3
      vertex -3.2 41.6 3
    endloop
  endfacet
  facet normal 0 0 1
    outer loop
      vertex 3.2 38.8 3
      vertex -3.2 41.6 3
      vertex -0.4 38.8 3
    endloop
  endfacet
  facet normal 0 0 1
    outer loop
      vertex 38.8 16 3
      vertex 41.6 41.6 3
      vertex 38.8 35.2 3
    endloop
  endfacet
  facet normal 0 0 1
    outer loop
      vertex 41.6 41.6 3
      vertex 38.8 16 3
      vertex 41.6 -3.2 3
    endloop
  endfacet
  facet normal -0 0 1
    outer loop
      vertex 38.8 9.6 3
      vertex 41.6 -3.2 3
      vertex 38.8 16 3
    endloop
  endfacet
  facet normal -0 0 1
    outer loop
      vertex 38.8 3.2 3
      vertex 41.6 -3.2 3
      vertex 38.8 9.6 3
    endloop
  endfacet
  facet normal -0 0 1
    outer loop
      vertex 38.8 -0.4 3
      vertex 41.6 -3.2 3
      vertex 38.8 3.2 3
    endloop
  endfacet
  facet normal -0 0 1
    outer loop
      vertex 35.2 -0.4 3
      vertex 41.6 -3.2 3
      vertex 38.8 -0.4 3
    endloop
  endfacet
  facet normal -0 0 1
    outer loop
      vertex 16 -0.4 3
      vertex 41.6 -3.2 3
      vertex 35.2 -0.4 3
    endloop
  endfacet
  facet normal 0 0 1
    outer loop
      vertex -3.2 -3.2 3
      vertex 16 -0.4 3
      vertex 9.6 -0.4 3
    endloop
  endfacet
  facet normal 0 0 1
    outer loop
      vertex -3.2 -3.2 3
      vertex 9.6 -0.4 3
      vertex -0.4 -0.4 3
    endloop
  endfacet
  facet normal 0 0 1
    outer loop
      vertex 16 -0.4 3
      vertex -3.2 -3.2 3
      vertex 41.6 -3.2 3
    endloop
  endfacet
  facet normal 0 0 1
    outer loop
      vertex -0.4 35.2 3
      vertex -3.2 -3.2 3
      vertex -0.4 -0.4 3
    endloop
  endfacet
  facet normal 1 -0 0
    outer loop
      vertex 41.6 -3.2 3
      vertex 41.6 41.6 0
      vertex 41.6 41.6 3
    endloop
  endfacet
  facet normal 1 0 0
    outer loop
      vertex 41.6 41.6 0
      vertex 41.6 -3.2 3
      vertex 41.6 -3.2 0
    endloop
  endfacet
  facet normal 0 0 -1
    outer loop
      vertex 25 12.8 0
      vertex 13.4 22.4 0
      vertex 16 25 0
    endloop
  endfacet
  facet normal -0 0 -1
    outer loop
      vertex 16 25 0
      vertex 13.4 22.4 0
      vertex 13.4 25 0
    endloop
  endfacet
  facet normal 0 0 -1
    outer loop
      vertex 22.4 0.599999 0
      vertex 25 3.2 0
      vertex 25 0.599999 0
    endloop
  endfacet
  facet normal 0 0 -1
    outer loop
      vertex 13.4 12.8 0
      vertex 25 3.2 0
      vertex 22.4 0.599999 0
    endloop
  endfacet
  facet normal 0 0 -1
    outer loop
      vertex 35.2 26.2 0
      vertex 37.8 28.8 0
      vertex 37.8 26.2 0
    endloop
  endfacet
  facet normal -0 0 -1
    outer loop
      vertex 37.8 28.8 0
      vertex 35.2 26.2 0
      vertex 37.8 35.2 0
    endloop
  endfacet
  facet normal 0 0 -1
    outer loop
      vertex 35.2 37.8 0
      vertex 37.8 35.2 0
      vertex 35.2 26.2 0
    endloop
  endfacet
  facet normal 0 0 -1
    outer loop
      vertex 37.8 35.2 0
      vertex 35.2 37.8 0
      vertex 37.8 37.8 0
    endloop
  endfacet
  facet normal 0 0 -1
    outer loop
      vertex 16 26.2 0
      vertex 35.2 37.8 0
      vertex 35.2 26.2 0
    endloop
  endfacet
  facet normal 0 0 -1
    outer loop
      vertex 3.2 37.8 0
      vertex 16 26.2 0
      vertex 12.2 26.2 0
    endloop
  endfacet
  facet normal 0 0 -1
    outer loop
      vertex 16 26.2 0
      vertex 3.2 37.8 0
      vertex 35.2 37.8 0
    endloop
  endfacet
  facet normal 0 0 -1
    outer loop
      vertex 0.599999 35.2 0
      vertex 12.2 26.2 0
      vertex 12.2 22.4 0
    endloop
  endfacet
  facet normal 0 0 -1
    outer loop
      vertex 35.2 12.4 0
      vertex 37.8 22.4 0
      vertex 37.8 12.4 0
    endloop
  endfacet
  facet normal 0 0 -1
    outer loop
      vertex 35.2 25 0
      vertex 37.8 22.4 0
      vertex 35.2 12.4 0
    endloop
  endfacet
  facet normal 0 0 -1
    outer loop
      vertex 37.8 22.4 0
      vertex 35.2 25 0
      vertex 37.8 25 0
    endloop
  endfacet
  facet normal 0 0 -1
    outer loop
      vertex 26.2 12.8 0
      vertex 35.2 12.4 0
      vertex 26.2 12.4 0
    endloop
  endfacet
  facet normal 0 0 -1
    outer loop
      vertex 35.2 12.4 0
      vertex 26.2 12.8 0
      vertex 35.2 25 0
    endloop
  endfacet
  facet normal 0 0 -1
    outer loop
      vertex 25 12.8 0
      vertex 35.2 25 0
      vertex 26.2 12.8 0
    endloop
  endfacet
  facet normal 0 0 -1
    outer loop
      vertex 25 12.8 0
      vertex 16 25 0
      vertex 35.2 25 0
    endloop
  endfacet
  facet normal 0 0 -1
    outer loop
      vertex 25 3.2 0
      vertex 13.4 12.8 0
      vertex 25 12.8 0
    endloop
  endfacet
  facet normal 0 0 -1
    outer loop
      vertex 13.4 22.4 0
      vertex 25 12.8 0
      vertex 13.4 12.8 0
    endloop
  endfacet
  facet normal 0 0 -1
    outer loop
      vertex 22.4 0.599999 0
      vertex 12.2 12.8 0
      vertex 13.4 12.8 0
    endloop
  endfacet
  facet normal 0 0 -1
    outer loop
      vertex 0.599999 0.599999 0
      vertex 12.2 22.4 0
      vertex 12.2 12.8 0
    endloop
  endfacet
  facet normal 0 0 -1
    outer loop
      vertex 0.599999 0.599999 0
      vertex 12.2 12.8 0
      vertex 22.4 0.599999 0
    endloop
  endfacet
  facet normal -0 0 -1
    outer loop
      vertex 12.2 22.4 0
      vertex 0.599999 0.599999 0
      vertex 0.599999 35.2 0
    endloop
  endfacet
  facet normal 0 0 -1
    outer loop
      vertex 12.2 26.2 0
      vertex 0.599999 35.2 0
      vertex 3.2 37.8 0
    endloop
  endfacet
  facet normal -0 0 -1
    outer loop
      vertex 3.2 37.8 0
      vertex 0.599999 35.2 0
      vertex 0.599999 37.8 0
    endloop
  endfacet
  facet normal 0 0 -1
    outer loop
      vertex 39 3.2 0
      vertex 41.6 -3.2 0
      vertex 39 -0.599999 0
    endloop
  endfacet
  facet normal 0 0 -1
    outer loop
      vertex 41.6 -3.2 0
      vertex 35.2 -0.599999 0
      vertex 39 -0.599999 0
    endloop
  endfacet
  facet normal 0 0 -1
    outer loop
      vertex 41.6 -3.2 0
      vertex 28.8 -0.599999 0
      vertex 35.2 -0.599999 0
    endloop
  endfacet
  facet normal 0 0 -1
    outer loop
      vertex 41.6 -3.2 0
      vertex 22.4 -0.599999 0
      vertex 28.8 -0.599999 0
    endloop
  endfacet
  facet normal 0 0 -1
    outer loop
      vertex -3.2 -3.2 0
      vertex 22.4 -0.599999 0
      vertex 41.6 -3.2 0
    endloop
  endfacet
  facet normal 0 0 -1
    outer loop
      vertex -3.2 -3.2 0
      vertex -0.599999 35.2 0
      vertex -0.599999 -0.599999 0
    endloop
  endfacet
  facet normal 0 0 -1
    outer loop
      vertex -3.2 41.6 0
      vertex -0.599999 35.2 0
      vertex -3.2 -3.2 0
    endloop
  endfacet
  facet normal -0 0 -1
    outer loop
      vertex 22.4 -0.599999 0
      vertex -3.2 -3.2 0
      vertex -0.599999 -0.599999 0
    endloop
  endfacet
  facet normal 0 0 -1
    outer loop
      vertex 39 22.4 0
      vertex 41.6 -3.2 0
      vertex 39 3.2 0
    endloop
  endfacet
  facet normal 0 0 -1
    outer loop
      vertex 41.6 -3.2 0
      vertex 39 22.4 0
      vertex 41.6 41.6 0
    endloop
  endfacet
  facet normal 0 0 -1
    outer loop
      vertex 39 28.8 0
      vertex 41.6 41.6 0
      vertex 39 22.4 0
    endloop
  endfacet
  facet normal 0 0 -1
    outer loop
      vertex 39 35.2 0
      vertex 41.6 41.6 0
      vertex 39 28.8 0
    endloop
  endfacet
  facet normal 0 0 -1
    outer loop
      vertex 39 39 0
      vertex 41.6 41.6 0
      vertex 39 35.2 0
    endloop
  endfacet
  facet normal 0 0 -1
    outer loop
      vertex 35.2 39 0
      vertex 41.6 41.6 0
      vertex 39 39 0
    endloop
  endfacet
  facet normal 0 0 -1
    outer loop
      vertex 3.2 39 0
      vertex 41.6 41.6 0
      vertex 35.2 39 0
    endloop
  endfacet
  facet normal 0 0 -1
    outer loop
      vertex -3.2 41.6 0
      vertex 3.2 39 0
      vertex -0.599999 39 0
    endloop
  endfacet
  facet normal 0 0 -1
    outer loop
      vertex 3.2 39 0
      vertex -3.2 41.6 0
      vertex 41.6 41.6 0
    endloop
  endfacet
  facet normal 0 0 -1
    outer loop
      vertex -0.599999 35.2 0
      vertex -3.2 41.6 0
      vertex -0.599999 39 0
    endloop
  endfacet
  facet normal 0 -1 0
    outer loop
      vertex -3.2 -3.2 0
      vertex 41.6 -3.2 3
      vertex -3.2 -3.2 3
    endloop
  endfacet
  facet normal 0 -1 -0
    outer loop
      vertex 41.6 -3.2 3
      vertex -3.2 -3.2 0
      vertex 41.6 -3.2 0
    endloop
  endfacet
  facet normal 0 1 -0
    outer loop
      vertex 41.6 41.6 0
      vertex -3.2 41.6 3
      vertex 41.6 41.6 3
    endloop
  endfacet
  facet normal 0 1 0
    outer loop
      vertex -3.2 41.6 3
      vertex 41.6 41.6 0
      vertex -3.2 41.6 0
    endloop
  endfacet
  facet normal 1 0 0
    outer loop
      vertex 26 12.4 3
      vertex 26 3.2 2
      vertex 26 12.4 2
    endloop
  endfacet
  facet normal 1 -0 0
    outer loop
      vertex 26 0.4 3
      vertex 26 3.2 2
      vertex 26 12.4 3
    endloop
  endfacet
  facet normal 1 0 0
    outer loop
      vertex 26 3.2 2
      vertex 26 0.4 3
      vertex 26 0.4 2
    endloop
  endfacet
  facet normal -1 0 0
    outer loop
      vertex 38 3.2 3
      vertex 38 9.6 3
      vertex 38 9.6 2
    endloop
  endfacet
  facet normal -1 0 0
    outer loop
      vertex 38 3.2 3
      vertex 38 9.6 2
      vertex 38 3.2 2
    endloop
  endfacet
  facet normal -1 0 0
    outer loop
      vertex 38 9.6 3
      vertex 38 3.2 3
      vertex 38 9.6 17
    endloop
  endfacet
  facet normal -1 -0 0
    outer loop
      vertex 38 9.6 17
      vertex 38 3.2 3
      vertex 38 3.2 17
    endloop
  endfacet
  facet normal -1 0 0
    outer loop
      vertex 38 9.6 2
      vertex 38 12.4 3
      vertex 38 12.4 2
    endloop
  endfacet
  facet normal -1 -0 0
    outer loop
      vertex 38 12.4 3
      vertex 38 9.6 2
      vertex 38 9.6 3
    endloop
  endfacet
  facet normal -1 0 0
    outer loop
      vertex 38 0.4 2
      vertex 38 3.2 3
      vertex 38 3.2 2
    endloop
  endfacet
  facet normal -1 -0 0
    outer loop
      vertex 38 3.2 3
      vertex 38 0.4 2
      vertex 38 0.4 3
    endloop
  endfacet
  facet normal 0 1 -0
    outer loop
      vertex 35.2 0.4 2
      vertex 26 0.4 3
      vertex 35.2 0.4 3
    endloop
  endfacet
  facet normal 0 1 0
    outer loop
      vertex 26 0.4 3
      vertex 35.2 0.4 2
      vertex 26 0.4 2
    endloop
  endfacet
  facet normal 0 1 0
    outer loop
      vertex 26 0.4 3
      vertex 35.2 0.4 17
      vertex 35.2 0.4 3
    endloop
  endfacet
  facet normal 0 1 0
    outer loop
      vertex 35.2 0.4 17
      vertex 26 0.4 3
      vertex 16 0.4 17
    endloop
  endfacet
  facet normal 0 1 0
    outer loop
      vertex 16 0.4 17
      vertex 26 0.4 3
      vertex 16 0.4 3
    endloop
  endfacet
  facet normal 0 -1 0
    outer loop
      vertex 26 12.4 3
      vertex 25.6 12.4 17
      vertex 25.6 12.4 3
    endloop
  endfacet
  facet normal 0 -1 0
    outer loop
      vertex 25.6 12.4 17
      vertex 26 12.4 3
      vertex 35.2 12.4 17
    endloop
  endfacet
  facet normal 0 -1 0
    outer loop
      vertex 26 12.4 3
      vertex 35.2 12.4 3
      vertex 35.2 12.4 17
    endloop
  endfacet
  facet normal 0 -1 0
    outer loop
      vertex 26.2 12.4 2
      vertex 26 12.4 3
      vertex 26 12.4 2
    endloop
  endfacet
  facet normal 0 -1 0
    outer loop
      vertex 26 12.4 3
      vertex 26.2 12.4 2
      vertex 35.2 12.4 3
    endloop
  endfacet
  facet normal 0 -1 0
    outer loop
      vertex 35.2 12.4 0
      vertex 26.2 12.4 2
      vertex 26.2 12.4 0
    endloop
  endfacet
  facet normal 0 -1 0
    outer loop
      vertex 26.2 12.4 2
      vertex 35.2 12.4 0
      vertex 35.2 12.4 3
    endloop
  endfacet
  facet normal 0 -1 0
    outer loop
      vertex 35.2 12.4 3
      vertex 37.8 12.4 2
      vertex 38 12.4 3
    endloop
  endfacet
  facet normal 0 -1 0
    outer loop
      vertex 35.2 12.4 0
      vertex 37.8 12.4 2
      vertex 35.2 12.4 3
    endloop
  endfacet
  facet normal 0 -1 -0
    outer loop
      vertex 37.8 12.4 2
      vertex 35.2 12.4 0
      vertex 37.8 12.4 0
    endloop
  endfacet
  facet normal 0 -1 -0
    outer loop
      vertex 38 12.4 3
      vertex 37.8 12.4 2
      vertex 38 12.4 2
    endloop
  endfacet
  facet normal 1 -0 0
    outer loop
      vertex 38.8 35.2 17
      vertex 38.8 38.8 3
      vertex 38.8 38.8 17
    endloop
  endfacet
  facet normal 1 0 0
    outer loop
      vertex 38.8 38.8 3
      vertex 38.8 35.2 17
      vertex 38.8 35.2 3
    endloop
  endfacet
  facet normal 0 0 1
    outer loop
      vertex 38.8 38.8 17
      vertex 38 38 17
      vertex 38.8 35.2 17
    endloop
  endfacet
  facet normal -0 0 1
    outer loop
      vertex 35.2 38.8 17
      vertex 38 38 17
      vertex 38.8 38.8 17
    endloop
  endfacet
  facet normal 0 0 1
    outer loop
      vertex 38 38 17
      vertex 35.2 38.8 17
      vertex 35.2 38 17
    endloop
  endfacet
  facet normal 0 0 1
    outer loop
      vertex 38.8 35.2 17
      vertex 38 38 17
      vertex 38 35.2 17
    endloop
  endfacet
  facet normal -1 0 0
    outer loop
      vertex 38 35.2 3
      vertex 38 38 17
      vertex 38 38 3
    endloop
  endfacet
  facet normal -1 -0 0
    outer loop
      vertex 38 38 17
      vertex 38 35.2 3
      vertex 38 35.2 17
    endloop
  endfacet
  facet normal 0 -1 0
    outer loop
      vertex 38 35.2 3
      vertex 38.8 35.2 17
      vertex 38 35.2 17
    endloop
  endfacet
  facet normal 0 -1 -0
    outer loop
      vertex 38.8 35.2 17
      vertex 38 35.2 3
      vertex 38.8 35.2 3
    endloop
  endfacet
  facet normal 0 1 -0
    outer loop
      vertex 38.8 38.8 3
      vertex 35.2 38.8 17
      vertex 38.8 38.8 17
    endloop
  endfacet
  facet normal 0 1 0
    outer loop
      vertex 35.2 38.8 17
      vertex 38.8 38.8 3
      vertex 35.2 38.8 3
    endloop
  endfacet
  facet normal -1 0 0
    outer loop
      vertex 35.2 38 3
      vertex 35.2 38.8 17
      vertex 35.2 38.8 3
    endloop
  endfacet
  facet normal -1 -0 0
    outer loop
      vertex 35.2 38.8 17
      vertex 35.2 38 3
      vertex 35.2 38 17
    endloop
  endfacet
  facet normal 0 -1 0
    outer loop
      vertex 35.2 38 3
      vertex 38 38 17
      vertex 35.2 38 17
    endloop
  endfacet
  facet normal 0 -1 -0
    outer loop
      vertex 38 38 17
      vertex 35.2 38 3
      vertex 38 38 3
    endloop
  endfacet
  facet normal 0 -1 0
    outer loop
      vertex 38 9.6 3
      vertex 38.8 9.6 17
      vertex 38 9.6 17
    endloop
  endfacet
  facet normal 0 -1 -0
    outer loop
      vertex 38.8 9.6 17
      vertex 38 9.6 3
      vertex 38.8 9.6 3
    endloop
  endfacet
  facet normal -0 0 1
    outer loop
      vertex 35.2 13.2 17
      vertex 38 12.4 17
      vertex 38 13.2 17
    endloop
  endfacet
  facet normal 0 0 1
    outer loop
      vertex 38 12.4 17
      vertex 35.2 13.2 17
      vertex 35.2 12.4 17
    endloop
  endfacet
  facet normal 0 0 1
    outer loop
      vertex 38 13.2 17
      vertex 38.8 16 17
      vertex 38 16 17
    endloop
  endfacet
  facet normal 0 0 1
    outer loop
      vertex 38.8 16 17
      vertex 38 13.2 17
      vertex 38.8 9.6 17
    endloop
  endfacet
  facet normal -0 0 1
    outer loop
      vertex 38 12.4 17
      vertex 38.8 9.6 17
      vertex 38 13.2 17
    endloop
  endfacet
  facet normal 0 0 1
    outer loop
      vertex 38.8 9.6 17
      vertex 38 12.4 17
      vertex 38 9.6 17
    endloop
  endfacet
  facet normal 0 1 -0
    outer loop
      vertex 38.8 16 3
      vertex 38 16 17
      vertex 38.8 16 17
    endloop
  endfacet
  facet normal 0 1 0
    outer loop
      vertex 38 16 17
      vertex 38.8 16 3
      vertex 38 16 3
    endloop
  endfacet
  facet normal 1 -0 0
    outer loop
      vertex 38.8 9.6 17
      vertex 38.8 16 3
      vertex 38.8 16 17
    endloop
  endfacet
  facet normal 1 0 0
    outer loop
      vertex 38.8 16 3
      vertex 38.8 9.6 17
      vertex 38.8 9.6 3
    endloop
  endfacet
  facet normal -1 0 0
    outer loop
      vertex 38 13.2 3
      vertex 38 16 17
      vertex 38 16 3
    endloop
  endfacet
  facet normal -1 -0 0
    outer loop
      vertex 38 16 17
      vertex 38 13.2 3
      vertex 38 13.2 17
    endloop
  endfacet
  facet normal -1 0 0
    outer loop
      vertex 38 9.6 3
      vertex 38 12.4 17
      vertex 38 12.4 3
    endloop
  endfacet
  facet normal -1 -0 0
    outer loop
      vertex 38 12.4 17
      vertex 38 9.6 3
      vertex 38 9.6 17
    endloop
  endfacet
  facet normal 0 -1 0
    outer loop
      vertex 35.2 12.4 3
      vertex 38 12.4 17
      vertex 35.2 12.4 17
    endloop
  endfacet
  facet normal 0 -1 -0
    outer loop
      vertex 38 12.4 17
      vertex 35.2 12.4 3
      vertex 38 12.4 3
    endloop
  endfacet
  facet normal 0 1 -0
    outer loop
      vertex 38 13.2 3
      vertex 35.2 13.2 17
      vertex 38 13.2 17
    endloop
  endfacet
  facet normal 0 1 0
    outer loop
      vertex 35.2 13.2 17
      vertex 38 13.2 3
      vertex 35.2 13.2 3
    endloop
  endfacet
  facet normal -1 0 0
    outer loop
      vertex 35.2 12.4 3
      vertex 35.2 13.2 17
      vertex 35.2 13.2 3
    endloop
  endfacet
  facet normal -1 -0 0
    outer loop
      vertex 35.2 13.2 17
      vertex 35.2 12.4 3
      vertex 35.2 12.4 17
    endloop
  endfacet
  facet normal 0 -1 0
    outer loop
      vertex 35.2 -0.4 3
      vertex 38.8 -0.4 17
      vertex 35.2 -0.4 17
    endloop
  endfacet
  facet normal 0 -1 -0
    outer loop
      vertex 38.8 -0.4 17
      vertex 35.2 -0.4 3
      vertex 38.8 -0.4 3
    endloop
  endfacet
  facet normal 0 0 1
    outer loop
      vertex 38 3.2 17
      vertex 38.8 3.2 17
      vertex 38.8 9.6 17
    endloop
  endfacet
  facet normal 0 0 1
    outer loop
      vertex 38 3.2 17
      vertex 38.8 9.6 17
      vertex 38 9.6 17
    endloop
  endfacet
  facet normal 0 0 1
    outer loop
      vertex 38 0.4 17
      vertex 38.8 3.2 17
      vertex 38 3.2 17
    endloop
  endfacet
  facet normal 0 0 1
    outer loop
      vertex 38.8 3.2 17
      vertex 38 0.4 17
      vertex 38.8 -0.4 17
    endloop
  endfacet
  facet normal 0 0 1
    outer loop
      vertex 35.2 -0.4 17
      vertex 38 0.4 17
      vertex 35.2 0.4 17
    endloop
  endfacet
  facet normal 0 0 1
    outer loop
      vertex 38 0.4 17
      vertex 35.2 -0.4 17
      vertex 38.8 -0.4 17
    endloop
  endfacet
  facet normal 0 1 -0
    outer loop
      vertex 38 0.4 3
      vertex 35.2 0.4 17
      vertex 38 0.4 17
    endloop
  endfacet
  facet normal 0 1 0
    outer loop
      vertex 35.2 0.4 2
      vertex 38 0.4 3
      vertex 38 0.4 2
    endloop
  endfacet
  facet normal 0 1 0
    outer loop
      vertex 38 0.4 3
      vertex 35.2 0.4 2
      vertex 35.2 0.4 17
    endloop
  endfacet
  facet normal -1 0 0
    outer loop
      vertex 35.2 -0.4 3
      vertex 35.2 0.4 17
      vertex 35.2 0.4 3
    endloop
  endfacet
  facet normal -1 -0 0
    outer loop
      vertex 35.2 0.4 17
      vertex 35.2 -0.4 3
      vertex 35.2 -0.4 17
    endloop
  endfacet
  facet normal 0 0 0
    outer loop
      vertex 35.2 0.4 3
      vertex 35.2 0.4 17
      vertex 35.2 0.4 2
    endloop
  endfacet
  facet normal 1 -0 0
    outer loop
      vertex 35.2 -0.599999 2
      vertex 35.2 0.4 0
      vertex 35.2 0.4 2
    endloop
  endfacet
  facet normal 1 0 0
    outer loop
      vertex 35.2 0.4 0
      vertex 35.2 -0.599999 2
      vertex 35.2 -0.599999 0
    endloop
  endfacet
  facet normal 1 -0 0
    outer loop
      vertex 38.8 -0.4 17
      vertex 38.8 3.2 3
      vertex 38.8 3.2 17
    endloop
  endfacet
  facet normal 1 0 0
    outer loop
      vertex 38.8 3.2 3
      vertex 38.8 -0.4 17
      vertex 38.8 -0.4 3
    endloop
  endfacet
  facet normal 0 1 -0
    outer loop
      vertex 38.8 3.2 3
      vertex 38.4 3.2 17
      vertex 38.8 3.2 17
    endloop
  endfacet
  facet normal 0 1 0
    outer loop
      vertex 38.4 3.2 17
      vertex 38.8 3.2 3
      vertex 38.4 3.2 3
    endloop
  endfacet
  facet normal -1 0 0
    outer loop
      vertex 38 0.4 3
      vertex 38 3.2 17
      vertex 38 3.2 3
    endloop
  endfacet
  facet normal -1 -0 0
    outer loop
      vertex 38 3.2 17
      vertex 38 0.4 3
      vertex 38 0.4 17
    endloop
  endfacet
  facet normal 0 1 -0
    outer loop
      vertex 38.8 35.2 3
      vertex 38 35.2 17
      vertex 38.8 35.2 17
    endloop
  endfacet
  facet normal 0 1 0
    outer loop
      vertex 38 35.2 17
      vertex 38.8 35.2 3
      vertex 38 35.2 3
    endloop
  endfacet
  facet normal -0 0 1
    outer loop
      vertex 38 35.2 17
      vertex 38.8 16 17
      vertex 38.8 35.2 17
    endloop
  endfacet
  facet normal 0 0 1
    outer loop
      vertex 38.8 16 17
      vertex 38 35.2 17
      vertex 38 16 17
    endloop
  endfacet
  facet normal -1 0 0
    outer loop
      vertex 38 16 3
      vertex 38 35.2 17
      vertex 38 35.2 3
    endloop
  endfacet
  facet normal -1 -0 0
    outer loop
      vertex 38 35.2 17
      vertex 38 16 3
      vertex 38 16 17
    endloop
  endfacet
  facet normal 1 -0 0
    outer loop
      vertex 38.8 16 17
      vertex 38.8 35.2 3
      vertex 38.8 35.2 17
    endloop
  endfacet
  facet normal 1 0 0
    outer loop
      vertex 38.8 35.2 3
      vertex 38.8 16 17
      vertex 38.8 16 3
    endloop
  endfacet
  facet normal 0 -1 0
    outer loop
      vertex 38 16 3
      vertex 38.8 16 17
      vertex 38 16 17
    endloop
  endfacet
  facet normal 0 -1 -0
    outer loop
      vertex 38.8 16 17
      vertex 38 16 3
      vertex 38.8 16 3
    endloop
  endfacet
  facet normal 0 1 -0
    outer loop
      vertex 38.8 9.6 3
      vertex 38 9.6 17
      vertex 38.8 9.6 17
    endloop
  endfacet
  facet normal 0 1 0
    outer loop
      vertex 38 9.6 17
      vertex 38.8 9.6 3
      vertex 38 9.6 3
    endloop
  endfacet
  facet normal 0 -1 0
    outer loop
      vertex 38.4 3.2 3
      vertex 38.8 3.2 17
      vertex 38.4 3.2 17
    endloop
  endfacet
  facet normal 0 -1 -0
    outer loop
      vertex 38.8 3.2 17
      vertex 38.4 3.2 3
      vertex 38.8 3.2 3
    endloop
  endfacet
  facet normal 1 -0 0
    outer loop
      vertex 38.8 3.2 17
      vertex 38.8 9.6 3
      vertex 38.8 9.6 17
    endloop
  endfacet
  facet normal 1 0 0
    outer loop
      vertex 38.8 9.6 3
      vertex 38.8 3.2 17
      vertex 38.8 3.2 3
    endloop
  endfacet
  facet normal -0 0 1
    outer loop
      vertex 3.2 38.8 17
      vertex 35.2 38 17
      vertex 35.2 38.8 17
    endloop
  endfacet
  facet normal 0 0 1
    outer loop
      vertex 3.2 38.8 17
      vertex 3.2 38 17
      vertex 35.2 38 17
    endloop
  endfacet
  facet normal 0 0 1
    outer loop
      vertex 3.2 38.8 17
      vertex 0.4 38 17
      vertex 3.2 38 17
    endloop
  endfacet
  facet normal -0 0 1
    outer loop
      vertex -0.4 38.8 17
      vertex 0.4 38 17
      vertex 3.2 38.8 17
    endloop
  endfacet
  facet normal 0 0 1
    outer loop
      vertex -0.4 35.2 17
      vertex 0.4 38 17
      vertex -0.4 38.8 17
    endloop
  endfacet
  facet normal 0 0 1
    outer loop
      vertex 0.4 38 17
      vertex -0.4 35.2 17
      vertex 0.4 35.2 17
    endloop
  endfacet
  facet normal 1 -0 0
    outer loop
      vertex 35.2 38 17
      vertex 35.2 38.8 3
      vertex 35.2 38.8 17
    endloop
  endfacet
  facet normal 1 0 0
    outer loop
      vertex 35.2 38.8 3
      vertex 35.2 38 17
      vertex 35.2 38 3
    endloop
  endfacet
  facet normal 0 -1 0
    outer loop
      vertex 3.2 38 3
      vertex 35.2 38 17
      vertex 3.2 38 17
    endloop
  endfacet
  facet normal 0 -1 -0
    outer loop
      vertex 35.2 38 17
      vertex 3.2 38 3
      vertex 35.2 38 3
    endloop
  endfacet
  facet normal 0 1 -0
    outer loop
      vertex 35.2 38.8 3
      vertex 3.2 38.8 17
      vertex 35.2 38.8 17
    endloop
  endfacet
  facet normal 0 1 0
    outer loop
      vertex 3.2 38.8 17
      vertex 35.2 38.8 3
      vertex 3.2 38.8 3
    endloop
  endfacet
  facet normal -0 0 1
    outer loop
      vertex 25.6 13.2 17
      vertex 35.2 12.4 17
      vertex 35.2 13.2 17
    endloop
  endfacet
  facet normal 0 0 1
    outer loop
      vertex 35.2 12.4 17
      vertex 25.6 13.2 17
      vertex 25.6 12.4 17
    endloop
  endfacet
  facet normal 1 -0 0
    outer loop
      vertex 35.2 12.4 17
      vertex 35.2 13.2 3
      vertex 35.2 13.2 17
    endloop
  endfacet
  facet normal 1 0 0
    outer loop
      vertex 35.2 13.2 3
      vertex 35.2 12.4 17
      vertex 35.2 12.4 3
    endloop
  endfacet
  facet normal 0 1 -0
    outer loop
      vertex 35.2 13.2 3
      vertex 25.6 13.2 17
      vertex 35.2 13.2 17
    endloop
  endfacet
  facet normal 0 1 0
    outer loop
      vertex 25.6 13.2 17
      vertex 35.2 13.2 3
      vertex 25.6 13.2 3
    endloop
  endfacet
  facet normal -0 0 1
    outer loop
      vertex 16 0.4 17
      vertex 35.2 -0.4 17
      vertex 35.2 0.4 17
    endloop
  endfacet
  facet normal 0 0 1
    outer loop
      vertex 35.2 -0.4 17
      vertex 16 0.4 17
      vertex 16 -0.4 17
    endloop
  endfacet
  facet normal 1 -0 0
    outer loop
      vertex 35.2 -0.4 17
      vertex 35.2 0.4 3
      vertex 35.2 0.4 17
    endloop
  endfacet
  facet normal 1 0 0
    outer loop
      vertex 35.2 0.4 3
      vertex 35.2 -0.4 17
      vertex 35.2 -0.4 3
    endloop
  endfacet
  facet normal 0 -1 0
    outer loop
      vertex 16 -0.4 3
      vertex 35.2 -0.4 17
      vertex 16 -0.4 17
    endloop
  endfacet
  facet normal 0 -1 -0
    outer loop
      vertex 35.2 -0.4 17
      vertex 16 -0.4 3
      vertex 35.2 -0.4 3
    endloop
  endfacet
  facet normal -0 0 1
    outer loop
      vertex 16 26 17
      vertex 25.6 25.2 17
      vertex 25.6 26 17
    endloop
  endfacet
  facet normal 0 0 1
    outer loop
      vertex 25.6 25.2 17
      vertex 16 26 17
      vertex 16 25.2 17
    endloop
  endfacet
  facet normal 1 -0 0
    outer loop
      vertex 25.6 25.2 17
      vertex 25.6 26 3
      vertex 25.6 26 17
    endloop
  endfacet
  facet normal 1 0 0
    outer loop
      vertex 25.6 26 3
      vertex 25.6 25.2 17
      vertex 25.6 25.2 3
    endloop
  endfacet
  facet normal 0 1 -0
    outer loop
      vertex 25.6 26 3
      vertex 16 26 17
      vertex 25.6 26 17
    endloop
  endfacet
  facet normal 0 1 0
    outer loop
      vertex 16 26 17
      vertex 25.6 26 3
      vertex 16 26 3
    endloop
  endfacet
  facet normal 0 -1 0
    outer loop
      vertex 16 25.2 3
      vertex 25.6 25.2 17
      vertex 16 25.2 17
    endloop
  endfacet
  facet normal 0 -1 -0
    outer loop
      vertex 25.6 25.2 17
      vertex 16 25.2 3
      vertex 25.6 25.2 3
    endloop
  endfacet
  facet normal -1 0 0
    outer loop
      vertex 25.6 12.4 3
      vertex 25.6 13.2 17
      vertex 25.6 13.2 3
    endloop
  endfacet
  facet normal -1 -0 0
    outer loop
      vertex 25.6 13.2 17
      vertex 25.6 12.4 3
      vertex 25.6 12.4 17
    endloop
  endfacet
  facet normal -1 0 0
    outer loop
      vertex 16 25.2 3
      vertex 16 26 17
      vertex 16 26 3
    endloop
  endfacet
  facet normal -1 -0 0
    outer loop
      vertex 16 26 17
      vertex 16 25.2 3
      vertex 16 25.2 17
    endloop
  endfacet
  facet normal -1 0 0
    outer loop
      vertex 16 -0.4 3
      vertex 16 0.4 17
      vertex 16 0.4 3
    endloop
  endfacet
  facet normal -1 -0 0
    outer loop
      vertex 16 0.4 17
      vertex 16 -0.4 3
      vertex 16 -0.4 17
    endloop
  endfacet
  facet normal 0 1 -0
    outer loop
      vertex 16 26 3
      vertex 12.4 26 17
      vertex 16 26 17
    endloop
  endfacet
  facet normal 0 1 0
    outer loop
      vertex 12.4 26 17
      vertex 16 26 3
      vertex 12.4 26 3
    endloop
  endfacet
  facet normal 0 0 1
    outer loop
      vertex 16 26 17
      vertex 13.2 25.2 17
      vertex 16 25.2 17
    endloop
  endfacet
  facet normal -0 0 1
    outer loop
      vertex 12.4 26 17
      vertex 13.2 25.2 17
      vertex 16 26 17
    endloop
  endfacet
  facet normal 0 0 1
    outer loop
      vertex 12.4 22.4 17
      vertex 13.2 25.2 17
      vertex 12.4 26 17
    endloop
  endfacet
  facet normal 0 0 1
    outer loop
      vertex 13.2 25.2 17
      vertex 12.4 22.4 17
      vertex 13.2 22.4 17
    endloop
  endfacet
  facet normal 0 -1 0
    outer loop
      vertex 13.2 25.2 3
      vertex 16 25.2 17
      vertex 13.2 25.2 17
    endloop
  endfacet
  facet normal 0 -1 -0
    outer loop
      vertex 16 25.2 17
      vertex 13.2 25.2 3
      vertex 16 25.2 3
    endloop
  endfacet
  facet normal 1 -0 0
    outer loop
      vertex 16 25.2 17
      vertex 16 26 3
      vertex 16 26 17
    endloop
  endfacet
  facet normal 1 0 0
    outer loop
      vertex 16 26 3
      vertex 16 25.2 17
      vertex 16 25.2 3
    endloop
  endfacet
  facet normal -1 0 0
    outer loop
      vertex 12.4 22.4 3
      vertex 12.4 26 17
      vertex 12.4 26 3
    endloop
  endfacet
  facet normal -1 -0 0
    outer loop
      vertex 12.4 26 17
      vertex 12.4 22.4 3
      vertex 12.4 22.4 17
    endloop
  endfacet
  facet normal 0 -1 0
    outer loop
      vertex 12.4 22.4 3
      vertex 13.2 22.4 17
      vertex 12.4 22.4 17
    endloop
  endfacet
  facet normal 0 -1 -0
    outer loop
      vertex 13.2 22.4 17
      vertex 12.4 22.4 3
      vertex 13.2 22.4 3
    endloop
  endfacet
  facet normal 1 -0 0
    outer loop
      vertex 13.2 22.4 17
      vertex 13.2 25.2 3
      vertex 13.2 25.2 17
    endloop
  endfacet
  facet normal 1 0 0
    outer loop
      vertex 13.2 25.2 3
      vertex 13.2 22.4 17
      vertex 13.2 22.4 3
    endloop
  endfacet
  facet normal -1 0 0
    outer loop
      vertex 9.6 -0.4 3
      vertex 9.6 0.4 17
      vertex 9.6 0.4 3
    endloop
  endfacet
  facet normal -1 -0 0
    outer loop
      vertex 9.6 0.4 17
      vertex 9.6 -0.4 3
      vertex 9.6 -0.4 17
    endloop
  endfacet
  facet normal 0 0 1
    outer loop
      vertex 12.4 3.2 17
      vertex 13.2 3.2 17
      vertex 13.2 22.4 17
    endloop
  endfacet
  facet normal 0 0 1
    outer loop
      vertex 13.2 3.2 17
      vertex 12.4 3.2 17
      vertex 13.2 0.4 17
    endloop
  endfacet
  facet normal -0 0 1
    outer loop
      vertex 12.4 22.4 17
      vertex 12.4 3.2 17
      vertex 13.2 22.4 17
    endloop
  endfacet
  facet normal -0 0 1
    outer loop
      vertex 13.2 0.4 17
      vertex 16 -0.4 17
      vertex 16 0.4 17
    endloop
  endfacet
  facet normal 0 0 1
    outer loop
      vertex 12.4 0.4 17
      vertex 13.2 0.4 17
      vertex 12.4 3.2 17
    endloop
  endfacet
  facet normal -0 0 1
    outer loop
      vertex 12.4 0.4 17
      vertex 16 -0.4 17
      vertex 13.2 0.4 17
    endloop
  endfacet
  facet normal 0 0 1
    outer loop
      vertex 9.6 -0.4 17
      vertex 12.4 0.4 17
      vertex 9.6 0.4 17
    endloop
  endfacet
  facet normal 0 0 1
    outer loop
      vertex 12.4 0.4 17
      vertex 9.6 -0.4 17
      vertex 16 -0.4 17
    endloop
  endfacet
  facet normal 1 -0 0
    outer loop
      vertex 16 -0.4 17
      vertex 16 0.4 3
      vertex 16 0.4 17
    endloop
  endfacet
  facet normal 1 0 0
    outer loop
      vertex 16 0.4 3
      vertex 16 -0.4 17
      vertex 16 -0.4 3
    endloop
  endfacet
  facet normal 0 -1 0
    outer loop
      vertex 9.6 -0.4 3
      vertex 16 -0.4 17
      vertex 9.6 -0.4 17
    endloop
  endfacet
  facet normal 0 -1 -0
    outer loop
      vertex 16 -0.4 17
      vertex 9.6 -0.4 3
      vertex 16 -0.4 3
    endloop
  endfacet
  facet normal 0 1 -0
    outer loop
      vertex 16 0.4 3
      vertex 13.2 0.4 17
      vertex 16 0.4 17
    endloop
  endfacet
  facet normal 0 1 0
    outer loop
      vertex 13.2 0.4 17
      vertex 16 0.4 3
      vertex 13.2 0.4 3
    endloop
  endfacet
  facet normal 0 1 -0
    outer loop
      vertex 12.4 0.4 3
      vertex 9.6 0.4 17
      vertex 12.4 0.4 17
    endloop
  endfacet
  facet normal 0 1 0
    outer loop
      vertex 9.6 0.4 17
      vertex 12.4 0.4 3
      vertex 9.6 0.4 3
    endloop
  endfacet
  facet normal -1 0 0
    outer loop
      vertex 12.4 0.4 3
      vertex 12.4 3.2 17
      vertex 12.4 3.2 3
    endloop
  endfacet
  facet normal -1 -0 0
    outer loop
      vertex 12.4 3.2 17
      vertex 12.4 0.4 3
      vertex 12.4 0.4 17
    endloop
  endfacet
  facet normal 1 -0 0
    outer loop
      vertex 13.2 0.4 17
      vertex 13.2 3.2 3
      vertex 13.2 3.2 17
    endloop
  endfacet
  facet normal 1 0 0
    outer loop
      vertex 13.2 3.2 3
      vertex 13.2 0.4 17
      vertex 13.2 0.4 3
    endloop
  endfacet
  facet normal 0 1 -0
    outer loop
      vertex 13.2 3.2 3
      vertex 12.8 3.2 17
      vertex 13.2 3.2 17
    endloop
  endfacet
  facet normal 0 1 0
    outer loop
      vertex 12.8 3.2 17
      vertex 13.2 3.2 3
      vertex 12.8 3.2 3
    endloop
  endfacet
  facet normal 0 1 -0
    outer loop
      vertex 13.2 22.4 3
      vertex 12.4 22.4 17
      vertex 13.2 22.4 17
    endloop
  endfacet
  facet normal 0 1 0
    outer loop
      vertex 12.4 22.4 17
      vertex 13.2 22.4 3
      vertex 12.4 22.4 3
    endloop
  endfacet
  facet normal 1 -0 0
    outer loop
      vertex 13.2 3.2 17
      vertex 13.2 22.4 3
      vertex 13.2 22.4 17
    endloop
  endfacet
  facet normal 1 0 0
    outer loop
      vertex 13.2 22.4 3
      vertex 13.2 3.2 17
      vertex 13.2 3.2 3
    endloop
  endfacet
  facet normal -1 0 0
    outer loop
      vertex 12.4 3.2 3
      vertex 12.4 22.4 17
      vertex 12.4 22.4 3
    endloop
  endfacet
  facet normal -1 -0 0
    outer loop
      vertex 12.4 22.4 17
      vertex 12.4 3.2 3
      vertex 12.4 3.2 17
    endloop
  endfacet
  facet normal 0 -1 0
    outer loop
      vertex 12.8 3.2 3
      vertex 13.2 3.2 17
      vertex 12.8 3.2 17
    endloop
  endfacet
  facet normal 0 -1 -0
    outer loop
      vertex 13.2 3.2 17
      vertex 12.8 3.2 3
      vertex 13.2 3.2 3
    endloop
  endfacet
  facet normal -1 0 0
    outer loop
      vertex 3.2 38 3
      vertex 3.2 38.4 17
      vertex 3.2 38.4 3
    endloop
  endfacet
  facet normal -1 -0 0
    outer loop
      vertex 3.2 38.4 17
      vertex 3.2 38 3
      vertex 3.2 38 17
    endloop
  endfacet
  facet normal 0 0 1
    outer loop
      vertex 0.4 35.2 17
      vertex -0.4 35.2 17
      vertex 0.4 0.4 17
    endloop
  endfacet
  facet normal -0 0 1
    outer loop
      vertex 0.4 0.4 17
      vertex 9.6 -0.4 17
      vertex 9.6 0.4 17
    endloop
  endfacet
  facet normal 0 0 1
    outer loop
      vertex 0.4 0.4 17
      vertex -0.4 -0.4 17
      vertex 9.6 -0.4 17
    endloop
  endfacet
  facet normal 0 0 1
    outer loop
      vertex -0.4 -0.4 17
      vertex 0.4 0.4 17
      vertex -0.4 35.2 17
    endloop
  endfacet
  facet normal 1 -0 0
    outer loop
      vertex 9.6 -0.4 17
      vertex 9.6 0.4 3
      vertex 9.6 0.4 17
    endloop
  endfacet
  facet normal 1 0 0
    outer loop
      vertex 9.6 0.4 3
      vertex 9.6 -0.4 17
      vertex 9.6 -0.4 3
    endloop
  endfacet
  facet normal 0 1 -0
    outer loop
      vertex 9.6 0.4 3
      vertex 0.4 0.4 17
      vertex 9.6 0.4 17
    endloop
  endfacet
  facet normal 0 1 0
    outer loop
      vertex 0.4 0.4 17
      vertex 9.6 0.4 3
      vertex 0.4 0.4 3
    endloop
  endfacet
  facet normal 0 -1 0
    outer loop
      vertex -0.4 -0.4 3
      vertex 9.6 -0.4 17
      vertex -0.4 -0.4 17
    endloop
  endfacet
  facet normal 0 -1 -0
    outer loop
      vertex 9.6 -0.4 17
      vertex -0.4 -0.4 3
      vertex 9.6 -0.4 3
    endloop
  endfacet
  facet normal 0 1 -0
    outer loop
      vertex 3.2 38.8 3
      vertex -0.4 38.8 17
      vertex 3.2 38.8 17
    endloop
  endfacet
  facet normal 0 1 0
    outer loop
      vertex -0.4 38.8 17
      vertex 3.2 38.8 3
      vertex -0.4 38.8 3
    endloop
  endfacet
  facet normal 0 -1 0
    outer loop
      vertex 0.4 38 3
      vertex 3.2 38 17
      vertex 0.4 38 17
    endloop
  endfacet
  facet normal 0 -1 -0
    outer loop
      vertex 3.2 38 17
      vertex 0.4 38 3
      vertex 3.2 38 3
    endloop
  endfacet
  facet normal 1 -0 0
    outer loop
      vertex 3.2 38 17
      vertex 3.2 38.4 3
      vertex 3.2 38.4 17
    endloop
  endfacet
  facet normal 1 0 0
    outer loop
      vertex 3.2 38.4 3
      vertex 3.2 38 17
      vertex 3.2 38 3
    endloop
  endfacet
  facet normal -1 0 0
    outer loop
      vertex -0.4 35.2 3
      vertex -0.4 38.8 17
      vertex -0.4 38.8 3
    endloop
  endfacet
  facet normal -1 -0 0
    outer loop
      vertex -0.4 38.8 17
      vertex -0.4 35.2 3
      vertex -0.4 35.2 17
    endloop
  endfacet
  facet normal 0 -1 0
    outer loop
      vertex -0.4 35.2 3
      vertex 0.4 35.2 17
      vertex -0.4 35.2 17
    endloop
  endfacet
  facet normal 0 -1 -0
    outer loop
      vertex 0.4 35.2 17
      vertex -0.4 35.2 3
      vertex 0.4 35.2 3
    endloop
  endfacet
  facet normal 1 -0 0
    outer loop
      vertex 0.4 35.2 17
      vertex 0.4 38 3
      vertex 0.4 38 17
    endloop
  endfacet
  facet normal 1 0 0
    outer loop
      vertex 0.4 38 3
      vertex 0.4 35.2 17
      vertex 0.4 35.2 3
    endloop
  endfacet
  facet normal -1 0 0
    outer loop
      vertex -0.4 -0.4 3
      vertex -0.4 35.2 17
      vertex -0.4 35.2 3
    endloop
  endfacet
  facet normal -1 -0 0
    outer loop
      vertex -0.4 35.2 17
      vertex -0.4 -0.4 3
      vertex -0.4 -0.4 17
    endloop
  endfacet
  facet normal 1 -0 0
    outer loop
      vertex 0.4 0.4 17
      vertex 0.4 35.2 3
      vertex 0.4 35.2 17
    endloop
  endfacet
  facet normal 1 0 0
    outer loop
      vertex 0.4 35.2 3
      vertex 0.4 0.4 17
      vertex 0.4 0.4 3
    endloop
  endfacet
  facet normal 0 1 -0
    outer loop
      vertex 0.4 35.2 3
      vertex -0.4 35.2 17
      vertex 0.4 35.2 17
    endloop
  endfacet
  facet normal 0 1 0
    outer loop
      vertex -0.4 35.2 17
      vertex 0.4 35.2 3
      vertex -0.4 35.2 3
    endloop
  endfacet
  facet normal -1 0 0
    outer loop
      vertex 39 35.2 0
      vertex 39 39 2
      vertex 39 39 0
    endloop
  endfacet
  facet normal -1 -0 0
    outer loop
      vertex 39 39 2
      vertex 39 35.2 0
      vertex 39 35.2 2
    endloop
  endfacet
  facet normal 0 0 -1
    outer loop
      vertex 37.8 37.8 2
      vertex 39 35.2 2
      vertex 37.8 35.2 2
    endloop
  endfacet
  facet normal 0 0 -1
    outer loop
      vertex 39 35.2 2
      vertex 37.8 37.8 2
      vertex 39 39 2
    endloop
  endfacet
  facet normal 0 0 -1
    outer loop
      vertex 35.2 39 2
      vertex 37.8 37.8 2
      vertex 35.2 37.8 2
    endloop
  endfacet
  facet normal 0 0 -1
    outer loop
      vertex 37.8 37.8 2
      vertex 35.2 39 2
      vertex 39 39 2
    endloop
  endfacet
  facet normal 1 -0 0
    outer loop
      vertex 37.8 35.2 2
      vertex 37.8 37.8 0
      vertex 37.8 37.8 2
    endloop
  endfacet
  facet normal 1 0 0
    outer loop
      vertex 37.8 37.8 0
      vertex 37.8 35.2 2
      vertex 37.8 35.2 0
    endloop
  endfacet
  facet normal 0 1 -0
    outer loop
      vertex 39 35.2 0
      vertex 37.8 35.2 2
      vertex 39 35.2 2
    endloop
  endfacet
  facet normal 0 1 0
    outer loop
      vertex 37.8 35.2 2
      vertex 39 35.2 0
      vertex 37.8 35.2 0
    endloop
  endfacet
  facet normal 0 -1 0
    outer loop
      vertex 35.2 39 0
      vertex 39 39 2
      vertex 35.2 39 2
    endloop
  endfacet
  facet normal 0 -1 -0
    outer loop
      vertex 39 39 2
      vertex 35.2 39 0
      vertex 39 39 0
    endloop
  endfacet
  facet normal 1 -0 0
    outer loop
      vertex 35.2 37.8 2
      vertex 35.2 39 0
      vertex 35.2 39 2
    endloop
  endfacet
  facet normal 1 0 0
    outer loop
      vertex 35.2 39 0
      vertex 35.2 37.8 2
      vertex 35.2 37.8 0
    endloop
  endfacet
  facet normal 0 1 -0
    outer loop
      vertex 37.8 37.8 0
      vertex 35.2 37.8 2
      vertex 37.8 37.8 2
    endloop
  endfacet
  facet normal 0 1 0
    outer loop
      vertex 35.2 37.8 2
      vertex 37.8 37.8 0
      vertex 35.2 37.8 0
    endloop
  endfacet
  facet normal 0 1 -0
    outer loop
      vertex 39 22.4 0
      vertex 37.8 22.4 2
      vertex 39 22.4 2
    endloop
  endfacet
  facet normal 0 1 0
    outer loop
      vertex 37.8 22.4 2
      vertex 39 22.4 0
      vertex 37.8 22.4 0
    endloop
  endfacet
  facet normal 0 0 -1
    outer loop
      vertex 35.2 25 2
      vertex 37.8 26.2 2
      vertex 37.8 25 2
    endloop
  endfacet
  facet normal -0 0 -1
    outer loop
      vertex 37.8 26.2 2
      vertex 35.2 25 2
      vertex 35.2 26.2 2
    endloop
  endfacet
  facet normal 0 0 -1
    outer loop
      vertex 37.8 26.2 2
      vertex 39 28.8 2
      vertex 39 22.4 2
    endloop
  endfacet
  facet normal 0 0 -1
    outer loop
      vertex 37.8 25 2
      vertex 39 22.4 2
      vertex 37.8 22.4 2
    endloop
  endfacet
  facet normal 0 0 -1
    outer loop
      vertex 37.8 26.2 2
      vertex 39 22.4 2
      vertex 37.8 25 2
    endloop
  endfacet
  facet normal -0 0 -1
    outer loop
      vertex 39 28.8 2
      vertex 37.8 26.2 2
      vertex 37.8 28.8 2
    endloop
  endfacet
  facet normal 0 0 -1
    outer loop
      vertex 39 28.8 2
      vertex 37.8 28.8 2
      vertex 39 35.2 2
    endloop
  endfacet
  facet normal -0 0 -1
    outer loop
      vertex 39 35.2 2
      vertex 37.8 28.8 2
      vertex 37.8 35.2 2
    endloop
  endfacet
  facet normal -1 0 0
    outer loop
      vertex 39 22.4 0
      vertex 39 28.8 2
      vertex 39 28.8 0
    endloop
  endfacet
  facet normal -1 -0 0
    outer loop
      vertex 39 28.8 2
      vertex 39 22.4 0
      vertex 39 22.4 2
    endloop
  endfacet
  facet normal 1 -0 0
    outer loop
      vertex 37.8 26.2 2
      vertex 37.8 28.8 0
      vertex 37.8 28.8 2
    endloop
  endfacet
  facet normal 1 0 0
    outer loop
      vertex 37.8 28.8 0
      vertex 37.8 26.2 2
      vertex 37.8 26.2 0
    endloop
  endfacet
  facet normal 1 -0 0
    outer loop
      vertex 37.8 22.4 2
      vertex 37.8 25 0
      vertex 37.8 25 2
    endloop
  endfacet
  facet normal 1 0 0
    outer loop
      vertex 37.8 25 0
      vertex 37.8 22.4 2
      vertex 37.8 22.4 0
    endloop
  endfacet
  facet normal 0 1 -0
    outer loop
      vertex 37.8 25 0
      vertex 35.2 25 2
      vertex 37.8 25 2
    endloop
  endfacet
  facet normal 0 1 0
    outer loop
      vertex 35.2 25 2
      vertex 37.8 25 0
      vertex 35.2 25 0
    endloop
  endfacet
  facet normal 0 -1 0
    outer loop
      vertex 35.2 26.2 0
      vertex 37.8 26.2 2
      vertex 35.2 26.2 2
    endloop
  endfacet
  facet normal 0 -1 -0
    outer loop
      vertex 37.8 26.2 2
      vertex 35.2 26.2 0
      vertex 37.8 26.2 0
    endloop
  endfacet
  facet normal 1 -0 0
    outer loop
      vertex 35.2 25 2
      vertex 35.2 26.2 0
      vertex 35.2 26.2 2
    endloop
  endfacet
  facet normal 1 0 0
    outer loop
      vertex 35.2 26.2 0
      vertex 35.2 25 2
      vertex 35.2 25 0
    endloop
  endfacet
  facet normal 0 1 -0
    outer loop
      vertex 39 -0.599999 0
      vertex 35.2 -0.599999 2
      vertex 39 -0.599999 2
    endloop
  endfacet
  facet normal 0 1 0
    outer loop
      vertex 35.2 -0.599999 2
      vertex 39 -0.599999 0
      vertex 35.2 -0.599999 0
    endloop
  endfacet
  facet normal 0 0 -1
    outer loop
      vertex 38 0.4 2
      vertex 39 3.2 2
      vertex 39 -0.599999 2
    endloop
  endfacet
  facet normal -0 0 -1
    outer loop
      vertex 39 3.2 2
      vertex 38 0.4 2
      vertex 38 3.2 2
    endloop
  endfacet
  facet normal 0 0 -1
    outer loop
      vertex 35.2 -0.599999 2
      vertex 38 0.4 2
      vertex 39 -0.599999 2
    endloop
  endfacet
  facet normal -0 0 -1
    outer loop
      vertex 38 0.4 2
      vertex 35.2 -0.599999 2
      vertex 35.2 0.4 2
    endloop
  endfacet
  facet normal 0 0 -1
    outer loop
      vertex 39 3.2 2
      vertex 38 3.2 2
      vertex 38 9.6 2
    endloop
  endfacet
  facet normal 0 0 -1
    outer loop
      vertex 38 12.4 2
      vertex 39 3.2 2
      vertex 38 9.6 2
    endloop
  endfacet
  facet normal 0 0 -1
    outer loop
      vertex 39 3.2 2
      vertex 38 12.4 2
      vertex 39 22.4 2
    endloop
  endfacet
  facet normal 0 0 -1
    outer loop
      vertex 37.8 22.4 2
      vertex 38 12.4 2
      vertex 37.8 12.4 2
    endloop
  endfacet
  facet normal 0 0 -1
    outer loop
      vertex 38 12.4 2
      vertex 37.8 22.4 2
      vertex 39 22.4 2
    endloop
  endfacet
  facet normal -1 0 0
    outer loop
      vertex 39 -0.599999 0
      vertex 39 3.2 2
      vertex 39 3.2 0
    endloop
  endfacet
  facet normal -1 -0 0
    outer loop
      vertex 39 3.2 2
      vertex 39 -0.599999 0
      vertex 39 -0.599999 2
    endloop
  endfacet
  facet normal 0 -1 0
    outer loop
      vertex 38.4 3.2 0
      vertex 39 3.2 2
      vertex 38.4 3.2 2
    endloop
  endfacet
  facet normal 0 -1 -0
    outer loop
      vertex 39 3.2 2
      vertex 38.4 3.2 0
      vertex 39 3.2 0
    endloop
  endfacet
  facet normal 0 -1 0
    outer loop
      vertex 37.8 35.2 0
      vertex 39 35.2 2
      vertex 37.8 35.2 2
    endloop
  endfacet
  facet normal 0 -1 -0
    outer loop
      vertex 39 35.2 2
      vertex 37.8 35.2 0
      vertex 39 35.2 0
    endloop
  endfacet
  facet normal -1 0 0
    outer loop
      vertex 39 28.8 0
      vertex 39 35.2 2
      vertex 39 35.2 0
    endloop
  endfacet
  facet normal -1 -0 0
    outer loop
      vertex 39 35.2 2
      vertex 39 28.8 0
      vertex 39 28.8 2
    endloop
  endfacet
  facet normal 1 -0 0
    outer loop
      vertex 37.8 28.8 2
      vertex 37.8 35.2 0
      vertex 37.8 35.2 2
    endloop
  endfacet
  facet normal 1 0 0
    outer loop
      vertex 37.8 35.2 0
      vertex 37.8 28.8 2
      vertex 37.8 28.8 0
    endloop
  endfacet
  facet normal 0 -1 0
    outer loop
      vertex 37.8 22.4 0
      vertex 39 22.4 2
      vertex 37.8 22.4 2
    endloop
  endfacet
  facet normal 0 -1 -0
    outer loop
      vertex 39 22.4 2
      vertex 37.8 22.4 0
      vertex 39 22.4 0
    endloop
  endfacet
  facet normal -1 0 0
    outer loop
      vertex 39 3.2 0
      vertex 39 22.4 2
      vertex 39 22.4 0
    endloop
  endfacet
  facet normal -1 -0 0
    outer loop
      vertex 39 22.4 2
      vertex 39 3.2 0
      vertex 39 3.2 2
    endloop
  endfacet
  facet normal 1 -0 0
    outer loop
      vertex 37.8 12.4 2
      vertex 37.8 22.4 0
      vertex 37.8 22.4 2
    endloop
  endfacet
  facet normal 1 0 0
    outer loop
      vertex 37.8 22.4 0
      vertex 37.8 12.4 2
      vertex 37.8 12.4 0
    endloop
  endfacet
  facet normal 0 1 -0
    outer loop
      vertex 39 3.2 0
      vertex 38.4 3.2 2
      vertex 39 3.2 2
    endloop
  endfacet
  facet normal 0 1 0
    outer loop
      vertex 38.4 3.2 2
      vertex 39 3.2 0
      vertex 38.4 3.2 0
    endloop
  endfacet
  facet normal 0 0 -1
    outer loop
      vertex 0.599999 35.2 2
      vertex -0.599999 35.2 2
      vertex 0.599999 37.8 2
    endloop
  endfacet
  facet normal 0 0 -1
    outer loop
      vertex 3.2 37.8 2
      vertex 35.2 39 2
      vertex 35.2 37.8 2
    endloop
  endfacet
  facet normal 0 0 -1
    outer loop
      vertex 3.2 37.8 2
      vertex 3.2 39 2
      vertex 35.2 39 2
    endloop
  endfacet
  facet normal 0 0 -1
    outer loop
      vertex 0.599999 37.8 2
      vertex 3.2 39 2
      vertex 3.2 37.8 2
    endloop
  endfacet
  facet normal 0 0 -1
    outer loop
      vertex 0.599999 37.8 2
      vertex -0.599999 39 2
      vertex 3.2 39 2
    endloop
  endfacet
  facet normal 0 0 -1
    outer loop
      vertex -0.599999 39 2
      vertex 0.599999 37.8 2
      vertex -0.599999 35.2 2
    endloop
  endfacet
  facet normal -1 0 0
    outer loop
      vertex 35.2 37.8 0
      vertex 35.2 39 2
      vertex 35.2 39 0
    endloop
  endfacet
  facet normal -1 -0 0
    outer loop
      vertex 35.2 39 2
      vertex 35.2 37.8 0
      vertex 35.2 37.8 2
    endloop
  endfacet
  facet normal 0 1 -0
    outer loop
      vertex 35.2 37.8 0
      vertex 3.2 37.8 2
      vertex 35.2 37.8 2
    endloop
  endfacet
  facet normal 0 1 0
    outer loop
      vertex 3.2 37.8 2
      vertex 35.2 37.8 0
      vertex 3.2 37.8 0
    endloop
  endfacet
  facet normal 0 -1 0
    outer loop
      vertex 3.2 39 0
      vertex 35.2 39 2
      vertex 3.2 39 2
    endloop
  endfacet
  facet normal 0 -1 -0
    outer loop
      vertex 35.2 39 2
      vertex 3.2 39 0
      vertex 35.2 39 0
    endloop
  endfacet
  facet normal 0 0 -1
    outer loop
      vertex 16 25 2
      vertex 35.2 26.2 2
      vertex 35.2 25 2
    endloop
  endfacet
  facet normal -0 0 -1
    outer loop
      vertex 35.2 26.2 2
      vertex 16 25 2
      vertex 16 26.2 2
    endloop
  endfacet
  facet normal -1 0 0
    outer loop
      vertex 35.2 25 0
      vertex 35.2 26.2 2
      vertex 35.2 26.2 0
    endloop
  endfacet
  facet normal -1 -0 0
    outer loop
      vertex 35.2 26.2 2
      vertex 35.2 25 0
      vertex 35.2 25 2
    endloop
  endfacet
  facet normal 0 -1 0
    outer loop
      vertex 16 26.2 0
      vertex 35.2 26.2 2
      vertex 16 26.2 2
    endloop
  endfacet
  facet normal 0 -1 -0
    outer loop
      vertex 35.2 26.2 2
      vertex 16 26.2 0
      vertex 35.2 26.2 0
    endloop
  endfacet
  facet normal 0 1 -0
    outer loop
      vertex 35.2 25 0
      vertex 16 25 2
      vertex 35.2 25 2
    endloop
  endfacet
  facet normal 0 1 0
    outer loop
      vertex 16 25 2
      vertex 35.2 25 0
      vertex 16 25 0
    endloop
  endfacet
  facet normal 0 0 -1
    outer loop
      vertex 28.8 -0.599999 2
      vertex 35.2 0.4 2
      vertex 35.2 -0.599999 2
    endloop
  endfacet
  facet normal 0 0 -1
    outer loop
      vertex 28.8 -0.599999 2
      vertex 26 0.4 2
      vertex 35.2 0.4 2
    endloop
  endfacet
  facet normal 0 0 -1
    outer loop
      vertex 25 0.599999 2
      vertex 26 3.2 2
      vertex 26 0.4 2
    endloop
  endfacet
  facet normal -0 0 -1
    outer loop
      vertex 26 3.2 2
      vertex 25 0.599999 2
      vertex 25 3.2 2
    endloop
  endfacet
  facet normal 0 0 -1
    outer loop
      vertex 22.4 -0.599999 2
      vertex 26 0.4 2
      vertex 28.8 -0.599999 2
    endloop
  endfacet
  facet normal -0 0 -1
    outer loop
      vertex 26 0.4 2
      vertex 22.4 -0.599999 2
      vertex 25 0.599999 2
    endloop
  endfacet
  facet normal -0 0 -1
    outer loop
      vertex 25 0.599999 2
      vertex 22.4 -0.599999 2
      vertex 22.4 0.599999 2
    endloop
  endfacet
  facet normal 0 0 -1
    outer loop
      vertex 26 12.4 2
      vertex 26.2 12.8 2
      vertex 26.2 12.4 2
    endloop
  endfacet
  facet normal 0 0 -1
    outer loop
      vertex 26 3.2 2
      vertex 25 3.2 2
      vertex 26 12.4 2
    endloop
  endfacet
  facet normal 0 0 -1
    outer loop
      vertex 26 12.4 2
      vertex 25 12.8 2
      vertex 26.2 12.8 2
    endloop
  endfacet
  facet normal 0 0 -1
    outer loop
      vertex 25 12.8 2
      vertex 26 12.4 2
      vertex 25 3.2 2
    endloop
  endfacet
  facet normal -1 0 0
    outer loop
      vertex 35.2 -0.599999 0
      vertex 35.2 0.4 2
      vertex 35.2 0.4 0
    endloop
  endfacet
  facet normal -1 -0 0
    outer loop
      vertex 35.2 0.4 2
      vertex 35.2 -0.599999 0
      vertex 35.2 -0.599999 2
    endloop
  endfacet
  facet normal 0 1 -0
    outer loop
      vertex 35.2 -0.599999 0
      vertex 28.8 -0.599999 2
      vertex 35.2 -0.599999 2
    endloop
  endfacet
  facet normal 0 1 0
    outer loop
      vertex 28.8 -0.599999 2
      vertex 35.2 -0.599999 0
      vertex 28.8 -0.599999 0
    endloop
  endfacet
  facet normal 1 -0 0
    outer loop
      vertex 22.4 -0.599999 2
      vertex 22.4 0.599999 0
      vertex 22.4 0.599999 2
    endloop
  endfacet
  facet normal 1 0 0
    outer loop
      vertex 22.4 0.599999 0
      vertex 22.4 -0.599999 2
      vertex 22.4 -0.599999 0
    endloop
  endfacet
  facet normal 0 1 -0
    outer loop
      vertex 28.8 -0.599999 0
      vertex 22.4 -0.599999 2
      vertex 28.8 -0.599999 2
    endloop
  endfacet
  facet normal 0 1 0
    outer loop
      vertex 22.4 -0.599999 2
      vertex 28.8 -0.599999 0
      vertex 22.4 -0.599999 0
    endloop
  endfacet
  facet normal 0 -1 0
    outer loop
      vertex 22.4 0.599999 0
      vertex 25 0.599999 2
      vertex 22.4 0.599999 2
    endloop
  endfacet
  facet normal 0 -1 -0
    outer loop
      vertex 25 0.599999 2
      vertex 22.4 0.599999 0
      vertex 25 0.599999 0
    endloop
  endfacet
  facet normal 1 -0 0
    outer loop
      vertex 25 0.599999 2
      vertex 25 3.2 0
      vertex 25 3.2 2
    endloop
  endfacet
  facet normal 1 0 0
    outer loop
      vertex 25 3.2 0
      vertex 25 0.599999 2
      vertex 25 0.599999 0
    endloop
  endfacet
  facet normal 0 -1 0
    outer loop
      vertex 25.6 3.2 0
      vertex 26 3.2 2
      vertex 25.6 3.2 2
    endloop
  endfacet
  facet normal 0 -1 -0
    outer loop
      vertex 26 3.2 2
      vertex 25.6 3.2 0
      vertex 26 3.2 0
    endloop
  endfacet
  facet normal 0 -1 0
    outer loop
      vertex 25 12.8 0
      vertex 26.2 12.8 2
      vertex 25 12.8 2
    endloop
  endfacet
  facet normal 0 -1 -0
    outer loop
      vertex 26.2 12.8 2
      vertex 25 12.8 0
      vertex 26.2 12.8 0
    endloop
  endfacet
  facet normal 1 -0 0
    outer loop
      vertex 25 3.2 2
      vertex 25 12.8 0
      vertex 25 12.8 2
    endloop
  endfacet
  facet normal 1 0 0
    outer loop
      vertex 25 12.8 0
      vertex 25 3.2 2
      vertex 25 3.2 0
    endloop
  endfacet
  facet normal -1 0 0
    outer loop
      vertex 26.2 12.4 0
      vertex 26.2 12.8 2
      vertex 26.2 12.8 0
    endloop
  endfacet
  facet normal -1 -0 0
    outer loop
      vertex 26.2 12.8 2
      vertex 26.2 12.4 0
      vertex 26.2 12.4 2
    endloop
  endfacet
  facet normal 0 1 -0
    outer loop
      vertex 26 3.2 0
      vertex 25.6 3.2 2
      vertex 26 3.2 2
    endloop
  endfacet
  facet normal 0 1 0
    outer loop
      vertex 25.6 3.2 2
      vertex 26 3.2 0
      vertex 25.6 3.2 0
    endloop
  endfacet
  facet normal 1 -0 0
    outer loop
      vertex 16 25 2
      vertex 16 26.2 0
      vertex 16 26.2 2
    endloop
  endfacet
  facet normal 1 0 0
    outer loop
      vertex 16 26.2 0
      vertex 16 25 2
      vertex 16 25 0
    endloop
  endfacet
  facet normal 0 0 -1
    outer loop
      vertex 22.4 -0.599999 2
      vertex 0.599999 0.599999 2
      vertex 22.4 0.599999 2
    endloop
  endfacet
  facet normal 0 0 -1
    outer loop
      vertex -0.599999 -0.599999 2
      vertex 0.599999 0.599999 2
      vertex 22.4 -0.599999 2
    endloop
  endfacet
  facet normal 0 0 -1
    outer loop
      vertex -0.599999 35.2 2
      vertex 0.599999 0.599999 2
      vertex -0.599999 -0.599999 2
    endloop
  endfacet
  facet normal 0 0 -1
    outer loop
      vertex 0.599999 0.599999 2
      vertex -0.599999 35.2 2
      vertex 0.599999 35.2 2
    endloop
  endfacet
  facet normal -1 0 0
    outer loop
      vertex 22.4 -0.599999 0
      vertex 22.4 0.599999 2
      vertex 22.4 0.599999 0
    endloop
  endfacet
  facet normal -1 -0 0
    outer loop
      vertex 22.4 0.599999 2
      vertex 22.4 -0.599999 0
      vertex 22.4 -0.599999 2
    endloop
  endfacet
  facet normal 0 1 -0
    outer loop
      vertex 22.4 -0.599999 0
      vertex -0.599999 -0.599999 2
      vertex 22.4 -0.599999 2
    endloop
  endfacet
  facet normal 0 1 0
    outer loop
      vertex -0.599999 -0.599999 2
      vertex 22.4 -0.599999 0
      vertex -0.599999 -0.599999 0
    endloop
  endfacet
  facet normal 0 -1 0
    outer loop
      vertex 0.599999 0.599999 0
      vertex 22.4 0.599999 2
      vertex 0.599999 0.599999 2
    endloop
  endfacet
  facet normal 0 -1 -0
    outer loop
      vertex 22.4 0.599999 2
      vertex 0.599999 0.599999 0
      vertex 22.4 0.599999 0
    endloop
  endfacet
  facet normal 0 -1 0
    outer loop
      vertex 12.2 26.2 0
      vertex 16 26.2 2
      vertex 12.2 26.2 2
    endloop
  endfacet
  facet normal 0 -1 -0
    outer loop
      vertex 16 26.2 2
      vertex 12.2 26.2 0
      vertex 16 26.2 0
    endloop
  endfacet
  facet normal 0 0 -1
    outer loop
      vertex 13.4 22.4 2
      vertex 12.2 22.4 2
      vertex 13.4 25 2
    endloop
  endfacet
  facet normal 0 0 -1
    outer loop
      vertex 13.4 25 2
      vertex 16 26.2 2
      vertex 16 25 2
    endloop
  endfacet
  facet normal 0 0 -1
    outer loop
      vertex 13.4 25 2
      vertex 12.2 26.2 2
      vertex 16 26.2 2
    endloop
  endfacet
  facet normal 0 0 -1
    outer loop
      vertex 12.2 26.2 2
      vertex 13.4 25 2
      vertex 12.2 22.4 2
    endloop
  endfacet
  facet normal 0 1 -0
    outer loop
      vertex 16 25 0
      vertex 13.4 25 2
      vertex 16 25 2
    endloop
  endfacet
  facet normal 0 1 0
    outer loop
      vertex 13.4 25 2
      vertex 16 25 0
      vertex 13.4 25 0
    endloop
  endfacet
  facet normal -1 0 0
    outer loop
      vertex 16 25 0
      vertex 16 26.2 2
      vertex 16 26.2 0
    endloop
  endfacet
  facet normal -1 -0 0
    outer loop
      vertex 16 26.2 2
      vertex 16 25 0
      vertex 16 25 2
    endloop
  endfacet
  facet normal 1 -0 0
    outer loop
      vertex 12.2 22.4 2
      vertex 12.2 26.2 0
      vertex 12.2 26.2 2
    endloop
  endfacet
  facet normal 1 0 0
    outer loop
      vertex 12.2 26.2 0
      vertex 12.2 22.4 2
      vertex 12.2 22.4 0
    endloop
  endfacet
  facet normal 0 1 -0
    outer loop
      vertex 13.4 22.4 0
      vertex 12.2 22.4 2
      vertex 13.4 22.4 2
    endloop
  endfacet
  facet normal 0 1 0
    outer loop
      vertex 12.2 22.4 2
      vertex 13.4 22.4 0
      vertex 12.2 22.4 0
    endloop
  endfacet
  facet normal -1 0 0
    outer loop
      vertex 13.4 22.4 0
      vertex 13.4 25 2
      vertex 13.4 25 0
    endloop
  endfacet
  facet normal -1 -0 0
    outer loop
      vertex 13.4 25 2
      vertex 13.4 22.4 0
      vertex 13.4 22.4 2
    endloop
  endfacet
  facet normal 0 -1 0
    outer loop
      vertex 12.2 22.4 0
      vertex 13.4 22.4 2
      vertex 12.2 22.4 2
    endloop
  endfacet
  facet normal 0 -1 -0
    outer loop
      vertex 13.4 22.4 2
      vertex 12.2 22.4 0
      vertex 13.4 22.4 0
    endloop
  endfacet
  facet normal 0 0 -1
    outer loop
      vertex 12.2 12.8 2
      vertex 13.4 22.4 2
      vertex 13.4 12.8 2
    endloop
  endfacet
  facet normal -0 0 -1
    outer loop
      vertex 13.4 22.4 2
      vertex 12.2 12.8 2
      vertex 12.2 22.4 2
    endloop
  endfacet
  facet normal 1 -0 0
    outer loop
      vertex 12.2 12.8 2
      vertex 12.2 22.4 0
      vertex 12.2 22.4 2
    endloop
  endfacet
  facet normal 1 0 0
    outer loop
      vertex 12.2 22.4 0
      vertex 12.2 12.8 2
      vertex 12.2 12.8 0
    endloop
  endfacet
  facet normal -1 0 0
    outer loop
      vertex 13.4 12.8 0
      vertex 13.4 22.4 2
      vertex 13.4 22.4 0
    endloop
  endfacet
  facet normal -1 -0 0
    outer loop
      vertex 13.4 22.4 2
      vertex 13.4 12.8 0
      vertex 13.4 12.8 2
    endloop
  endfacet
  facet normal 0 1 -0
    outer loop
      vertex 13.4 12.8 0
      vertex 12.2 12.8 2
      vertex 13.4 12.8 2
    endloop
  endfacet
  facet normal 0 1 0
    outer loop
      vertex 12.2 12.8 2
      vertex 13.4 12.8 0
      vertex 12.2 12.8 0
    endloop
  endfacet
  facet normal 1 -0 0
    outer loop
      vertex 3.2 37.8 2
      vertex 3.2 38.4 0
      vertex 3.2 38.4 2
    endloop
  endfacet
  facet normal 1 0 0
    outer loop
      vertex 3.2 38.4 0
      vertex 3.2 37.8 2
      vertex 3.2 37.8 0
    endloop
  endfacet
  facet normal 0 -1 0
    outer loop
      vertex -0.599999 39 0
      vertex 3.2 39 2
      vertex -0.599999 39 2
    endloop
  endfacet
  facet normal 0 -1 -0
    outer loop
      vertex 3.2 39 2
      vertex -0.599999 39 0
      vertex 3.2 39 0
    endloop
  endfacet
  facet normal 0 1 -0
    outer loop
      vertex 3.2 37.8 0
      vertex 0.599999 37.8 2
      vertex 3.2 37.8 2
    endloop
  endfacet
  facet normal 0 1 0
    outer loop
      vertex 0.599999 37.8 2
      vertex 3.2 37.8 0
      vertex 0.599999 37.8 0
    endloop
  endfacet
  facet normal -1 0 0
    outer loop
      vertex 3.2 37.8 0
      vertex 3.2 38.4 2
      vertex 3.2 38.4 0
    endloop
  endfacet
  facet normal -1 -0 0
    outer loop
      vertex 3.2 38.4 2
      vertex 3.2 37.8 0
      vertex 3.2 37.8 2
    endloop
  endfacet
  facet normal 1 -0 0
    outer loop
      vertex -0.599999 35.2 2
      vertex -0.599999 39 0
      vertex -0.599999 39 2
    endloop
  endfacet
  facet normal 1 0 0
    outer loop
      vertex -0.599999 39 0
      vertex -0.599999 35.2 2
      vertex -0.599999 35.2 0
    endloop
  endfacet
  facet normal 0 1 -0
    outer loop
      vertex 0.599999 35.2 0
      vertex -0.599999 35.2 2
      vertex 0.599999 35.2 2
    endloop
  endfacet
  facet normal 0 1 0
    outer loop
      vertex -0.599999 35.2 2
      vertex 0.599999 35.2 0
      vertex -0.599999 35.2 0
    endloop
  endfacet
  facet normal -1 0 0
    outer loop
      vertex 0.599999 35.2 0
      vertex 0.599999 37.8 2
      vertex 0.599999 37.8 0
    endloop
  endfacet
  facet normal -1 -0 0
    outer loop
      vertex 0.599999 37.8 2
      vertex 0.599999 35.2 0
      vertex 0.599999 35.2 2
    endloop
  endfacet
  facet normal 1 -0 0
    outer loop
      vertex -0.599999 -0.599999 2
      vertex -0.599999 35.2 0
      vertex -0.599999 35.2 2
    endloop
  endfacet
  facet normal 1 0 0
    outer loop
      vertex -0.599999 35.2 0
      vertex -0.599999 -0.599999 2
      vertex -0.599999 -0.599999 0
    endloop
  endfacet
  facet normal -1 0 0
    outer loop
      vertex 0.599999 0.599999 0
      vertex 0.599999 35.2 2
      vertex 0.599999 35.2 0
    endloop
  endfacet
  facet normal -1 -0 0
    outer loop
      vertex 0.599999 35.2 2
      vertex 0.599999 0.599999 0
      vertex 0.599999 0.599999 2
    endloop
  endfacet
  facet normal 0 -1 0
    outer loop
      vertex -0.599999 35.2 0
      vertex 0.599999 35.2 2
      vertex -0.599999 35.2 2
    endloop
  endfacet
  facet normal 0 -1 -0
    outer loop
      vertex 0.599999 35.2 2
      vertex -0.599999 35.2 0
      vertex 0.599999 35.2 0
    endloop
  endfacet
endsolid OpenSCAD_Model
