solid OpenSCAD_Model
  facet normal 1 -0 0
    outer loop
      vertex 51.6 48 17
      vertex 51.6 51.6 3
      vertex 51.6 51.6 17
    endloop
  endfacet
  facet normal 1 0 0
    outer loop
      vertex 51.6 51.6 3
      vertex 51.6 48 17
      vertex 51.6 48 3
    endloop
  endfacet
  facet normal 0 0 1
    outer loop
      vertex 51.6 51.6 17
      vertex 50.8 50.8 17
      vertex 51.6 48 17
    endloop
  endfacet
  facet normal -0 0 1
    outer loop
      vertex 48 51.6 17
      vertex 50.8 50.8 17
      vertex 51.6 51.6 17
    endloop
  endfacet
  facet normal 0 0 1
    outer loop
      vertex 50.8 50.8 17
      vertex 48 51.6 17
      vertex 48 50.8 17
    endloop
  endfacet
  facet normal 0 0 1
    outer loop
      vertex 51.6 48 17
      vertex 50.8 50.8 17
      vertex 50.8 48 17
    endloop
  endfacet
  facet normal -1 0 0
    outer loop
      vertex 50.8 48 3
      vertex 50.8 50.8 17
      vertex 50.8 50.8 3
    endloop
  endfacet
  facet normal -1 -0 0
    outer loop
      vertex 50.8 50.8 17
      vertex 50.8 48 3
      vertex 50.8 48 17
    endloop
  endfacet
  facet normal 0 -1 0
    outer loop
      vertex 50.8 48 3
      vertex 51.6 48 17
      vertex 50.8 48 17
    endloop
  endfacet
  facet normal 0 -1 -0
    outer loop
      vertex 51.6 48 17
      vertex 50.8 48 3
      vertex 51.6 48 3
    endloop
  endfacet
  facet normal 0 0 -1
    outer loop
      vertex 54.4 -3.2 0
      vertex 50.8 38.8 0
      vertex 54.4 54.4 0
    endloop
  endfacet
  facet normal 0 0 -1
    outer loop
      vertex 54.4 -3.2 0
      vertex 38.8 38.8 0
      vertex 50.8 38.8 0
    endloop
  endfacet
  facet normal 0 0 -1
    outer loop
      vertex -3.2 54.4 0
      vertex 38.8 38.8 0
      vertex -3.2 -3.2 0
    endloop
  endfacet
  facet normal 0 0 -1
    outer loop
      vertex -3.2 -3.2 0
      vertex 38.8 38.8 0
      vertex 54.4 -3.2 0
    endloop
  endfacet
  facet normal 0 0 -1
    outer loop
      vertex 50.8 48 0
      vertex 54.4 54.4 0
      vertex 50.8 38.8 0
    endloop
  endfacet
  facet normal 0 0 -1
    outer loop
      vertex 50.8 50.8 0
      vertex 54.4 54.4 0
      vertex 50.8 48 0
    endloop
  endfacet
  facet normal 0 0 -1
    outer loop
      vertex 48 50.8 0
      vertex 54.4 54.4 0
      vertex 50.8 50.8 0
    endloop
  endfacet
  facet normal 0 0 -1
    outer loop
      vertex 38.8 50.8 0
      vertex 54.4 54.4 0
      vertex 48 50.8 0
    endloop
  endfacet
  facet normal 0 0 -1
    outer loop
      vertex 38.8 50.8 0
      vertex -3.2 54.4 0
      vertex 54.4 54.4 0
    endloop
  endfacet
  facet normal 0 0 -1
    outer loop
      vertex 38.8 38.8 0
      vertex -3.2 54.4 0
      vertex 38.8 50.8 0
    endloop
  endfacet
  facet normal 0 1 -0
    outer loop
      vertex 51.6 51.6 3
      vertex 48 51.6 17
      vertex 51.6 51.6 17
    endloop
  endfacet
  facet normal 0 1 0
    outer loop
      vertex 48 51.6 17
      vertex 51.6 51.6 3
      vertex 48 51.6 3
    endloop
  endfacet
  facet normal -1 0 0
    outer loop
      vertex 48 50.8 3
      vertex 48 51.6 17
      vertex 48 51.6 3
    endloop
  endfacet
  facet normal -1 -0 0
    outer loop
      vertex 48 51.6 17
      vertex 48 50.8 3
      vertex 48 50.8 17
    endloop
  endfacet
  facet normal 0 -1 0
    outer loop
      vertex 48 50.8 3
      vertex 50.8 50.8 17
      vertex 48 50.8 17
    endloop
  endfacet
  facet normal 0 -1 -0
    outer loop
      vertex 50.8 50.8 17
      vertex 48 50.8 3
      vertex 50.8 50.8 3
    endloop
  endfacet
  facet normal 0 -1 0
    outer loop
      vertex 48 -0.4 3
      vertex 51.6 -0.4 17
      vertex 48 -0.4 17
    endloop
  endfacet
  facet normal 0 -1 -0
    outer loop
      vertex 51.6 -0.4 17
      vertex 48 -0.4 3
      vertex 51.6 -0.4 3
    endloop
  endfacet
  facet normal 0 0 1
    outer loop
      vertex 50.8 3.2 17
      vertex 51.6 3.2 17
      vertex 51.6 22.4 17
    endloop
  endfacet
  facet normal 0 0 1
    outer loop
      vertex 50.8 3.2 17
      vertex 51.6 22.4 17
      vertex 50.8 22.4 17
    endloop
  endfacet
  facet normal 0 0 1
    outer loop
      vertex 50.8 0.4 17
      vertex 51.6 3.2 17
      vertex 50.8 3.2 17
    endloop
  endfacet
  facet normal 0 0 1
    outer loop
      vertex 51.6 3.2 17
      vertex 50.8 0.4 17
      vertex 51.6 -0.4 17
    endloop
  endfacet
  facet normal 0 0 1
    outer loop
      vertex 48 -0.4 17
      vertex 50.8 0.4 17
      vertex 48 0.4 17
    endloop
  endfacet
  facet normal 0 0 1
    outer loop
      vertex 50.8 0.4 17
      vertex 48 -0.4 17
      vertex 51.6 -0.4 17
    endloop
  endfacet
  facet normal 0 1 -0
    outer loop
      vertex 50.8 0.4 3
      vertex 48 0.4 17
      vertex 50.8 0.4 17
    endloop
  endfacet
  facet normal 0 1 0
    outer loop
      vertex 48 0.4 17
      vertex 50.8 0.4 3
      vertex 48 0.4 3
    endloop
  endfacet
  facet normal -1 0 0
    outer loop
      vertex 48 -0.4 3
      vertex 48 0.4 17
      vertex 48 0.4 3
    endloop
  endfacet
  facet normal -1 -0 0
    outer loop
      vertex 48 0.4 17
      vertex 48 -0.4 3
      vertex 48 -0.4 17
    endloop
  endfacet
  facet normal 1 -0 0
    outer loop
      vertex 51.6 -0.4 17
      vertex 51.6 3.2 3
      vertex 51.6 3.2 17
    endloop
  endfacet
  facet normal 1 0 0
    outer loop
      vertex 51.6 3.2 3
      vertex 51.6 -0.4 17
      vertex 51.6 -0.4 3
    endloop
  endfacet
  facet normal 0 1 -0
    outer loop
      vertex 51.6 3.2 3
      vertex 51.2 3.2 17
      vertex 51.6 3.2 17
    endloop
  endfacet
  facet normal 0 1 0
    outer loop
      vertex 51.2 3.2 17
      vertex 51.6 3.2 3
      vertex 51.2 3.2 3
    endloop
  endfacet
  facet normal -1 0 0
    outer loop
      vertex 50.8 0.4 3
      vertex 50.8 3.2 17
      vertex 50.8 3.2 3
    endloop
  endfacet
  facet normal -1 -0 0
    outer loop
      vertex 50.8 3.2 17
      vertex 50.8 0.4 3
      vertex 50.8 0.4 17
    endloop
  endfacet
  facet normal -1 0 0
    outer loop
      vertex 3.2 50.8 3
      vertex 3.2 51.2 17
      vertex 3.2 51.2 3
    endloop
  endfacet
  facet normal -1 -0 0
    outer loop
      vertex 3.2 51.2 17
      vertex 3.2 50.8 3
      vertex 3.2 50.8 17
    endloop
  endfacet
  facet normal -0 0 1
    outer loop
      vertex 3.2 51.6 17
      vertex 9.6 50.8 17
      vertex 9.6 51.6 17
    endloop
  endfacet
  facet normal 0 0 1
    outer loop
      vertex 3.2 51.6 17
      vertex 3.2 50.8 17
      vertex 9.6 50.8 17
    endloop
  endfacet
  facet normal 0 0 1
    outer loop
      vertex 3.2 51.6 17
      vertex 0.4 50.8 17
      vertex 3.2 50.8 17
    endloop
  endfacet
  facet normal -0 0 1
    outer loop
      vertex -0.4 51.6 17
      vertex 0.4 50.8 17
      vertex 3.2 51.6 17
    endloop
  endfacet
  facet normal 0 0 1
    outer loop
      vertex -0.4 48 17
      vertex 0.4 50.8 17
      vertex -0.4 51.6 17
    endloop
  endfacet
  facet normal 0 0 1
    outer loop
      vertex 0.4 50.8 17
      vertex -0.4 48 17
      vertex 0.4 48 17
    endloop
  endfacet
  facet normal 1 -0 0
    outer loop
      vertex 9.6 50.8 17
      vertex 9.6 51.6 3
      vertex 9.6 51.6 17
    endloop
  endfacet
  facet normal 1 0 0
    outer loop
      vertex 9.6 51.6 3
      vertex 9.6 50.8 17
      vertex 9.6 50.8 3
    endloop
  endfacet
  facet normal 0 1 -0
    outer loop
      vertex 9.6 51.6 3
      vertex 3.2 51.6 17
      vertex 9.6 51.6 17
    endloop
  endfacet
  facet normal 0 1 0
    outer loop
      vertex 3.2 51.6 17
      vertex 9.6 51.6 3
      vertex 3.2 51.6 3
    endloop
  endfacet
  facet normal 0 -1 0
    outer loop
      vertex 3.2 50.8 3
      vertex 9.6 50.8 17
      vertex 3.2 50.8 17
    endloop
  endfacet
  facet normal 0 -1 -0
    outer loop
      vertex 9.6 50.8 17
      vertex 3.2 50.8 3
      vertex 9.6 50.8 3
    endloop
  endfacet
  facet normal 0 0 1
    outer loop
      vertex 0.4 48 17
      vertex -0.4 48 17
      vertex 0.4 0.4 17
    endloop
  endfacet
  facet normal -0 0 1
    outer loop
      vertex 0.4 0.4 17
      vertex 9.6 -0.4 17
      vertex 9.6 0.4 17
    endloop
  endfacet
  facet normal 0 0 1
    outer loop
      vertex 0.4 0.4 17
      vertex -0.4 -0.4 17
      vertex 9.6 -0.4 17
    endloop
  endfacet
  facet normal 0 0 1
    outer loop
      vertex -0.4 -0.4 17
      vertex 0.4 0.4 17
      vertex -0.4 48 17
    endloop
  endfacet
  facet normal 1 -0 0
    outer loop
      vertex 9.6 -0.4 17
      vertex 9.6 0.4 3
      vertex 9.6 0.4 17
    endloop
  endfacet
  facet normal 1 0 0
    outer loop
      vertex 9.6 0.4 3
      vertex 9.6 -0.4 17
      vertex 9.6 -0.4 3
    endloop
  endfacet
  facet normal 0 1 -0
    outer loop
      vertex 9.6 0.4 3
      vertex 0.4 0.4 17
      vertex 9.6 0.4 17
    endloop
  endfacet
  facet normal 0 1 0
    outer loop
      vertex 0.4 0.4 17
      vertex 9.6 0.4 3
      vertex 0.4 0.4 3
    endloop
  endfacet
  facet normal 0 -1 0
    outer loop
      vertex -0.4 -0.4 3
      vertex 9.6 -0.4 17
      vertex -0.4 -0.4 17
    endloop
  endfacet
  facet normal 0 -1 -0
    outer loop
      vertex 9.6 -0.4 17
      vertex -0.4 -0.4 3
      vertex 9.6 -0.4 3
    endloop
  endfacet
  facet normal 0 1 -0
    outer loop
      vertex 3.2 51.6 3
      vertex -0.4 51.6 17
      vertex 3.2 51.6 17
    endloop
  endfacet
  facet normal 0 1 0
    outer loop
      vertex -0.4 51.6 17
      vertex 3.2 51.6 3
      vertex -0.4 51.6 3
    endloop
  endfacet
  facet normal 0 -1 0
    outer loop
      vertex 0.4 50.8 3
      vertex 3.2 50.8 17
      vertex 0.4 50.8 17
    endloop
  endfacet
  facet normal 0 -1 -0
    outer loop
      vertex 3.2 50.8 17
      vertex 0.4 50.8 3
      vertex 3.2 50.8 3
    endloop
  endfacet
  facet normal 1 -0 0
    outer loop
      vertex 3.2 50.8 17
      vertex 3.2 51.2 3
      vertex 3.2 51.2 17
    endloop
  endfacet
  facet normal 1 0 0
    outer loop
      vertex 3.2 51.2 3
      vertex 3.2 50.8 17
      vertex 3.2 50.8 3
    endloop
  endfacet
  facet normal -1 0 0
    outer loop
      vertex -0.4 48 3
      vertex -0.4 51.6 17
      vertex -0.4 51.6 3
    endloop
  endfacet
  facet normal -1 -0 0
    outer loop
      vertex -0.4 51.6 17
      vertex -0.4 48 3
      vertex -0.4 48 17
    endloop
  endfacet
  facet normal 0 -1 0
    outer loop
      vertex -0.4 48 3
      vertex 0.4 48 17
      vertex -0.4 48 17
    endloop
  endfacet
  facet normal 0 -1 -0
    outer loop
      vertex 0.4 48 17
      vertex -0.4 48 3
      vertex 0.4 48 3
    endloop
  endfacet
  facet normal 1 -0 0
    outer loop
      vertex 0.4 48 17
      vertex 0.4 50.8 3
      vertex 0.4 50.8 17
    endloop
  endfacet
  facet normal 1 0 0
    outer loop
      vertex 0.4 50.8 3
      vertex 0.4 48 17
      vertex 0.4 48 3
    endloop
  endfacet
  facet normal -1 0 0
    outer loop
      vertex -0.4 -0.4 3
      vertex -0.4 48 17
      vertex -0.4 48 3
    endloop
  endfacet
  facet normal -1 -0 0
    outer loop
      vertex -0.4 48 17
      vertex -0.4 -0.4 3
      vertex -0.4 -0.4 17
    endloop
  endfacet
  facet normal 1 -0 0
    outer loop
      vertex 0.4 0.4 17
      vertex 0.4 48 3
      vertex 0.4 48 17
    endloop
  endfacet
  facet normal 1 0 0
    outer loop
      vertex 0.4 48 3
      vertex 0.4 0.4 17
      vertex 0.4 0.4 3
    endloop
  endfacet
  facet normal 0 1 -0
    outer loop
      vertex 0.4 48 3
      vertex -0.4 48 17
      vertex 0.4 48 17
    endloop
  endfacet
  facet normal 0 1 0
    outer loop
      vertex -0.4 48 17
      vertex 0.4 48 3
      vertex -0.4 48 3
    endloop
  endfacet
  facet normal 0 -1 0
    outer loop
      vertex 50.8 22.4 3
      vertex 51.6 22.4 17
      vertex 50.8 22.4 17
    endloop
  endfacet
  facet normal 0 -1 -0
    outer loop
      vertex 51.6 22.4 17
      vertex 50.8 22.4 3
      vertex 51.6 22.4 3
    endloop
  endfacet
  facet normal -0 0 1
    outer loop
      vertex 48 26 17
      vertex 50.8 25.2 17
      vertex 50.8 26 17
    endloop
  endfacet
  facet normal 0 0 1
    outer loop
      vertex 50.8 25.2 17
      vertex 48 26 17
      vertex 48 25.2 17
    endloop
  endfacet
  facet normal 0 0 1
    outer loop
      vertex 50.8 28.8 17
      vertex 51.6 28.8 17
      vertex 51.6 48 17
    endloop
  endfacet
  facet normal 0 0 1
    outer loop
      vertex 50.8 28.8 17
      vertex 51.6 48 17
      vertex 50.8 48 17
    endloop
  endfacet
  facet normal 0 0 1
    outer loop
      vertex 50.8 26 17
      vertex 51.6 28.8 17
      vertex 50.8 28.8 17
    endloop
  endfacet
  facet normal 0 0 1
    outer loop
      vertex 51.6 28.8 17
      vertex 50.8 26 17
      vertex 51.6 22.4 17
    endloop
  endfacet
  facet normal -0 0 1
    outer loop
      vertex 50.8 25.2 17
      vertex 51.6 22.4 17
      vertex 50.8 26 17
    endloop
  endfacet
  facet normal 0 0 1
    outer loop
      vertex 51.6 22.4 17
      vertex 50.8 25.2 17
      vertex 50.8 22.4 17
    endloop
  endfacet
  facet normal 1 -0 0
    outer loop
      vertex 51.6 22.4 17
      vertex 51.6 28.8 3
      vertex 51.6 28.8 17
    endloop
  endfacet
  facet normal 1 0 0
    outer loop
      vertex 51.6 28.8 3
      vertex 51.6 22.4 17
      vertex 51.6 22.4 3
    endloop
  endfacet
  facet normal -1 0 0
    outer loop
      vertex 50.8 26 3
      vertex 50.8 28.8 17
      vertex 50.8 28.8 3
    endloop
  endfacet
  facet normal -1 -0 0
    outer loop
      vertex 50.8 28.8 17
      vertex 50.8 26 3
      vertex 50.8 26 17
    endloop
  endfacet
  facet normal -1 0 0
    outer loop
      vertex 50.8 22.4 3
      vertex 50.8 25.2 17
      vertex 50.8 25.2 3
    endloop
  endfacet
  facet normal -1 -0 0
    outer loop
      vertex 50.8 25.2 17
      vertex 50.8 22.4 3
      vertex 50.8 22.4 17
    endloop
  endfacet
  facet normal 0 -1 0
    outer loop
      vertex 48 25.2 3
      vertex 50.8 25.2 17
      vertex 48 25.2 17
    endloop
  endfacet
  facet normal 0 -1 -0
    outer loop
      vertex 50.8 25.2 17
      vertex 48 25.2 3
      vertex 50.8 25.2 3
    endloop
  endfacet
  facet normal 0 1 -0
    outer loop
      vertex 50.8 26 3
      vertex 48 26 17
      vertex 50.8 26 17
    endloop
  endfacet
  facet normal 0 1 0
    outer loop
      vertex 48 26 17
      vertex 50.8 26 3
      vertex 48 26 3
    endloop
  endfacet
  facet normal -1 0 0
    outer loop
      vertex 48 25.2 3
      vertex 48 26 17
      vertex 48 26 3
    endloop
  endfacet
  facet normal -1 -0 0
    outer loop
      vertex 48 26 17
      vertex 48 25.2 3
      vertex 48 25.2 17
    endloop
  endfacet
  facet normal 0 1 -0
    outer loop
      vertex 51.6 48 3
      vertex 50.8 48 17
      vertex 51.6 48 17
    endloop
  endfacet
  facet normal 0 1 0
    outer loop
      vertex 50.8 48 17
      vertex 51.6 48 3
      vertex 50.8 48 3
    endloop
  endfacet
  facet normal 1 -0 0
    outer loop
      vertex 51.6 28.8 17
      vertex 51.6 48 3
      vertex 51.6 48 17
    endloop
  endfacet
  facet normal 1 0 0
    outer loop
      vertex 51.6 48 3
      vertex 51.6 28.8 17
      vertex 51.6 28.8 3
    endloop
  endfacet
  facet normal -1 0 0
    outer loop
      vertex 50.8 38.8 3
      vertex 50.8 48 3
      vertex 50.8 48 0
    endloop
  endfacet
  facet normal -1 0 0
    outer loop
      vertex 50.8 38.8 3
      vertex 50.8 48 0
      vertex 50.8 38.8 0
    endloop
  endfacet
  facet normal -1 0 0
    outer loop
      vertex 50.8 48 3
      vertex 50.8 38.8 3
      vertex 50.8 48 17
    endloop
  endfacet
  facet normal -1 0 0
    outer loop
      vertex 50.8 28.8 17
      vertex 50.8 38.8 3
      vertex 50.8 28.8 3
    endloop
  endfacet
  facet normal -1 0 0
    outer loop
      vertex 50.8 38.8 3
      vertex 50.8 28.8 17
      vertex 50.8 48 17
    endloop
  endfacet
  facet normal -1 0 0
    outer loop
      vertex 50.8 48 0
      vertex 50.8 50.8 3
      vertex 50.8 50.8 0
    endloop
  endfacet
  facet normal -1 -0 0
    outer loop
      vertex 50.8 50.8 3
      vertex 50.8 48 0
      vertex 50.8 48 3
    endloop
  endfacet
  facet normal 0 1 -0
    outer loop
      vertex 51.6 22.4 3
      vertex 50.8 22.4 17
      vertex 51.6 22.4 17
    endloop
  endfacet
  facet normal 0 1 0
    outer loop
      vertex 50.8 22.4 17
      vertex 51.6 22.4 3
      vertex 50.8 22.4 3
    endloop
  endfacet
  facet normal -1 0 0
    outer loop
      vertex 50.8 3.2 3
      vertex 50.8 22.4 17
      vertex 50.8 22.4 3
    endloop
  endfacet
  facet normal -1 -0 0
    outer loop
      vertex 50.8 22.4 17
      vertex 50.8 3.2 3
      vertex 50.8 3.2 17
    endloop
  endfacet
  facet normal 1 -0 0
    outer loop
      vertex 51.6 3.2 17
      vertex 51.6 22.4 3
      vertex 51.6 22.4 17
    endloop
  endfacet
  facet normal 1 0 0
    outer loop
      vertex 51.6 22.4 3
      vertex 51.6 3.2 17
      vertex 51.6 3.2 3
    endloop
  endfacet
  facet normal 0 -1 0
    outer loop
      vertex 51.2 3.2 3
      vertex 51.6 3.2 17
      vertex 51.2 3.2 17
    endloop
  endfacet
  facet normal 0 -1 -0
    outer loop
      vertex 51.6 3.2 17
      vertex 51.2 3.2 3
      vertex 51.6 3.2 3
    endloop
  endfacet
  facet normal -0 0 1
    outer loop
      vertex 16 51.6 17
      vertex 48 50.8 17
      vertex 48 51.6 17
    endloop
  endfacet
  facet normal 0 0 1
    outer loop
      vertex 48 50.8 17
      vertex 16 51.6 17
      vertex 16 50.8 17
    endloop
  endfacet
  facet normal 1 -0 0
    outer loop
      vertex 48 50.8 17
      vertex 48 51.6 3
      vertex 48 51.6 17
    endloop
  endfacet
  facet normal 1 0 0
    outer loop
      vertex 48 51.6 3
      vertex 48 50.8 17
      vertex 48 50.8 3
    endloop
  endfacet
  facet normal 0 1 -0
    outer loop
      vertex 48 51.6 3
      vertex 16 51.6 17
      vertex 48 51.6 17
    endloop
  endfacet
  facet normal 0 1 0
    outer loop
      vertex 16 51.6 17
      vertex 48 51.6 3
      vertex 16 51.6 3
    endloop
  endfacet
  facet normal 0 -1 0
    outer loop
      vertex 38.8 50.8 3
      vertex 16 50.8 17
      vertex 16 50.8 3
    endloop
  endfacet
  facet normal 0 -1 0
    outer loop
      vertex 16 50.8 17
      vertex 38.8 50.8 3
      vertex 48 50.8 17
    endloop
  endfacet
  facet normal 0 -1 0
    outer loop
      vertex 38.8 50.8 3
      vertex 48 50.8 3
      vertex 48 50.8 17
    endloop
  endfacet
  facet normal 0 -1 0
    outer loop
      vertex 38.8 50.8 0
      vertex 48 50.8 3
      vertex 38.8 50.8 3
    endloop
  endfacet
  facet normal 0 -1 -0
    outer loop
      vertex 48 50.8 3
      vertex 38.8 50.8 0
      vertex 48 50.8 0
    endloop
  endfacet
  facet normal 0 -1 0
    outer loop
      vertex 48 50.8 0
      vertex 50.8 50.8 3
      vertex 48 50.8 3
    endloop
  endfacet
  facet normal 0 -1 -0
    outer loop
      vertex 50.8 50.8 3
      vertex 48 50.8 0
      vertex 50.8 50.8 0
    endloop
  endfacet
  facet normal 0 0 1
    outer loop
      vertex 38 28.8 17
      vertex 38.8 28.8 17
      vertex 38.8 38.4 17
    endloop
  endfacet
  facet normal 0 0 1
    outer loop
      vertex 38.8 28.8 17
      vertex 38 28.8 17
      vertex 38.8 26 17
    endloop
  endfacet
  facet normal 0 0 1
    outer loop
      vertex 38.8 26 17
      vertex 38 28.8 17
      vertex 38.8 25.2 17
    endloop
  endfacet
  facet normal 0 0 1
    outer loop
      vertex 38 28.8 17
      vertex 38.8 38.4 17
      vertex 38 38.4 17
    endloop
  endfacet
  facet normal 0 0 1
    outer loop
      vertex 38 22.4 17
      vertex 38.8 25.2 17
      vertex 38 28.8 17
    endloop
  endfacet
  facet normal 0 0 1
    outer loop
      vertex 38.8 25.2 17
      vertex 38 22.4 17
      vertex 38.8 22.4 17
    endloop
  endfacet
  facet normal -0 0 1
    outer loop
      vertex 41.6 26 17
      vertex 48 25.2 17
      vertex 48 26 17
    endloop
  endfacet
  facet normal 0 0 1
    outer loop
      vertex 41.6 26 17
      vertex 41.6 25.2 17
      vertex 48 25.2 17
    endloop
  endfacet
  facet normal -0 0 1
    outer loop
      vertex 38.8 26 17
      vertex 41.6 25.2 17
      vertex 41.6 26 17
    endloop
  endfacet
  facet normal 0 0 1
    outer loop
      vertex 41.6 25.2 17
      vertex 38.8 26 17
      vertex 38.8 25.2 17
    endloop
  endfacet
  facet normal 1 -0 0
    outer loop
      vertex 48 25.2 17
      vertex 48 26 3
      vertex 48 26 17
    endloop
  endfacet
  facet normal 1 0 0
    outer loop
      vertex 48 26 3
      vertex 48 25.2 17
      vertex 48 25.2 3
    endloop
  endfacet
  facet normal 0 1 -0
    outer loop
      vertex 48 26 3
      vertex 41.6 26 17
      vertex 48 26 17
    endloop
  endfacet
  facet normal 0 1 0
    outer loop
      vertex 41.6 26 17
      vertex 48 26 3
      vertex 41.6 26 3
    endloop
  endfacet
  facet normal 0 -1 0
    outer loop
      vertex 41.6 25.2 3
      vertex 48 25.2 17
      vertex 41.6 25.2 17
    endloop
  endfacet
  facet normal 0 -1 -0
    outer loop
      vertex 48 25.2 17
      vertex 41.6 25.2 3
      vertex 48 25.2 3
    endloop
  endfacet
  facet normal -0 0 1
    outer loop
      vertex 16 0.4 17
      vertex 48 -0.4 17
      vertex 48 0.4 17
    endloop
  endfacet
  facet normal 0 0 1
    outer loop
      vertex 48 -0.4 17
      vertex 16 0.4 17
      vertex 16 -0.4 17
    endloop
  endfacet
  facet normal 1 -0 0
    outer loop
      vertex 48 -0.4 17
      vertex 48 0.4 3
      vertex 48 0.4 17
    endloop
  endfacet
  facet normal 1 0 0
    outer loop
      vertex 48 0.4 3
      vertex 48 -0.4 17
      vertex 48 -0.4 3
    endloop
  endfacet
  facet normal 0 1 -0
    outer loop
      vertex 48 0.4 3
      vertex 16 0.4 17
      vertex 48 0.4 17
    endloop
  endfacet
  facet normal 0 1 0
    outer loop
      vertex 16 0.4 17
      vertex 48 0.4 3
      vertex 16 0.4 3
    endloop
  endfacet
  facet normal 0 -1 0
    outer loop
      vertex 16 -0.4 3
      vertex 48 -0.4 17
      vertex 16 -0.4 17
    endloop
  endfacet
  facet normal 0 -1 -0
    outer loop
      vertex 48 -0.4 17
      vertex 16 -0.4 3
      vertex 48 -0.4 3
    endloop
  endfacet
  facet normal 0 -1 0
    outer loop
      vertex 35.2 12.4 3
      vertex 38.8 12.4 17
      vertex 35.2 12.4 17
    endloop
  endfacet
  facet normal 0 -1 -0
    outer loop
      vertex 38.8 12.4 17
      vertex 35.2 12.4 3
      vertex 38.8 12.4 3
    endloop
  endfacet
  facet normal 0 0 1
    outer loop
      vertex 38 13.2 17
      vertex 38.8 16 17
      vertex 38 16 17
    endloop
  endfacet
  facet normal 0 0 1
    outer loop
      vertex 38.8 16 17
      vertex 38 13.2 17
      vertex 38.8 12.4 17
    endloop
  endfacet
  facet normal 0 0 1
    outer loop
      vertex 35.2 12.4 17
      vertex 38 13.2 17
      vertex 35.2 13.2 17
    endloop
  endfacet
  facet normal 0 0 1
    outer loop
      vertex 38 13.2 17
      vertex 35.2 12.4 17
      vertex 38.8 12.4 17
    endloop
  endfacet
  facet normal 0 1 -0
    outer loop
      vertex 38 13.2 3
      vertex 35.2 13.2 17
      vertex 38 13.2 17
    endloop
  endfacet
  facet normal 0 1 0
    outer loop
      vertex 35.2 13.2 17
      vertex 38 13.2 3
      vertex 35.2 13.2 3
    endloop
  endfacet
  facet normal -1 0 0
    outer loop
      vertex 35.2 12.4 3
      vertex 35.2 13.2 17
      vertex 35.2 13.2 3
    endloop
  endfacet
  facet normal -1 -0 0
    outer loop
      vertex 35.2 13.2 17
      vertex 35.2 12.4 3
      vertex 35.2 12.4 17
    endloop
  endfacet
  facet normal 1 -0 0
    outer loop
      vertex 38.8 12.4 17
      vertex 38.8 16 3
      vertex 38.8 16 17
    endloop
  endfacet
  facet normal 1 0 0
    outer loop
      vertex 38.8 16 3
      vertex 38.8 12.4 17
      vertex 38.8 12.4 3
    endloop
  endfacet
  facet normal 0 1 -0
    outer loop
      vertex 38.8 16 3
      vertex 38 16 17
      vertex 38.8 16 17
    endloop
  endfacet
  facet normal 0 1 0
    outer loop
      vertex 38 16 17
      vertex 38.8 16 3
      vertex 38 16 3
    endloop
  endfacet
  facet normal -1 0 0
    outer loop
      vertex 38 13.2 3
      vertex 38 16 17
      vertex 38 16 3
    endloop
  endfacet
  facet normal -1 -0 0
    outer loop
      vertex 38 16 17
      vertex 38 13.2 3
      vertex 38 13.2 17
    endloop
  endfacet
  facet normal -1 0 0
    outer loop
      vertex -3.2 -3.2 0
      vertex -3.2 54.4 3
      vertex -3.2 54.4 0
    endloop
  endfacet
  facet normal -1 -0 0
    outer loop
      vertex -3.2 54.4 3
      vertex -3.2 -3.2 0
      vertex -3.2 -3.2 3
    endloop
  endfacet
  facet normal 0 0 1
    outer loop
      vertex 0.4 0.4 3
      vertex 12.4 25.2 3
      vertex 0.4 48 3
    endloop
  endfacet
  facet normal 0 0 1
    outer loop
      vertex 0.4 48 3
      vertex 3.2 50.8 3
      vertex 0.4 50.8 3
    endloop
  endfacet
  facet normal 0 0 1
    outer loop
      vertex 12.4 25.2 3
      vertex 0.4 0.4 3
      vertex 12.4 12.8 3
    endloop
  endfacet
  facet normal 0 0 1
    outer loop
      vertex 12.4 12.8 3
      vertex 0.4 0.4 3
      vertex 9.6 0.4 3
    endloop
  endfacet
  facet normal -0 0 1
    outer loop
      vertex 3.2 50.8 3
      vertex 12.4 48 3
      vertex 9.6 50.8 3
    endloop
  endfacet
  facet normal 0 0 1
    outer loop
      vertex 0.4 48 3
      vertex 12.4 48 3
      vertex 3.2 50.8 3
    endloop
  endfacet
  facet normal -0 0 1
    outer loop
      vertex 9.6 50.8 3
      vertex 12.4 48 3
      vertex 12.4 50.8 3
    endloop
  endfacet
  facet normal 0 0 1
    outer loop
      vertex 25.6 12.4 3
      vertex 13.2 3.2 3
      vertex 16 0.4 3
    endloop
  endfacet
  facet normal 0 0 1
    outer loop
      vertex 16 0.4 3
      vertex 13.2 3.2 3
      vertex 13.2 0.4 3
    endloop
  endfacet
  facet normal 0 0 1
    outer loop
      vertex 12.4 28.8 3
      vertex 0.4 48 3
      vertex 12.4 25.2 3
    endloop
  endfacet
  facet normal 0 0 1
    outer loop
      vertex 12.4 3.2 3
      vertex 9.6 0.4 3
      vertex 12.4 0.4 3
    endloop
  endfacet
  facet normal 0 0 1
    outer loop
      vertex 38 28.8 3
      vertex 26 25.2 3
      vertex 38 22.4 3
    endloop
  endfacet
  facet normal 0 0 1
    outer loop
      vertex 38 22.4 3
      vertex 26 25.2 3
      vertex 35.2 13.2 3
    endloop
  endfacet
  facet normal 0 0 1
    outer loop
      vertex 26 25.2 3
      vertex 25.6 13.2 3
      vertex 35.2 13.2 3
    endloop
  endfacet
  facet normal 0 0 1
    outer loop
      vertex 13.2 12.8 3
      vertex 25.6 13.2 3
      vertex 22.4 25.2 3
    endloop
  endfacet
  facet normal -0 0 1
    outer loop
      vertex 22.4 25.2 3
      vertex 25.6 13.2 3
      vertex 26 25.2 3
    endloop
  endfacet
  facet normal -0 0 1
    outer loop
      vertex 38.8 38.4 3
      vertex 50.8 28.8 3
      vertex 50.8 38.8 3
    endloop
  endfacet
  facet normal 0 0 1
    outer loop
      vertex 50.8 28.8 3
      vertex 48 26 3
      vertex 50.8 26 3
    endloop
  endfacet
  facet normal 0 0 1
    outer loop
      vertex 50.8 28.8 3
      vertex 38.8 28.8 3
      vertex 48 26 3
    endloop
  endfacet
  facet normal 0 0 1
    outer loop
      vertex 38.8 38.4 3
      vertex 50.8 38.8 3
      vertex 38.8 38.8 3
    endloop
  endfacet
  facet normal 0 0 1
    outer loop
      vertex 50.8 28.8 3
      vertex 38.8 38.4 3
      vertex 38.8 28.8 3
    endloop
  endfacet
  facet normal 0 0 1
    outer loop
      vertex 48 26 3
      vertex 38.8 28.8 3
      vertex 41.6 26 3
    endloop
  endfacet
  facet normal 0 0 1
    outer loop
      vertex 41.6 26 3
      vertex 38.8 28.8 3
      vertex 38.8 26 3
    endloop
  endfacet
  facet normal 0 0 1
    outer loop
      vertex 38 38.4 3
      vertex 38.8 38.8 3
      vertex 38.8 50.8 3
    endloop
  endfacet
  facet normal 0 0 1
    outer loop
      vertex 38.8 38.8 3
      vertex 38 38.4 3
      vertex 38.8 38.4 3
    endloop
  endfacet
  facet normal -0 0 1
    outer loop
      vertex 26 38.4 3
      vertex 38 28.8 3
      vertex 38 38.4 3
    endloop
  endfacet
  facet normal 0 0 1
    outer loop
      vertex 26 28.8 3
      vertex 38 28.8 3
      vertex 26 38.4 3
    endloop
  endfacet
  facet normal 0 0 1
    outer loop
      vertex 26 25.2 3
      vertex 38 28.8 3
      vertex 26 28.8 3
    endloop
  endfacet
  facet normal 0 0 1
    outer loop
      vertex 38 16 3
      vertex 35.2 13.2 3
      vertex 38 13.2 3
    endloop
  endfacet
  facet normal 0 0 1
    outer loop
      vertex 26 38.4 3
      vertex 38 38.4 3
      vertex 38.8 50.8 3
    endloop
  endfacet
  facet normal 0 0 1
    outer loop
      vertex 38 22.4 3
      vertex 35.2 13.2 3
      vertex 38 16 3
    endloop
  endfacet
  facet normal -0 0 1
    outer loop
      vertex 16 50.8 3
      vertex 26 38.4 3
      vertex 38.8 50.8 3
    endloop
  endfacet
  facet normal 0 0 1
    outer loop
      vertex 13.2 28.8 3
      vertex 25.2 28.8 3
      vertex 25.2 38.4 3
    endloop
  endfacet
  facet normal 0 0 1
    outer loop
      vertex 25.2 28.8 3
      vertex 22.4 26 3
      vertex 25.2 26 3
    endloop
  endfacet
  facet normal 0 0 1
    outer loop
      vertex 26 38.4 3
      vertex 16 50.8 3
      vertex 25.2 38.4 3
    endloop
  endfacet
  facet normal -0 0 1
    outer loop
      vertex 13.2 48 3
      vertex 25.2 38.4 3
      vertex 16 50.8 3
    endloop
  endfacet
  facet normal 0 0 1
    outer loop
      vertex 13.2 28.8 3
      vertex 25.2 38.4 3
      vertex 13.2 48 3
    endloop
  endfacet
  facet normal 0 0 1
    outer loop
      vertex 13.2 48 3
      vertex 16 50.8 3
      vertex 13.2 50.8 3
    endloop
  endfacet
  facet normal 0 0 1
    outer loop
      vertex 25.2 28.8 3
      vertex 13.2 28.8 3
      vertex 22.4 26 3
    endloop
  endfacet
  facet normal 0 0 1
    outer loop
      vertex 22.4 26 3
      vertex 13.2 28.8 3
      vertex 16 26 3
    endloop
  endfacet
  facet normal 0 0 1
    outer loop
      vertex 16 26 3
      vertex 13.2 28.8 3
      vertex 13.2 26 3
    endloop
  endfacet
  facet normal -0 0 1
    outer loop
      vertex 48 25.2 3
      vertex 50.8 22.4 3
      vertex 50.8 25.2 3
    endloop
  endfacet
  facet normal 0 0 1
    outer loop
      vertex 50.8 22.4 3
      vertex 38.8 12.4 3
      vertex 50.8 3.2 3
    endloop
  endfacet
  facet normal 0 0 1
    outer loop
      vertex 50.8 22.4 3
      vertex 48 25.2 3
      vertex 38.8 16 3
    endloop
  endfacet
  facet normal 0 -0 1
    outer loop
      vertex 48 0.4 3
      vertex 50.8 3.2 3
      vertex 38.8 12.4 3
    endloop
  endfacet
  facet normal 0 0 1
    outer loop
      vertex 38.8 16 3
      vertex 48 25.2 3
      vertex 41.6 25.2 3
    endloop
  endfacet
  facet normal 0 0 1
    outer loop
      vertex 38.8 22.4 3
      vertex 41.6 25.2 3
      vertex 38.8 25.2 3
    endloop
  endfacet
  facet normal 0 0 1
    outer loop
      vertex 38.8 16 3
      vertex 41.6 25.2 3
      vertex 38.8 22.4 3
    endloop
  endfacet
  facet normal 0 0 1
    outer loop
      vertex 50.8 22.4 3
      vertex 38.8 16 3
      vertex 38.8 12.4 3
    endloop
  endfacet
  facet normal 0 0 1
    outer loop
      vertex 50.8 3.2 3
      vertex 48 0.4 3
      vertex 50.8 0.4 3
    endloop
  endfacet
  facet normal 0 0 1
    outer loop
      vertex 38.8 12.4 3
      vertex 35.2 12.4 3
      vertex 48 0.4 3
    endloop
  endfacet
  facet normal 0 0 1
    outer loop
      vertex 16 0.4 3
      vertex 35.2 12.4 3
      vertex 25.6 12.4 3
    endloop
  endfacet
  facet normal 0 0 1
    outer loop
      vertex 13.2 12.8 3
      vertex 22.4 25.2 3
      vertex 16 25.2 3
    endloop
  endfacet
  facet normal 0 0 1
    outer loop
      vertex 35.2 12.4 3
      vertex 16 0.4 3
      vertex 48 0.4 3
    endloop
  endfacet
  facet normal 0 0 1
    outer loop
      vertex 25.6 13.2 3
      vertex 13.2 12.8 3
      vertex 25.6 12.4 3
    endloop
  endfacet
  facet normal 0 0 1
    outer loop
      vertex 13.2 3.2 3
      vertex 25.6 12.4 3
      vertex 13.2 12.8 3
    endloop
  endfacet
  facet normal -0 0 1
    outer loop
      vertex 12.4 25.2 3
      vertex 13.2 12.8 3
      vertex 16 25.2 3
    endloop
  endfacet
  facet normal 0 0 1
    outer loop
      vertex 12.4 25.2 3
      vertex 12.4 12.8 3
      vertex 13.2 12.8 3
    endloop
  endfacet
  facet normal 0 0 1
    outer loop
      vertex 12.4 48 3
      vertex 0.4 48 3
      vertex 12.4 28.8 3
    endloop
  endfacet
  facet normal 0 0 1
    outer loop
      vertex 51.6 48 3
      vertex 54.4 54.4 3
      vertex 51.6 51.6 3
    endloop
  endfacet
  facet normal 0 0 1
    outer loop
      vertex 54.4 54.4 3
      vertex 48 51.6 3
      vertex 51.6 51.6 3
    endloop
  endfacet
  facet normal 0 0 1
    outer loop
      vertex 54.4 54.4 3
      vertex 16 51.6 3
      vertex 48 51.6 3
    endloop
  endfacet
  facet normal -0 0 1
    outer loop
      vertex -3.2 54.4 3
      vertex 16 51.6 3
      vertex 54.4 54.4 3
    endloop
  endfacet
  facet normal 0 0 1
    outer loop
      vertex 12.4 12.8 3
      vertex 9.6 0.4 3
      vertex 12.4 3.2 3
    endloop
  endfacet
  facet normal 0 0 1
    outer loop
      vertex 16 51.6 3
      vertex -3.2 54.4 3
      vertex 9.6 51.6 3
    endloop
  endfacet
  facet normal 0 0 1
    outer loop
      vertex 9.6 51.6 3
      vertex -3.2 54.4 3
      vertex 3.2 51.6 3
    endloop
  endfacet
  facet normal 0 0 1
    outer loop
      vertex -3.2 54.4 3
      vertex -0.4 48 3
      vertex -0.4 51.6 3
    endloop
  endfacet
  facet normal 0 0 1
    outer loop
      vertex -3.2 -3.2 3
      vertex -0.4 48 3
      vertex -3.2 54.4 3
    endloop
  endfacet
  facet normal 0 0 1
    outer loop
      vertex 3.2 51.6 3
      vertex -3.2 54.4 3
      vertex -0.4 51.6 3
    endloop
  endfacet
  facet normal 0 0 1
    outer loop
      vertex 51.6 28.8 3
      vertex 54.4 54.4 3
      vertex 51.6 48 3
    endloop
  endfacet
  facet normal 0 0 1
    outer loop
      vertex 54.4 54.4 3
      vertex 51.6 28.8 3
      vertex 54.4 -3.2 3
    endloop
  endfacet
  facet normal -0 0 1
    outer loop
      vertex 51.6 22.4 3
      vertex 54.4 -3.2 3
      vertex 51.6 28.8 3
    endloop
  endfacet
  facet normal -0 0 1
    outer loop
      vertex 51.6 3.2 3
      vertex 54.4 -3.2 3
      vertex 51.6 22.4 3
    endloop
  endfacet
  facet normal -0 0 1
    outer loop
      vertex 51.6 -0.4 3
      vertex 54.4 -3.2 3
      vertex 51.6 3.2 3
    endloop
  endfacet
  facet normal -0 0 1
    outer loop
      vertex 48 -0.4 3
      vertex 54.4 -3.2 3
      vertex 51.6 -0.4 3
    endloop
  endfacet
  facet normal -0 0 1
    outer loop
      vertex 16 -0.4 3
      vertex 54.4 -3.2 3
      vertex 48 -0.4 3
    endloop
  endfacet
  facet normal 0 0 1
    outer loop
      vertex -3.2 -3.2 3
      vertex 16 -0.4 3
      vertex 9.6 -0.4 3
    endloop
  endfacet
  facet normal 0 0 1
    outer loop
      vertex -3.2 -3.2 3
      vertex 9.6 -0.4 3
      vertex -0.4 -0.4 3
    endloop
  endfacet
  facet normal 0 0 1
    outer loop
      vertex 16 -0.4 3
      vertex -3.2 -3.2 3
      vertex 54.4 -3.2 3
    endloop
  endfacet
  facet normal 0 0 1
    outer loop
      vertex -0.4 48 3
      vertex -3.2 -3.2 3
      vertex -0.4 -0.4 3
    endloop
  endfacet
  facet normal 1 -0 0
    outer loop
      vertex 54.4 -3.2 3
      vertex 54.4 54.4 0
      vertex 54.4 54.4 3
    endloop
  endfacet
  facet normal 1 0 0
    outer loop
      vertex 54.4 54.4 0
      vertex 54.4 -3.2 3
      vertex 54.4 -3.2 0
    endloop
  endfacet
  facet normal 0 -1 0
    outer loop
      vertex -3.2 -3.2 0
      vertex 54.4 -3.2 3
      vertex -3.2 -3.2 3
    endloop
  endfacet
  facet normal 0 -1 -0
    outer loop
      vertex 54.4 -3.2 3
      vertex -3.2 -3.2 0
      vertex 54.4 -3.2 0
    endloop
  endfacet
  facet normal 0 1 -0
    outer loop
      vertex 54.4 54.4 0
      vertex -3.2 54.4 3
      vertex 54.4 54.4 3
    endloop
  endfacet
  facet normal 0 1 0
    outer loop
      vertex -3.2 54.4 3
      vertex 54.4 54.4 0
      vertex -3.2 54.4 0
    endloop
  endfacet
  facet normal 1 -0 0
    outer loop
      vertex 38.8 38.8 3
      vertex 38.8 50.8 0
      vertex 38.8 50.8 3
    endloop
  endfacet
  facet normal 1 0 0
    outer loop
      vertex 38.8 50.8 0
      vertex 38.8 38.8 3
      vertex 38.8 38.8 0
    endloop
  endfacet
  facet normal 0 1 -0
    outer loop
      vertex 50.8 38.8 0
      vertex 38.8 38.8 3
      vertex 50.8 38.8 3
    endloop
  endfacet
  facet normal 0 1 0
    outer loop
      vertex 38.8 38.8 3
      vertex 50.8 38.8 0
      vertex 38.8 38.8 0
    endloop
  endfacet
  facet normal 0 -1 0
    outer loop
      vertex 38 22.4 3
      vertex 38.8 22.4 17
      vertex 38 22.4 17
    endloop
  endfacet
  facet normal 0 -1 -0
    outer loop
      vertex 38.8 22.4 17
      vertex 38 22.4 3
      vertex 38.8 22.4 3
    endloop
  endfacet
  facet normal -1 0 0
    outer loop
      vertex 38 22.4 3
      vertex 38 28.8 17
      vertex 38 28.8 3
    endloop
  endfacet
  facet normal -1 -0 0
    outer loop
      vertex 38 28.8 17
      vertex 38 22.4 3
      vertex 38 22.4 17
    endloop
  endfacet
  facet normal 1 -0 0
    outer loop
      vertex 38.8 22.4 17
      vertex 38.8 25.2 3
      vertex 38.8 25.2 17
    endloop
  endfacet
  facet normal 1 0 0
    outer loop
      vertex 38.8 25.2 3
      vertex 38.8 22.4 17
      vertex 38.8 22.4 3
    endloop
  endfacet
  facet normal 1 -0 0
    outer loop
      vertex 38.8 26 17
      vertex 38.8 28.8 3
      vertex 38.8 28.8 17
    endloop
  endfacet
  facet normal 1 0 0
    outer loop
      vertex 38.8 28.8 3
      vertex 38.8 26 17
      vertex 38.8 26 3
    endloop
  endfacet
  facet normal 0 1 -0
    outer loop
      vertex 41.6 26 3
      vertex 38.8 26 17
      vertex 41.6 26 17
    endloop
  endfacet
  facet normal 0 1 0
    outer loop
      vertex 38.8 26 17
      vertex 41.6 26 3
      vertex 38.8 26 3
    endloop
  endfacet
  facet normal 0 -1 0
    outer loop
      vertex 38.8 25.2 3
      vertex 41.6 25.2 17
      vertex 38.8 25.2 17
    endloop
  endfacet
  facet normal 0 -1 -0
    outer loop
      vertex 41.6 25.2 17
      vertex 38.8 25.2 3
      vertex 41.6 25.2 3
    endloop
  endfacet
  facet normal 0 1 -0
    outer loop
      vertex 38.8 38.4 3
      vertex 38 38.4 17
      vertex 38.8 38.4 17
    endloop
  endfacet
  facet normal 0 1 0
    outer loop
      vertex 38 38.4 17
      vertex 38.8 38.4 3
      vertex 38 38.4 3
    endloop
  endfacet
  facet normal -1 0 0
    outer loop
      vertex 38 28.8 3
      vertex 38 38.4 17
      vertex 38 38.4 3
    endloop
  endfacet
  facet normal -1 -0 0
    outer loop
      vertex 38 38.4 17
      vertex 38 28.8 3
      vertex 38 28.8 17
    endloop
  endfacet
  facet normal 1 -0 0
    outer loop
      vertex 38.8 28.8 17
      vertex 38.8 38.4 3
      vertex 38.8 38.4 17
    endloop
  endfacet
  facet normal 1 0 0
    outer loop
      vertex 38.8 38.4 3
      vertex 38.8 28.8 17
      vertex 38.8 28.8 3
    endloop
  endfacet
  facet normal 0 1 -0
    outer loop
      vertex 38.8 22.4 3
      vertex 38 22.4 17
      vertex 38.8 22.4 17
    endloop
  endfacet
  facet normal 0 1 0
    outer loop
      vertex 38 22.4 17
      vertex 38.8 22.4 3
      vertex 38 22.4 3
    endloop
  endfacet
  facet normal -0 0 1
    outer loop
      vertex 38 22.4 17
      vertex 38.8 16 17
      vertex 38.8 22.4 17
    endloop
  endfacet
  facet normal 0 0 1
    outer loop
      vertex 38.8 16 17
      vertex 38 22.4 17
      vertex 38 16 17
    endloop
  endfacet
  facet normal -1 0 0
    outer loop
      vertex 38 16 3
      vertex 38 22.4 17
      vertex 38 22.4 3
    endloop
  endfacet
  facet normal -1 -0 0
    outer loop
      vertex 38 22.4 17
      vertex 38 16 3
      vertex 38 16 17
    endloop
  endfacet
  facet normal 0 -1 0
    outer loop
      vertex 38 16 3
      vertex 38.8 16 17
      vertex 38 16 17
    endloop
  endfacet
  facet normal 0 -1 -0
    outer loop
      vertex 38.8 16 17
      vertex 38 16 3
      vertex 38.8 16 3
    endloop
  endfacet
  facet normal 1 -0 0
    outer loop
      vertex 38.8 16 17
      vertex 38.8 22.4 3
      vertex 38.8 22.4 17
    endloop
  endfacet
  facet normal 1 0 0
    outer loop
      vertex 38.8 22.4 3
      vertex 38.8 16 17
      vertex 38.8 16 3
    endloop
  endfacet
  facet normal -0 0 1
    outer loop
      vertex 25.6 13.2 17
      vertex 35.2 12.4 17
      vertex 35.2 13.2 17
    endloop
  endfacet
  facet normal 0 0 1
    outer loop
      vertex 35.2 12.4 17
      vertex 25.6 13.2 17
      vertex 25.6 12.4 17
    endloop
  endfacet
  facet normal 1 -0 0
    outer loop
      vertex 35.2 12.4 17
      vertex 35.2 13.2 3
      vertex 35.2 13.2 17
    endloop
  endfacet
  facet normal 1 0 0
    outer loop
      vertex 35.2 13.2 3
      vertex 35.2 12.4 17
      vertex 35.2 12.4 3
    endloop
  endfacet
  facet normal 0 -1 0
    outer loop
      vertex 25.6 12.4 3
      vertex 35.2 12.4 17
      vertex 25.6 12.4 17
    endloop
  endfacet
  facet normal 0 -1 -0
    outer loop
      vertex 35.2 12.4 17
      vertex 25.6 12.4 3
      vertex 35.2 12.4 3
    endloop
  endfacet
  facet normal 0 1 -0
    outer loop
      vertex 35.2 13.2 3
      vertex 25.6 13.2 17
      vertex 35.2 13.2 17
    endloop
  endfacet
  facet normal 0 1 0
    outer loop
      vertex 25.6 13.2 17
      vertex 35.2 13.2 3
      vertex 25.6 13.2 3
    endloop
  endfacet
  facet normal 0 -1 0
    outer loop
      vertex 22.4 25.2 3
      vertex 26 25.2 17
      vertex 22.4 25.2 17
    endloop
  endfacet
  facet normal 0 -1 -0
    outer loop
      vertex 26 25.2 17
      vertex 22.4 25.2 3
      vertex 26 25.2 3
    endloop
  endfacet
  facet normal 0 0 1
    outer loop
      vertex 25.2 28.8 17
      vertex 26 28.8 17
      vertex 26 38.4 17
    endloop
  endfacet
  facet normal 0 0 1
    outer loop
      vertex 25.2 28.8 17
      vertex 26 38.4 17
      vertex 25.2 38.4 17
    endloop
  endfacet
  facet normal 0 0 1
    outer loop
      vertex 25.2 26 17
      vertex 26 28.8 17
      vertex 25.2 28.8 17
    endloop
  endfacet
  facet normal 0 0 1
    outer loop
      vertex 26 28.8 17
      vertex 25.2 26 17
      vertex 26 25.2 17
    endloop
  endfacet
  facet normal 0 0 1
    outer loop
      vertex 22.4 25.2 17
      vertex 25.2 26 17
      vertex 22.4 26 17
    endloop
  endfacet
  facet normal 0 0 1
    outer loop
      vertex 25.2 26 17
      vertex 22.4 25.2 17
      vertex 26 25.2 17
    endloop
  endfacet
  facet normal 0 1 -0
    outer loop
      vertex 25.2 26 3
      vertex 22.4 26 17
      vertex 25.2 26 17
    endloop
  endfacet
  facet normal 0 1 0
    outer loop
      vertex 22.4 26 17
      vertex 25.2 26 3
      vertex 22.4 26 3
    endloop
  endfacet
  facet normal -1 0 0
    outer loop
      vertex 22.4 25.2 3
      vertex 22.4 26 17
      vertex 22.4 26 3
    endloop
  endfacet
  facet normal -1 -0 0
    outer loop
      vertex 22.4 26 17
      vertex 22.4 25.2 3
      vertex 22.4 25.2 17
    endloop
  endfacet
  facet normal 1 -0 0
    outer loop
      vertex 26 25.2 17
      vertex 26 28.8 3
      vertex 26 28.8 17
    endloop
  endfacet
  facet normal 1 0 0
    outer loop
      vertex 26 28.8 3
      vertex 26 25.2 17
      vertex 26 25.2 3
    endloop
  endfacet
  facet normal -1 0 0
    outer loop
      vertex 25.2 26 3
      vertex 25.2 28.8 17
      vertex 25.2 28.8 3
    endloop
  endfacet
  facet normal -1 -0 0
    outer loop
      vertex 25.2 28.8 17
      vertex 25.2 26 3
      vertex 25.2 26 17
    endloop
  endfacet
  facet normal 0 1 -0
    outer loop
      vertex 26 38.4 3
      vertex 25.2 38.4 17
      vertex 26 38.4 17
    endloop
  endfacet
  facet normal 0 1 0
    outer loop
      vertex 25.2 38.4 17
      vertex 26 38.4 3
      vertex 25.2 38.4 3
    endloop
  endfacet
  facet normal -1 0 0
    outer loop
      vertex 25.2 28.8 3
      vertex 25.2 38.4 17
      vertex 25.2 38.4 3
    endloop
  endfacet
  facet normal -1 -0 0
    outer loop
      vertex 25.2 38.4 17
      vertex 25.2 28.8 3
      vertex 25.2 28.8 17
    endloop
  endfacet
  facet normal 1 -0 0
    outer loop
      vertex 26 28.8 17
      vertex 26 38.4 3
      vertex 26 38.4 17
    endloop
  endfacet
  facet normal 1 0 0
    outer loop
      vertex 26 38.4 3
      vertex 26 28.8 17
      vertex 26 28.8 3
    endloop
  endfacet
  facet normal -1 0 0
    outer loop
      vertex 25.6 12.4 3
      vertex 25.6 13.2 17
      vertex 25.6 13.2 3
    endloop
  endfacet
  facet normal -1 -0 0
    outer loop
      vertex 25.6 13.2 17
      vertex 25.6 12.4 3
      vertex 25.6 12.4 17
    endloop
  endfacet
  facet normal -1 0 0
    outer loop
      vertex 16 50.8 3
      vertex 16 51.6 17
      vertex 16 51.6 3
    endloop
  endfacet
  facet normal -1 -0 0
    outer loop
      vertex 16 51.6 17
      vertex 16 50.8 3
      vertex 16 50.8 17
    endloop
  endfacet
  facet normal -1 0 0
    outer loop
      vertex 16 25.2 3
      vertex 16 26 17
      vertex 16 26 3
    endloop
  endfacet
  facet normal -1 -0 0
    outer loop
      vertex 16 26 17
      vertex 16 25.2 3
      vertex 16 25.2 17
    endloop
  endfacet
  facet normal -0 0 1
    outer loop
      vertex 16 26 17
      vertex 22.4 25.2 17
      vertex 22.4 26 17
    endloop
  endfacet
  facet normal 0 0 1
    outer loop
      vertex 22.4 25.2 17
      vertex 16 26 17
      vertex 16 25.2 17
    endloop
  endfacet
  facet normal 1 -0 0
    outer loop
      vertex 22.4 25.2 17
      vertex 22.4 26 3
      vertex 22.4 26 17
    endloop
  endfacet
  facet normal 1 0 0
    outer loop
      vertex 22.4 26 3
      vertex 22.4 25.2 17
      vertex 22.4 25.2 3
    endloop
  endfacet
  facet normal 0 1 -0
    outer loop
      vertex 22.4 26 3
      vertex 16 26 17
      vertex 22.4 26 17
    endloop
  endfacet
  facet normal 0 1 0
    outer loop
      vertex 16 26 17
      vertex 22.4 26 3
      vertex 16 26 3
    endloop
  endfacet
  facet normal 0 -1 0
    outer loop
      vertex 16 25.2 3
      vertex 22.4 25.2 17
      vertex 16 25.2 17
    endloop
  endfacet
  facet normal 0 -1 -0
    outer loop
      vertex 22.4 25.2 17
      vertex 16 25.2 3
      vertex 22.4 25.2 3
    endloop
  endfacet
  facet normal -1 0 0
    outer loop
      vertex 16 -0.4 3
      vertex 16 0.4 17
      vertex 16 0.4 3
    endloop
  endfacet
  facet normal -1 -0 0
    outer loop
      vertex 16 0.4 17
      vertex 16 -0.4 3
      vertex 16 -0.4 17
    endloop
  endfacet
  facet normal 1 -0 0
    outer loop
      vertex 16 50.8 17
      vertex 16 51.6 3
      vertex 16 51.6 17
    endloop
  endfacet
  facet normal 1 0 0
    outer loop
      vertex 16 51.6 3
      vertex 16 50.8 17
      vertex 16 50.8 3
    endloop
  endfacet
  facet normal 0 0 1
    outer loop
      vertex 16 51.6 17
      vertex 13.2 50.8 17
      vertex 16 50.8 17
    endloop
  endfacet
  facet normal 0 0 1
    outer loop
      vertex 13.2 50.8 17
      vertex 12.4 50.8 17
      vertex 13.2 48 17
    endloop
  endfacet
  facet normal 0 0 1
    outer loop
      vertex 16 51.6 17
      vertex 12.4 50.8 17
      vertex 13.2 50.8 17
    endloop
  endfacet
  facet normal -0 0 1
    outer loop
      vertex 9.6 51.6 17
      vertex 12.4 50.8 17
      vertex 16 51.6 17
    endloop
  endfacet
  facet normal 0 0 1
    outer loop
      vertex 12.4 50.8 17
      vertex 9.6 51.6 17
      vertex 9.6 50.8 17
    endloop
  endfacet
  facet normal 0 0 1
    outer loop
      vertex 13.2 48 17
      vertex 12.4 50.8 17
      vertex 12.4 48 17
    endloop
  endfacet
  facet normal -1 0 0
    outer loop
      vertex 9.6 50.8 3
      vertex 9.6 51.6 17
      vertex 9.6 51.6 3
    endloop
  endfacet
  facet normal -1 -0 0
    outer loop
      vertex 9.6 51.6 17
      vertex 9.6 50.8 3
      vertex 9.6 50.8 17
    endloop
  endfacet
  facet normal 0 1 -0
    outer loop
      vertex 16 51.6 3
      vertex 9.6 51.6 17
      vertex 16 51.6 17
    endloop
  endfacet
  facet normal 0 1 0
    outer loop
      vertex 9.6 51.6 17
      vertex 16 51.6 3
      vertex 9.6 51.6 3
    endloop
  endfacet
  facet normal 0 -1 0
    outer loop
      vertex 9.6 50.8 3
      vertex 12.4 50.8 17
      vertex 9.6 50.8 17
    endloop
  endfacet
  facet normal 0 -1 -0
    outer loop
      vertex 12.4 50.8 17
      vertex 9.6 50.8 3
      vertex 12.4 50.8 3
    endloop
  endfacet
  facet normal 0 -1 0
    outer loop
      vertex 13.2 50.8 3
      vertex 16 50.8 17
      vertex 13.2 50.8 17
    endloop
  endfacet
  facet normal 0 -1 -0
    outer loop
      vertex 16 50.8 17
      vertex 13.2 50.8 3
      vertex 16 50.8 3
    endloop
  endfacet
  facet normal 1 -0 0
    outer loop
      vertex 13.2 48 17
      vertex 13.2 50.8 3
      vertex 13.2 50.8 17
    endloop
  endfacet
  facet normal 1 0 0
    outer loop
      vertex 13.2 50.8 3
      vertex 13.2 48 17
      vertex 13.2 48 3
    endloop
  endfacet
  facet normal -1 0 0
    outer loop
      vertex 12.4 48 3
      vertex 12.4 50.8 17
      vertex 12.4 50.8 3
    endloop
  endfacet
  facet normal -1 -0 0
    outer loop
      vertex 12.4 50.8 17
      vertex 12.4 48 3
      vertex 12.4 48 17
    endloop
  endfacet
  facet normal 0 -1 0
    outer loop
      vertex 12.4 48 3
      vertex 13.2 48 17
      vertex 12.4 48 17
    endloop
  endfacet
  facet normal 0 -1 -0
    outer loop
      vertex 13.2 48 17
      vertex 12.4 48 3
      vertex 13.2 48 3
    endloop
  endfacet
  facet normal -1 0 0
    outer loop
      vertex 12.4 25.2 3
      vertex 12.4 28.8 17
      vertex 12.4 28.8 3
    endloop
  endfacet
  facet normal -1 -0 0
    outer loop
      vertex 12.4 28.8 17
      vertex 12.4 25.2 3
      vertex 12.4 25.2 17
    endloop
  endfacet
  facet normal 0 0 1
    outer loop
      vertex 12.4 28.8 17
      vertex 13.2 28.8 17
      vertex 13.2 48 17
    endloop
  endfacet
  facet normal 0 0 1
    outer loop
      vertex 13.2 28.8 17
      vertex 12.4 28.8 17
      vertex 13.2 26 17
    endloop
  endfacet
  facet normal -0 0 1
    outer loop
      vertex 12.4 48 17
      vertex 12.4 28.8 17
      vertex 13.2 48 17
    endloop
  endfacet
  facet normal -0 0 1
    outer loop
      vertex 13.2 26 17
      vertex 16 25.2 17
      vertex 16 26 17
    endloop
  endfacet
  facet normal 0 0 1
    outer loop
      vertex 13.2 26 17
      vertex 12.4 25.2 17
      vertex 16 25.2 17
    endloop
  endfacet
  facet normal 0 0 1
    outer loop
      vertex 12.4 25.2 17
      vertex 13.2 26 17
      vertex 12.4 28.8 17
    endloop
  endfacet
  facet normal 1 -0 0
    outer loop
      vertex 13.2 26 17
      vertex 13.2 28.8 3
      vertex 13.2 28.8 17
    endloop
  endfacet
  facet normal 1 0 0
    outer loop
      vertex 13.2 28.8 3
      vertex 13.2 26 17
      vertex 13.2 26 3
    endloop
  endfacet
  facet normal 0 -1 0
    outer loop
      vertex 12.4 25.2 3
      vertex 16 25.2 17
      vertex 12.4 25.2 17
    endloop
  endfacet
  facet normal 0 -1 -0
    outer loop
      vertex 16 25.2 17
      vertex 12.4 25.2 3
      vertex 16 25.2 3
    endloop
  endfacet
  facet normal 1 -0 0
    outer loop
      vertex 16 25.2 17
      vertex 16 26 3
      vertex 16 26 17
    endloop
  endfacet
  facet normal 1 0 0
    outer loop
      vertex 16 26 3
      vertex 16 25.2 17
      vertex 16 25.2 3
    endloop
  endfacet
  facet normal 0 1 -0
    outer loop
      vertex 16 26 3
      vertex 13.2 26 17
      vertex 16 26 17
    endloop
  endfacet
  facet normal 0 1 0
    outer loop
      vertex 13.2 26 17
      vertex 16 26 3
      vertex 13.2 26 3
    endloop
  endfacet
  facet normal -1 0 0
    outer loop
      vertex 9.6 -0.4 3
      vertex 9.6 0.4 17
      vertex 9.6 0.4 3
    endloop
  endfacet
  facet normal -1 -0 0
    outer loop
      vertex 9.6 0.4 17
      vertex 9.6 -0.4 3
      vertex 9.6 -0.4 17
    endloop
  endfacet
  facet normal 0 0 1
    outer loop
      vertex 12.4 3.2 17
      vertex 13.2 3.2 17
      vertex 13.2 12.8 17
    endloop
  endfacet
  facet normal 0 0 1
    outer loop
      vertex 13.2 3.2 17
      vertex 12.4 3.2 17
      vertex 13.2 0.4 17
    endloop
  endfacet
  facet normal -0 0 1
    outer loop
      vertex 12.4 12.8 17
      vertex 12.4 3.2 17
      vertex 13.2 12.8 17
    endloop
  endfacet
  facet normal -0 0 1
    outer loop
      vertex 13.2 0.4 17
      vertex 16 -0.4 17
      vertex 16 0.4 17
    endloop
  endfacet
  facet normal 0 0 1
    outer loop
      vertex 12.4 0.4 17
      vertex 13.2 0.4 17
      vertex 12.4 3.2 17
    endloop
  endfacet
  facet normal -0 0 1
    outer loop
      vertex 12.4 0.4 17
      vertex 16 -0.4 17
      vertex 13.2 0.4 17
    endloop
  endfacet
  facet normal 0 0 1
    outer loop
      vertex 9.6 -0.4 17
      vertex 12.4 0.4 17
      vertex 9.6 0.4 17
    endloop
  endfacet
  facet normal 0 0 1
    outer loop
      vertex 12.4 0.4 17
      vertex 9.6 -0.4 17
      vertex 16 -0.4 17
    endloop
  endfacet
  facet normal 1 -0 0
    outer loop
      vertex 16 -0.4 17
      vertex 16 0.4 3
      vertex 16 0.4 17
    endloop
  endfacet
  facet normal 1 0 0
    outer loop
      vertex 16 0.4 3
      vertex 16 -0.4 17
      vertex 16 -0.4 3
    endloop
  endfacet
  facet normal 0 -1 0
    outer loop
      vertex 9.6 -0.4 3
      vertex 16 -0.4 17
      vertex 9.6 -0.4 17
    endloop
  endfacet
  facet normal 0 -1 -0
    outer loop
      vertex 16 -0.4 17
      vertex 9.6 -0.4 3
      vertex 16 -0.4 3
    endloop
  endfacet
  facet normal 0 1 -0
    outer loop
      vertex 16 0.4 3
      vertex 13.2 0.4 17
      vertex 16 0.4 17
    endloop
  endfacet
  facet normal 0 1 0
    outer loop
      vertex 13.2 0.4 17
      vertex 16 0.4 3
      vertex 13.2 0.4 3
    endloop
  endfacet
  facet normal 0 1 -0
    outer loop
      vertex 12.4 0.4 3
      vertex 9.6 0.4 17
      vertex 12.4 0.4 17
    endloop
  endfacet
  facet normal 0 1 0
    outer loop
      vertex 9.6 0.4 17
      vertex 12.4 0.4 3
      vertex 9.6 0.4 3
    endloop
  endfacet
  facet normal -1 0 0
    outer loop
      vertex 12.4 0.4 3
      vertex 12.4 3.2 17
      vertex 12.4 3.2 3
    endloop
  endfacet
  facet normal -1 -0 0
    outer loop
      vertex 12.4 3.2 17
      vertex 12.4 0.4 3
      vertex 12.4 0.4 17
    endloop
  endfacet
  facet normal 1 -0 0
    outer loop
      vertex 13.2 0.4 17
      vertex 13.2 3.2 3
      vertex 13.2 3.2 17
    endloop
  endfacet
  facet normal 1 0 0
    outer loop
      vertex 13.2 3.2 3
      vertex 13.2 0.4 17
      vertex 13.2 0.4 3
    endloop
  endfacet
  facet normal 0 1 -0
    outer loop
      vertex 13.2 3.2 3
      vertex 12.8 3.2 17
      vertex 13.2 3.2 17
    endloop
  endfacet
  facet normal 0 1 0
    outer loop
      vertex 12.8 3.2 17
      vertex 13.2 3.2 3
      vertex 12.8 3.2 3
    endloop
  endfacet
  facet normal 0 1 -0
    outer loop
      vertex 13.2 48 3
      vertex 12.4 48 17
      vertex 13.2 48 17
    endloop
  endfacet
  facet normal 0 1 0
    outer loop
      vertex 12.4 48 17
      vertex 13.2 48 3
      vertex 12.4 48 3
    endloop
  endfacet
  facet normal 1 -0 0
    outer loop
      vertex 13.2 28.8 17
      vertex 13.2 48 3
      vertex 13.2 48 17
    endloop
  endfacet
  facet normal 1 0 0
    outer loop
      vertex 13.2 48 3
      vertex 13.2 28.8 17
      vertex 13.2 28.8 3
    endloop
  endfacet
  facet normal -1 0 0
    outer loop
      vertex 12.4 28.8 3
      vertex 12.4 48 17
      vertex 12.4 48 3
    endloop
  endfacet
  facet normal -1 -0 0
    outer loop
      vertex 12.4 48 17
      vertex 12.4 28.8 3
      vertex 12.4 28.8 17
    endloop
  endfacet
  facet normal 0 1 -0
    outer loop
      vertex 13.2 12.8 3
      vertex 12.4 12.8 17
      vertex 13.2 12.8 17
    endloop
  endfacet
  facet normal 0 1 0
    outer loop
      vertex 12.4 12.8 17
      vertex 13.2 12.8 3
      vertex 12.4 12.8 3
    endloop
  endfacet
  facet normal -1 0 0
    outer loop
      vertex 12.4 3.2 3
      vertex 12.4 12.8 17
      vertex 12.4 12.8 3
    endloop
  endfacet
  facet normal -1 -0 0
    outer loop
      vertex 12.4 12.8 17
      vertex 12.4 3.2 3
      vertex 12.4 3.2 17
    endloop
  endfacet
  facet normal 1 -0 0
    outer loop
      vertex 13.2 3.2 17
      vertex 13.2 12.8 3
      vertex 13.2 12.8 17
    endloop
  endfacet
  facet normal 1 0 0
    outer loop
      vertex 13.2 12.8 3
      vertex 13.2 3.2 17
      vertex 13.2 3.2 3
    endloop
  endfacet
  facet normal 0 -1 0
    outer loop
      vertex 12.8 3.2 3
      vertex 13.2 3.2 17
      vertex 12.8 3.2 17
    endloop
  endfacet
  facet normal 0 -1 -0
    outer loop
      vertex 13.2 3.2 17
      vertex 12.8 3.2 3
      vertex 13.2 3.2 3
    endloop
  endfacet
endsolid OpenSCAD_Model
