solid OpenSCAD_Model
  facet normal 0 1 -0
    outer loop
      vertex -105.3 108.4 3.5
      vertex -108.4 108.4 15.5
      vertex -105.3 108.4 15.5
    endloop
  endfacet
  facet normal 0 1 0
    outer loop
      vertex -108.4 108.4 15.5
      vertex -105.3 108.4 3.5
      vertex -108.4 108.4 3.5
    endloop
  endfacet
  facet normal 0 0 1
    outer loop
      vertex -105.3 108.4 15.5
      vertex -107.6 107.6 15.5
      vertex -105.3 107.6 15.5
    endloop
  endfacet
  facet normal -0 0 1
    outer loop
      vertex -108.4 108.4 15.5
      vertex -107.6 107.6 15.5
      vertex -105.3 108.4 15.5
    endloop
  endfacet
  facet normal 0 0 1
    outer loop
      vertex -108.4 105.3 15.5
      vertex -107.6 107.6 15.5
      vertex -108.4 108.4 15.5
    endloop
  endfacet
  facet normal 0 0 1
    outer loop
      vertex -107.6 107.6 15.5
      vertex -108.4 105.3 15.5
      vertex -107.6 105.3 15.5
    endloop
  endfacet
  facet normal 0 -1 0
    outer loop
      vertex -107.6 107.6 3.5
      vertex -105.3 107.6 15.5
      vertex -107.6 107.6 15.5
    endloop
  endfacet
  facet normal 0 -1 -0
    outer loop
      vertex -105.3 107.6 15.5
      vertex -107.6 107.6 3.5
      vertex -105.3 107.6 3.5
    endloop
  endfacet
  facet normal -0 0 1
    outer loop
      vertex -2.7 107.6 3.5
      vertex -0.4 105.3 3.5
      vertex -0.4 107.6 3.5
    endloop
  endfacet
  facet normal 0 0 1
    outer loop
      vertex -96.8 27 3.5
      vertex -0.4 105.3 3.5
      vertex -2.7 107.6 3.5
    endloop
  endfacet
  facet normal 0 0 1
    outer loop
      vertex -0.4 105.3 3.5
      vertex -96.8 27 3.5
      vertex -0.4 0.4 3.5
    endloop
  endfacet
  facet normal 0 0 1
    outer loop
      vertex -0.4 0.4 3.5
      vertex -96.8 27 3.5
      vertex -94.5 0.4 3.5
    endloop
  endfacet
  facet normal -0 0 1
    outer loop
      vertex -105.3 107.6 3.5
      vertex -96.8 27 3.5
      vertex -2.7 107.6 3.5
    endloop
  endfacet
  facet normal -0 0 1
    outer loop
      vertex -105.3 26.6 3.5
      vertex -97.6 2.7 3.5
      vertex -97.6 27 3.5
    endloop
  endfacet
  facet normal -0 0 1
    outer loop
      vertex -107.6 29.7 3.5
      vertex -96.8 27 3.5
      vertex -107.6 105.3 3.5
    endloop
  endfacet
  facet normal -0 0 1
    outer loop
      vertex -107.6 105.3 3.5
      vertex -96.8 27 3.5
      vertex -105.3 107.6 3.5
    endloop
  endfacet
  facet normal 0 0 1
    outer loop
      vertex 0.4 105.3 3.5
      vertex 2.7 110.7 3.5
      vertex 0.4 108.4 3.5
    endloop
  endfacet
  facet normal 0 0 1
    outer loop
      vertex 2.7 110.7 3.5
      vertex -2.7 108.4 3.5
      vertex 0.4 108.4 3.5
    endloop
  endfacet
  facet normal 0 0 1
    outer loop
      vertex 2.7 110.7 3.5
      vertex -105.3 108.4 3.5
      vertex -2.7 108.4 3.5
    endloop
  endfacet
  facet normal -0 0 1
    outer loop
      vertex -110.7 110.7 3.5
      vertex -105.3 108.4 3.5
      vertex 2.7 110.7 3.5
    endloop
  endfacet
  facet normal 0 0 1
    outer loop
      vertex -110.7 110.7 3.5
      vertex -108.4 105.3 3.5
      vertex -108.4 108.4 3.5
    endloop
  endfacet
  facet normal 0 0 1
    outer loop
      vertex -108.4 105.3 3.5
      vertex -110.7 110.7 3.5
      vertex -108.4 29.7 3.5
    endloop
  endfacet
  facet normal 0 0 1
    outer loop
      vertex -110.7 -2.7 3.5
      vertex -108.4 29.7 3.5
      vertex -110.7 110.7 3.5
    endloop
  endfacet
  facet normal 0 0 1
    outer loop
      vertex -105.3 108.4 3.5
      vertex -110.7 110.7 3.5
      vertex -108.4 108.4 3.5
    endloop
  endfacet
  facet normal 0 0 1
    outer loop
      vertex 2.7 110.7 3.5
      vertex 0.4 105.3 3.5
      vertex 2.7 -2.7 3.5
    endloop
  endfacet
  facet normal -0 0 1
    outer loop
      vertex 0.4 -0.4 3.5
      vertex 2.7 -2.7 3.5
      vertex 0.4 105.3 3.5
    endloop
  endfacet
  facet normal -0 0 1
    outer loop
      vertex -94.5 -0.4 3.5
      vertex 2.7 -2.7 3.5
      vertex 0.4 -0.4 3.5
    endloop
  endfacet
  facet normal 0 0 1
    outer loop
      vertex -110.7 -2.7 3.5
      vertex -94.5 -0.4 3.5
      vertex -97.6 -0.4 3.5
    endloop
  endfacet
  facet normal 0 0 1
    outer loop
      vertex -105.3 26.6 3.5
      vertex -97.6 27 3.5
      vertex -105.3 27.4 3.5
    endloop
  endfacet
  facet normal -0 0 1
    outer loop
      vertex -108.4 26.6 3.5
      vertex -97.6 2.7 3.5
      vertex -105.3 26.6 3.5
    endloop
  endfacet
  facet normal 0 0 1
    outer loop
      vertex -97.6 2.7 3.5
      vertex -108.4 26.6 3.5
      vertex -110.7 -2.7 3.5
    endloop
  endfacet
  facet normal 0 0 1
    outer loop
      vertex -94.5 -0.4 3.5
      vertex -110.7 -2.7 3.5
      vertex 2.7 -2.7 3.5
    endloop
  endfacet
  facet normal 0 0 1
    outer loop
      vertex -97.6 2.7 3.5
      vertex -110.7 -2.7 3.5
      vertex -97.6 -0.4 3.5
    endloop
  endfacet
  facet normal 0 0 1
    outer loop
      vertex -108.4 29.7 3.5
      vertex -110.7 -2.7 3.5
      vertex -108.4 26.6 3.5
    endloop
  endfacet
  facet normal -0 0 1
    outer loop
      vertex -96.8 2.7 3.5
      vertex -94.5 0.4 3.5
      vertex -96.8 27 3.5
    endloop
  endfacet
  facet normal 0 0 1
    outer loop
      vertex -96.8 2.7 3.5
      vertex -96.8 0.4 3.5
      vertex -94.5 0.4 3.5
    endloop
  endfacet
  facet normal 0 0 1
    outer loop
      vertex -107.6 105.3 3.5
      vertex -105.3 107.6 3.5
      vertex -107.6 107.6 3.5
    endloop
  endfacet
  facet normal 0 0 1
    outer loop
      vertex -96.8 27 3.5
      vertex -107.6 29.7 3.5
      vertex -97.6 27 3.5
    endloop
  endfacet
  facet normal 0 0 1
    outer loop
      vertex -97.6 27 3.5
      vertex -107.6 29.7 3.5
      vertex -105.3 27.4 3.5
    endloop
  endfacet
  facet normal 0 0 1
    outer loop
      vertex -105.3 27.4 3.5
      vertex -107.6 29.7 3.5
      vertex -107.6 27.4 3.5
    endloop
  endfacet
  facet normal -1 0 0
    outer loop
      vertex -108.4 105.3 3.5
      vertex -108.4 108.4 15.5
      vertex -108.4 108.4 3.5
    endloop
  endfacet
  facet normal -1 -0 0
    outer loop
      vertex -108.4 108.4 15.5
      vertex -108.4 105.3 3.5
      vertex -108.4 105.3 15.5
    endloop
  endfacet
  facet normal 1 -0 0
    outer loop
      vertex -105.3 107.6 15.5
      vertex -105.3 108.4 3.5
      vertex -105.3 108.4 15.5
    endloop
  endfacet
  facet normal 1 0 0
    outer loop
      vertex -105.3 108.4 3.5
      vertex -105.3 107.6 15.5
      vertex -105.3 107.6 3.5
    endloop
  endfacet
  facet normal 0 -1 0
    outer loop
      vertex -108.4 105.3 3.5
      vertex -107.6 105.3 15.5
      vertex -108.4 105.3 15.5
    endloop
  endfacet
  facet normal 0 -1 -0
    outer loop
      vertex -107.6 105.3 15.5
      vertex -108.4 105.3 3.5
      vertex -107.6 105.3 3.5
    endloop
  endfacet
  facet normal 1 -0 0
    outer loop
      vertex -107.6 105.3 15.5
      vertex -107.6 107.6 3.5
      vertex -107.6 107.6 15.5
    endloop
  endfacet
  facet normal 1 0 0
    outer loop
      vertex -107.6 107.6 3.5
      vertex -107.6 105.3 15.5
      vertex -107.6 105.3 3.5
    endloop
  endfacet
  facet normal 1 -0 0
    outer loop
      vertex 0.4 105.3 15.5
      vertex 0.4 108.4 3.5
      vertex 0.4 108.4 15.5
    endloop
  endfacet
  facet normal 1 0 0
    outer loop
      vertex 0.4 108.4 3.5
      vertex 0.4 105.3 15.5
      vertex 0.4 105.3 3.5
    endloop
  endfacet
  facet normal -0 0 1
    outer loop
      vertex -96.8 0.4 15.5
      vertex -94.5 -0.4 15.5
      vertex -94.5 0.4 15.5
    endloop
  endfacet
  facet normal 0 0 1
    outer loop
      vertex -97.6 -0.4 15.5
      vertex -96.8 0.4 15.5
      vertex -97.6 0.4 15.5
    endloop
  endfacet
  facet normal 0 0 1
    outer loop
      vertex -96.8 0.4 15.5
      vertex -97.6 -0.4 15.5
      vertex -94.5 -0.4 15.5
    endloop
  endfacet
  facet normal 0 0 1
    outer loop
      vertex -108.4 29.7 15.5
      vertex -107.6 29.7 15.5
      vertex -107.6 105.3 15.5
    endloop
  endfacet
  facet normal 0 0 1
    outer loop
      vertex -107.6 29.7 15.5
      vertex -108.4 29.7 15.5
      vertex -107.6 27.4 15.5
    endloop
  endfacet
  facet normal 0 0 1
    outer loop
      vertex -108.4 29.7 15.5
      vertex -107.6 105.3 15.5
      vertex -108.4 105.3 15.5
    endloop
  endfacet
  facet normal 0 0 1
    outer loop
      vertex -108.4 26.6 15.5
      vertex -107.6 27.4 15.5
      vertex -108.4 29.7 15.5
    endloop
  endfacet
  facet normal 0 0 1
    outer loop
      vertex -107.6 27.4 15.5
      vertex -108.4 26.6 15.5
      vertex -107.6 26.6 15.5
    endloop
  endfacet
  facet normal 0 0 1
    outer loop
      vertex 0.4 108.4 15.5
      vertex -0.4 107.6 15.5
      vertex 0.4 105.3 15.5
    endloop
  endfacet
  facet normal -0 0 1
    outer loop
      vertex -2.7 108.4 15.5
      vertex -0.4 107.6 15.5
      vertex 0.4 108.4 15.5
    endloop
  endfacet
  facet normal 0 0 1
    outer loop
      vertex -2.7 108.4 15.5
      vertex -2.7 107.6 15.5
      vertex -0.4 107.6 15.5
    endloop
  endfacet
  facet normal -0 0 1
    outer loop
      vertex -105.3 108.4 15.5
      vertex -2.7 107.6 15.5
      vertex -2.7 108.4 15.5
    endloop
  endfacet
  facet normal 0 0 1
    outer loop
      vertex -2.7 107.6 15.5
      vertex -105.3 108.4 15.5
      vertex -105.3 107.6 15.5
    endloop
  endfacet
  facet normal 0 0 1
    outer loop
      vertex 0.4 105.3 15.5
      vertex -0.4 107.6 15.5
      vertex -0.4 105.3 15.5
    endloop
  endfacet
  facet normal -1 0 0
    outer loop
      vertex -0.4 105.3 3.5
      vertex -0.4 107.6 13.5
      vertex -0.4 107.6 3.5
    endloop
  endfacet
  facet normal -1 -0 0
    outer loop
      vertex -0.4 107.6 13.5
      vertex -0.4 105.3 3.5
      vertex -0.4 105.3 13.5
    endloop
  endfacet
  facet normal 0 0 0
    outer loop
      vertex -0.4 107.6 13.5
      vertex -0.4 107.6 15.5
      vertex -0.4 107.6 3.5
    endloop
  endfacet
  facet normal 0 1 -0
    outer loop
      vertex 0.4 108.4 3.5
      vertex -2.7 108.4 15.5
      vertex 0.4 108.4 15.5
    endloop
  endfacet
  facet normal 0 1 0
    outer loop
      vertex -2.7 108.4 15.5
      vertex 0.4 108.4 3.5
      vertex -2.7 108.4 3.5
    endloop
  endfacet
  facet normal 0 -1 0
    outer loop
      vertex -0.4 105.3 13.5
      vertex 0.4 105.3 15.5
      vertex -0.4 105.3 15.5
    endloop
  endfacet
  facet normal 0 -1 0
    outer loop
      vertex 0.4 105.3 3.5
      vertex -0.4 105.3 13.5
      vertex -0.4 105.3 3.5
    endloop
  endfacet
  facet normal 0 -1 0
    outer loop
      vertex -0.4 105.3 13.5
      vertex 0.4 105.3 3.5
      vertex 0.4 105.3 15.5
    endloop
  endfacet
  facet normal -1 0 0
    outer loop
      vertex -2.7 108 3.5
      vertex -2.7 108.4 15.5
      vertex -2.7 108.4 3.5
    endloop
  endfacet
  facet normal -1 -0 0
    outer loop
      vertex -2.7 108.4 15.5
      vertex -2.7 108 3.5
      vertex -2.7 108 15.5
    endloop
  endfacet
  facet normal 0 -1 0
    outer loop
      vertex -2.7 107.6 3.5
      vertex -0.4 107.6 15.5
      vertex -2.7 107.6 15.5
    endloop
  endfacet
  facet normal 0 -1 -0
    outer loop
      vertex -0.4 107.6 15.5
      vertex -2.7 107.6 3.5
      vertex -0.4 107.6 3.5
    endloop
  endfacet
  facet normal -1 0 0
    outer loop
      vertex -105.3 107.6 13.5
      vertex -105.3 108.4 3.5
      vertex -105.3 107.6 3.5
    endloop
  endfacet
  facet normal -1 0 0
    outer loop
      vertex -105.3 108.4 3.5
      vertex -105.3 107.6 13.5
      vertex -105.3 108.4 15.5
    endloop
  endfacet
  facet normal -1 -0 0
    outer loop
      vertex -105.3 108.4 15.5
      vertex -105.3 107.6 13.5
      vertex -105.3 107.6 15.5
    endloop
  endfacet
  facet normal 0 1 -0
    outer loop
      vertex -2.7 108.4 3.5
      vertex -105.3 108.4 15.5
      vertex -2.7 108.4 15.5
    endloop
  endfacet
  facet normal 0 1 0
    outer loop
      vertex -105.3 108.4 15.5
      vertex -2.7 108.4 3.5
      vertex -105.3 108.4 3.5
    endloop
  endfacet
  facet normal 0 -1 0
    outer loop
      vertex -105.3 107.6 3.5
      vertex -2.7 107.6 13.5
      vertex -105.3 107.6 13.5
    endloop
  endfacet
  facet normal 0 -1 -0
    outer loop
      vertex -2.7 107.6 13.5
      vertex -105.3 107.6 3.5
      vertex -2.7 107.6 3.5
    endloop
  endfacet
  facet normal 0 -1 0
    outer loop
      vertex -105.3 107.6 13.5
      vertex -2.7 107.6 15.5
      vertex -105.3 107.6 15.5
    endloop
  endfacet
  facet normal 0 -1 -0
    outer loop
      vertex -2.7 107.6 15.5
      vertex -105.3 107.6 13.5
      vertex -2.7 107.6 13.5
    endloop
  endfacet
  facet normal 1 -0 0
    outer loop
      vertex -2.7 108 15.5
      vertex -2.7 108.4 3.5
      vertex -2.7 108.4 15.5
    endloop
  endfacet
  facet normal 1 0 0
    outer loop
      vertex -2.7 108.4 3.5
      vertex -2.7 108 15.5
      vertex -2.7 108 3.5
    endloop
  endfacet
  facet normal 0 0 0
    outer loop
      vertex -2.7 107.6 13.5
      vertex -2.7 107.6 3.5
      vertex -2.7 107.6 15.5
    endloop
  endfacet
  facet normal 0 1 -0
    outer loop
      vertex -107.6 105.3 13.5
      vertex -108.4 105.3 15.5
      vertex -107.6 105.3 15.5
    endloop
  endfacet
  facet normal 0 1 0
    outer loop
      vertex -108.4 105.3 3.5
      vertex -107.6 105.3 13.5
      vertex -107.6 105.3 3.5
    endloop
  endfacet
  facet normal 0 1 0
    outer loop
      vertex -107.6 105.3 13.5
      vertex -108.4 105.3 3.5
      vertex -108.4 105.3 15.5
    endloop
  endfacet
  facet normal 1 -0 0
    outer loop
      vertex -107.6 29.7 15.5
      vertex -107.6 105.3 13.5
      vertex -107.6 105.3 15.5
    endloop
  endfacet
  facet normal 1 0 0
    outer loop
      vertex -107.6 105.3 13.5
      vertex -107.6 29.7 15.5
      vertex -107.6 29.7 13.5
    endloop
  endfacet
  facet normal 1 -0 0
    outer loop
      vertex -107.6 29.7 13.5
      vertex -107.6 105.3 3.5
      vertex -107.6 105.3 13.5
    endloop
  endfacet
  facet normal 1 0 0
    outer loop
      vertex -107.6 105.3 3.5
      vertex -107.6 29.7 13.5
      vertex -107.6 29.7 3.5
    endloop
  endfacet
  facet normal 1 -0 0
    outer loop
      vertex -107.6 26.6 15.5
      vertex -107.6 27.4 13.5
      vertex -107.6 27.4 15.5
    endloop
  endfacet
  facet normal 1 0 0
    outer loop
      vertex -107.6 27.4 13.5
      vertex -107.6 26.6 15.5
      vertex -107.6 26.6 13.5
    endloop
  endfacet
  facet normal -1 0 0
    outer loop
      vertex -108.4 29.7 3.5
      vertex -108.4 105.3 15.5
      vertex -108.4 105.3 3.5
    endloop
  endfacet
  facet normal -1 -0 0
    outer loop
      vertex -108.4 105.3 15.5
      vertex -108.4 29.7 3.5
      vertex -108.4 29.7 15.5
    endloop
  endfacet
  facet normal 0 0 1
    outer loop
      vertex -0.4 0.4 15.5
      vertex 0.4 105.3 15.5
      vertex -0.4 105.3 15.5
    endloop
  endfacet
  facet normal 0 0 1
    outer loop
      vertex 0.4 105.3 15.5
      vertex -0.4 0.4 15.5
      vertex 0.4 -0.4 15.5
    endloop
  endfacet
  facet normal 0 0 1
    outer loop
      vertex -94.5 -0.4 15.5
      vertex -0.4 0.4 15.5
      vertex -94.5 0.4 15.5
    endloop
  endfacet
  facet normal 0 0 1
    outer loop
      vertex -0.4 0.4 15.5
      vertex -94.5 -0.4 15.5
      vertex 0.4 -0.4 15.5
    endloop
  endfacet
  facet normal 9.53675e-06 1 0
    outer loop
      vertex 0.4 105.3 15.5
      vertex -0.4 105.3 13.5
      vertex -0.4 105.3 15.5
    endloop
  endfacet
  facet normal 9.53675e-06 1 -0
    outer loop
      vertex 0.4 105.3 3.5
      vertex -0.4 105.3 13.5
      vertex 0.4 105.3 15.5
    endloop
  endfacet
  facet normal 9.53675e-06 1 0
    outer loop
      vertex -0.4 105.3 13.5
      vertex 0.4 105.3 3.5
      vertex -0.4 105.3 3.5
    endloop
  endfacet
  facet normal 1 -0 0
    outer loop
      vertex 0.4 -0.4 15.5
      vertex 0.4 105.3 3.5
      vertex 0.4 105.3 15.5
    endloop
  endfacet
  facet normal 1 0 0
    outer loop
      vertex 0.4 105.3 3.5
      vertex 0.4 -0.4 15.5
      vertex 0.4 -0.4 3.5
    endloop
  endfacet
  facet normal -1 0 0
    outer loop
      vertex -0.4 0.4 13.5
      vertex -0.4 105.3 15.5
      vertex -0.4 105.3 13.5
    endloop
  endfacet
  facet normal -1 -0 0
    outer loop
      vertex -0.4 105.3 15.5
      vertex -0.4 0.4 13.5
      vertex -0.4 0.4 15.5
    endloop
  endfacet
  facet normal -1 0 0
    outer loop
      vertex -0.4 0.4 3.5
      vertex -0.4 105.3 13.5
      vertex -0.4 105.3 3.5
    endloop
  endfacet
  facet normal -1 -0 0
    outer loop
      vertex -0.4 105.3 13.5
      vertex -0.4 0.4 3.5
      vertex -0.4 0.4 13.5
    endloop
  endfacet
  facet normal -1 0 0
    outer loop
      vertex -0.4 105.3 13.5
      vertex -0.4 107.6 15.5
      vertex -0.4 107.6 13.5
    endloop
  endfacet
  facet normal -1 -0 0
    outer loop
      vertex -0.4 107.6 15.5
      vertex -0.4 105.3 13.5
      vertex -0.4 105.3 15.5
    endloop
  endfacet
  facet normal 0 -1 0
    outer loop
      vertex -108 29.7 15.5
      vertex -107.6 29.7 13.5
      vertex -107.6 29.7 15.5
    endloop
  endfacet
  facet normal 0 -1 0
    outer loop
      vertex -108 29.7 3.5
      vertex -107.6 29.7 13.5
      vertex -108 29.7 15.5
    endloop
  endfacet
  facet normal 0 -1 -0
    outer loop
      vertex -107.6 29.7 13.5
      vertex -108 29.7 3.5
      vertex -107.6 29.7 3.5
    endloop
  endfacet
  facet normal 0 -1 0
    outer loop
      vertex -94.5 -0.4 3.5
      vertex 0.4 -0.4 15.5
      vertex -94.5 -0.4 15.5
    endloop
  endfacet
  facet normal 0 -1 -0
    outer loop
      vertex 0.4 -0.4 15.5
      vertex -94.5 -0.4 3.5
      vertex 0.4 -0.4 3.5
    endloop
  endfacet
  facet normal 0 1 -0
    outer loop
      vertex -0.4 0.4 13.5
      vertex -94.5 0.4 15.5
      vertex -0.4 0.4 15.5
    endloop
  endfacet
  facet normal 0 1 0
    outer loop
      vertex -94.5 0.4 15.5
      vertex -0.4 0.4 13.5
      vertex -94.5 0.4 13.5
    endloop
  endfacet
  facet normal 0 1 -0
    outer loop
      vertex -0.4 0.4 3.5
      vertex -94.5 0.4 13.5
      vertex -0.4 0.4 13.5
    endloop
  endfacet
  facet normal 0 1 0
    outer loop
      vertex -94.5 0.4 13.5
      vertex -0.4 0.4 3.5
      vertex -94.5 0.4 3.5
    endloop
  endfacet
  facet normal 0 1 -0
    outer loop
      vertex -96.8 0.4 13.5
      vertex -97.6 0.4 15.5
      vertex -96.8 0.4 15.5
    endloop
  endfacet
  facet normal 0 1 0
    outer loop
      vertex -97.6 0.4 15.5
      vertex -96.8 0.4 13.5
      vertex -97.6 0.4 13.5
    endloop
  endfacet
  facet normal -1 0 0
    outer loop
      vertex -108.4 26.6 3.5
      vertex -108.4 29.7 15.5
      vertex -108.4 29.7 3.5
    endloop
  endfacet
  facet normal -1 -0 0
    outer loop
      vertex -108.4 29.7 15.5
      vertex -108.4 26.6 3.5
      vertex -108.4 26.6 15.5
    endloop
  endfacet
  facet normal 1 -0 0
    outer loop
      vertex -107.6 27.4 15.5
      vertex -107.6 29.7 3.5
      vertex -107.6 29.7 15.5
    endloop
  endfacet
  facet normal 1 0 0
    outer loop
      vertex -107.6 29.7 3.5
      vertex -107.6 27.4 15.5
      vertex -107.6 27.4 3.5
    endloop
  endfacet
  facet normal 0 -1 0
    outer loop
      vertex -108.4 26.6 15.5
      vertex -107.6 26.6 13.5
      vertex -107.6 26.6 15.5
    endloop
  endfacet
  facet normal 0 -1 0
    outer loop
      vertex -108.4 26.6 3.5
      vertex -107.6 26.6 13.5
      vertex -108.4 26.6 15.5
    endloop
  endfacet
  facet normal 0 -1 0
    outer loop
      vertex -105.3 26.6 3.5
      vertex -107.6 26.6 13.5
      vertex -108.4 26.6 3.5
    endloop
  endfacet
  facet normal 0 -1 0
    outer loop
      vertex -107.6 26.6 13.5
      vertex -105.3 26.6 3.5
      vertex -105.3 26.6 13.5
    endloop
  endfacet
  facet normal 0 1 -0
    outer loop
      vertex -107.6 29.7 3.5
      vertex -108 29.7 15.5
      vertex -107.6 29.7 15.5
    endloop
  endfacet
  facet normal 0 1 0
    outer loop
      vertex -108 29.7 15.5
      vertex -107.6 29.7 3.5
      vertex -108 29.7 3.5
    endloop
  endfacet
  facet normal 1 -0 0
    outer loop
      vertex -105.3 26.6 13.5
      vertex -105.3 27.4 3.5
      vertex -105.3 27.4 13.5
    endloop
  endfacet
  facet normal 1 0 0
    outer loop
      vertex -105.3 27.4 3.5
      vertex -105.3 26.6 13.5
      vertex -105.3 26.6 3.5
    endloop
  endfacet
  facet normal 0 1 -0
    outer loop
      vertex -105.3 27.4 3.5
      vertex -107.6 27.4 13.5
      vertex -105.3 27.4 13.5
    endloop
  endfacet
  facet normal 0 1 0
    outer loop
      vertex -107.6 27.4 13.5
      vertex -105.3 27.4 3.5
      vertex -107.6 27.4 3.5
    endloop
  endfacet
  facet normal 0 0 0
    outer loop
      vertex -107.6 27.4 13.5
      vertex -107.6 27.4 3.5
      vertex -107.6 27.4 15.5
    endloop
  endfacet
  facet normal 0 1 -0
    outer loop
      vertex -96.8 27 3.5
      vertex -97.6 27 13.5
      vertex -96.8 27 13.5
    endloop
  endfacet
  facet normal 0 1 0
    outer loop
      vertex -97.6 27 13.5
      vertex -96.8 27 3.5
      vertex -97.6 27 3.5
    endloop
  endfacet
  facet normal -1 0 0
    outer loop
      vertex -97.6 2.7 3.5
      vertex -97.6 27 13.5
      vertex -97.6 27 3.5
    endloop
  endfacet
  facet normal -1 -0 0
    outer loop
      vertex -97.6 27 13.5
      vertex -97.6 2.7 3.5
      vertex -97.6 2.7 13.5
    endloop
  endfacet
  facet normal 1 -0 0
    outer loop
      vertex -96.8 2.7 13.5
      vertex -96.8 27 3.5
      vertex -96.8 27 13.5
    endloop
  endfacet
  facet normal 1 0 0
    outer loop
      vertex -96.8 27 3.5
      vertex -96.8 2.7 13.5
      vertex -96.8 2.7 3.5
    endloop
  endfacet
  facet normal 0 -1 0
    outer loop
      vertex -97.2 2.7 3.5
      vertex -96.8 2.7 13.5
      vertex -97.2 2.7 13.5
    endloop
  endfacet
  facet normal 0 -1 -0
    outer loop
      vertex -96.8 2.7 13.5
      vertex -97.2 2.7 3.5
      vertex -96.8 2.7 3.5
    endloop
  endfacet
  facet normal -1 0 0
    outer loop
      vertex -97.6 2.7 3.5
      vertex -97.6 0.4 13.5
      vertex -97.6 2.7 13.5
    endloop
  endfacet
  facet normal -1 0 0
    outer loop
      vertex -97.6 -0.4 3.5
      vertex -97.6 0.4 13.5
      vertex -97.6 2.7 3.5
    endloop
  endfacet
  facet normal -1 0 0
    outer loop
      vertex -97.6 -0.4 15.5
      vertex -97.6 0.4 13.5
      vertex -97.6 -0.4 3.5
    endloop
  endfacet
  facet normal -1 0 0
    outer loop
      vertex -97.6 0.4 13.5
      vertex -97.6 -0.4 15.5
      vertex -97.6 0.4 15.5
    endloop
  endfacet
  facet normal 1 -0 0
    outer loop
      vertex -96.8 0.4 13.5
      vertex -96.8 2.7 3.5
      vertex -96.8 2.7 13.5
    endloop
  endfacet
  facet normal 1 0 0
    outer loop
      vertex -96.8 2.7 3.5
      vertex -96.8 0.4 13.5
      vertex -96.8 0.4 3.5
    endloop
  endfacet
  facet normal 0 0 0
    outer loop
      vertex -96.8 0.4 13.5
      vertex -96.8 0.4 15.5
      vertex -96.8 0.4 3.5
    endloop
  endfacet
  facet normal 0 -1 0
    outer loop
      vertex -97.6 -0.4 3.5
      vertex -94.5 -0.4 15.5
      vertex -97.6 -0.4 15.5
    endloop
  endfacet
  facet normal 0 -1 -0
    outer loop
      vertex -94.5 -0.4 15.5
      vertex -97.6 -0.4 3.5
      vertex -94.5 -0.4 3.5
    endloop
  endfacet
  facet normal 0 1 -0
    outer loop
      vertex -96.8 2.7 3.5
      vertex -97.2 2.7 13.5
      vertex -96.8 2.7 13.5
    endloop
  endfacet
  facet normal 0 1 0
    outer loop
      vertex -97.2 2.7 13.5
      vertex -96.8 2.7 3.5
      vertex -97.2 2.7 3.5
    endloop
  endfacet
  facet normal 1 -0 0
    outer loop
      vertex -94.5 -0.4 15.5
      vertex -94.5 0.4 3.5
      vertex -94.5 0.4 15.5
    endloop
  endfacet
  facet normal 1 0 0
    outer loop
      vertex -94.5 0.4 3.5
      vertex -94.5 -0.4 15.5
      vertex -94.5 -0.4 3.5
    endloop
  endfacet
  facet normal 0 1 -0
    outer loop
      vertex -94.5 0.4 3.5
      vertex -96.8 0.4 15.5
      vertex -94.5 0.4 15.5
    endloop
  endfacet
  facet normal 0 1 0
    outer loop
      vertex -96.8 0.4 15.5
      vertex -94.5 0.4 3.5
      vertex -96.8 0.4 3.5
    endloop
  endfacet
  facet normal -1 0 0
    outer loop
      vertex -94.5 -0.4 3.5
      vertex -94.5 0.4 13.5
      vertex -94.5 0.4 3.5
    endloop
  endfacet
  facet normal -1 0 0
    outer loop
      vertex -94.5 -0.4 15.5
      vertex -94.5 0.4 13.5
      vertex -94.5 -0.4 3.5
    endloop
  endfacet
  facet normal -1 0 0
    outer loop
      vertex -94.5 0.4 13.5
      vertex -94.5 -0.4 15.5
      vertex -94.5 0.4 15.5
    endloop
  endfacet
  facet normal -0 0 1
    outer loop
      vertex -97.2 2.7 13.5
      vertex -96.8 0.4 13.5
      vertex -96.8 2.7 13.5
    endloop
  endfacet
  facet normal 0 0 1
    outer loop
      vertex -97.6 2.7 13.5
      vertex -97.2 2.7 13.5
      vertex -97.6 27 13.5
    endloop
  endfacet
  facet normal 0 0 1
    outer loop
      vertex -97.6 0.4 13.5
      vertex -97.2 2.7 13.5
      vertex -97.6 2.7 13.5
    endloop
  endfacet
  facet normal 0 0 1
    outer loop
      vertex -97.2 2.7 13.5
      vertex -97.6 0.4 13.5
      vertex -96.8 0.4 13.5
    endloop
  endfacet
  facet normal 0 0 1
    outer loop
      vertex -96.8 27 13.5
      vertex -97.2 2.7 13.5
      vertex -96.8 2.7 13.5
    endloop
  endfacet
  facet normal 0 -0 1
    outer loop
      vertex -97.2 2.7 13.5
      vertex -96.8 27 13.5
      vertex -97.6 27 13.5
    endloop
  endfacet
  facet normal -0 0 1
    outer loop
      vertex -107.6 27.4 13.5
      vertex -105.3 26.6 13.5
      vertex -105.3 27.4 13.5
    endloop
  endfacet
  facet normal 0 0 1
    outer loop
      vertex -105.3 26.6 13.5
      vertex -107.6 27.4 13.5
      vertex -107.6 26.6 13.5
    endloop
  endfacet
  facet normal 0 -1 0
    outer loop
      vertex -110.7 -2.7 0
      vertex 2.7 -2.7 3.5
      vertex -110.7 -2.7 3.5
    endloop
  endfacet
  facet normal 0 -1 -0
    outer loop
      vertex 2.7 -2.7 3.5
      vertex -110.7 -2.7 0
      vertex 2.7 -2.7 0
    endloop
  endfacet
  facet normal 0 1 -0
    outer loop
      vertex 2.7 110.7 0
      vertex -110.7 110.7 3.5
      vertex 2.7 110.7 3.5
    endloop
  endfacet
  facet normal 0 1 0
    outer loop
      vertex -110.7 110.7 3.5
      vertex 2.7 110.7 0
      vertex -110.7 110.7 0
    endloop
  endfacet
  facet normal 0 0 -1
    outer loop
      vertex -110.7 -2.7 0
      vertex 2.7 110.7 0
      vertex 2.7 -2.7 0
    endloop
  endfacet
  facet normal -0 0 -1
    outer loop
      vertex 2.7 110.7 0
      vertex -110.7 -2.7 0
      vertex -110.7 110.7 0
    endloop
  endfacet
  facet normal 1 -0 0
    outer loop
      vertex 2.7 -2.7 3.5
      vertex 2.7 110.7 0
      vertex 2.7 110.7 3.5
    endloop
  endfacet
  facet normal 1 0 0
    outer loop
      vertex 2.7 110.7 0
      vertex 2.7 -2.7 3.5
      vertex 2.7 -2.7 0
    endloop
  endfacet
  facet normal -1 0 0
    outer loop
      vertex -110.7 -2.7 0
      vertex -110.7 110.7 3.5
      vertex -110.7 110.7 0
    endloop
  endfacet
  facet normal -1 -0 0
    outer loop
      vertex -110.7 110.7 3.5
      vertex -110.7 -2.7 0
      vertex -110.7 -2.7 3.5
    endloop
  endfacet
endsolid OpenSCAD_Model
