solid OpenSCAD_Model
  facet normal -1 0 0
    outer loop
      vertex 0 0 0
      vertex 0 113.4 32.8
      vertex 0 113.4 0
    endloop
  endfacet
  facet normal -1 -0 0
    outer loop
      vertex 0 113.4 32.8
      vertex 0 0 0
      vertex 0 0 32.8
    endloop
  endfacet
  facet normal 0 0 1
    outer loop
      vertex 37.2 44.35 32.8
      vertex 23.1441 46.2814 32.8
      vertex 23.45 44.35 32.8
    endloop
  endfacet
  facet normal 0 0 1
    outer loop
      vertex 37.2 44.35 32.8
      vertex 22.2564 48.0237 32.8
      vertex 23.1441 46.2814 32.8
    endloop
  endfacet
  facet normal 0 0 1
    outer loop
      vertex 37.2 44.35 32.8
      vertex 20.8737 49.4064 32.8
      vertex 22.2564 48.0237 32.8
    endloop
  endfacet
  facet normal 0 0 1
    outer loop
      vertex 24.7 99.5 32.8
      vertex 19.1314 50.2941 32.8
      vertex 20.8737 49.4064 32.8
    endloop
  endfacet
  facet normal 0 0 1
    outer loop
      vertex 24.7 99.5 32.8
      vertex 17.2 50.6 32.8
      vertex 19.1314 50.2941 32.8
    endloop
  endfacet
  facet normal -0 0 1
    outer loop
      vertex 13.9 99.5 32.8
      vertex 17.2 50.6 32.8
      vertex 24.7 99.5 32.8
    endloop
  endfacet
  facet normal 0 0 1
    outer loop
      vertex 17.2 50.6 32.8
      vertex 13.9 99.5 32.8
      vertex 15.2686 50.2941 32.8
    endloop
  endfacet
  facet normal 0 0 1
    outer loop
      vertex 15.2686 50.2941 32.8
      vertex 13.9 99.5 32.8
      vertex 13.5263 49.4064 32.8
    endloop
  endfacet
  facet normal 0 0 1
    outer loop
      vertex 113.4 113.4 32.8
      vertex 102.45 44.35 32.8
      vertex 113.4 0 32.8
    endloop
  endfacet
  facet normal 0 0 1
    outer loop
      vertex 113.4 113.4 32.8
      vertex 102.144 46.2814 32.8
      vertex 102.45 44.35 32.8
    endloop
  endfacet
  facet normal 0 0 1
    outer loop
      vertex 113.4 113.4 32.8
      vertex 101.256 48.0237 32.8
      vertex 102.144 46.2814 32.8
    endloop
  endfacet
  facet normal 0 0 1
    outer loop
      vertex 113.4 113.4 32.8
      vertex 99.8737 49.4064 32.8
      vertex 101.256 48.0237 32.8
    endloop
  endfacet
  facet normal 0 0 1
    outer loop
      vertex 113.4 113.4 32.8
      vertex 98.1314 50.2941 32.8
      vertex 99.8737 49.4064 32.8
    endloop
  endfacet
  facet normal 0 0 1
    outer loop
      vertex 113.4 113.4 32.8
      vertex 96.2 50.6 32.8
      vertex 98.1314 50.2941 32.8
    endloop
  endfacet
  facet normal 0 0 1
    outer loop
      vertex 113.4 113.4 32.8
      vertex 94.2686 50.2941 32.8
      vertex 96.2 50.6 32.8
    endloop
  endfacet
  facet normal 0 0 1
    outer loop
      vertex 113.4 113.4 32.8
      vertex 92.5263 49.4064 32.8
      vertex 94.2686 50.2941 32.8
    endloop
  endfacet
  facet normal -0 0 1
    outer loop
      vertex 24.7 99.5 32.8
      vertex 92.5263 49.4064 32.8
      vertex 113.4 113.4 32.8
    endloop
  endfacet
  facet normal 0 0 1
    outer loop
      vertex 92.5263 49.4064 32.8
      vertex 76.2 44.35 32.8
      vertex 91.1436 48.0237 32.8
    endloop
  endfacet
  facet normal 0 0 1
    outer loop
      vertex 90.2559 46.2814 32.8
      vertex 76.2 44.35 32.8
      vertex 89.95 44.35 32.8
    endloop
  endfacet
  facet normal 0 0 1
    outer loop
      vertex 91.1436 48.0237 32.8
      vertex 76.2 44.35 32.8
      vertex 90.2559 46.2814 32.8
    endloop
  endfacet
  facet normal 0 0 1
    outer loop
      vertex 92.5263 49.4064 32.8
      vertex 24.7 99.5 32.8
      vertex 76.2 44.35 32.8
    endloop
  endfacet
  facet normal 0 0 1
    outer loop
      vertex 76.2 44.35 32.8
      vertex 24.7 99.5 32.8
      vertex 37.2 44.35 32.8
    endloop
  endfacet
  facet normal 0 0 1
    outer loop
      vertex 24.7 99.5 32.8
      vertex 113.4 113.4 32.8
      vertex 24.7 110.3 32.8
    endloop
  endfacet
  facet normal -0 0 1
    outer loop
      vertex 0 113.4 32.8
      vertex 24.7 110.3 32.8
      vertex 113.4 113.4 32.8
    endloop
  endfacet
  facet normal 0 0 1
    outer loop
      vertex 0 113.4 32.8
      vertex 13.9 99.5 32.8
      vertex 13.9 110.3 32.8
    endloop
  endfacet
  facet normal 0 -0 1
    outer loop
      vertex 12.1436 48.0237 32.8
      vertex 13.9 99.5 32.8
      vertex 0 113.4 32.8
    endloop
  endfacet
  facet normal 0 0 1
    outer loop
      vertex 13.9 99.5 32.8
      vertex 12.1436 48.0237 32.8
      vertex 13.5263 49.4064 32.8
    endloop
  endfacet
  facet normal 0 0 1
    outer loop
      vertex 12.1436 48.0237 32.8
      vertex 0 113.4 32.8
      vertex 11.2559 46.2814 32.8
    endloop
  endfacet
  facet normal 0 0 1
    outer loop
      vertex 11.2559 46.2814 32.8
      vertex 0 113.4 32.8
      vertex 10.95 44.35 32.8
    endloop
  endfacet
  facet normal 0 0 1
    outer loop
      vertex 24.7 110.3 32.8
      vertex 0 113.4 32.8
      vertex 13.9 110.3 32.8
    endloop
  endfacet
  facet normal -0 0 1
    outer loop
      vertex 102.144 42.4186 32.8
      vertex 113.4 0 32.8
      vertex 102.45 44.35 32.8
    endloop
  endfacet
  facet normal -0 0 1
    outer loop
      vertex 101.256 40.6763 32.8
      vertex 113.4 0 32.8
      vertex 102.144 42.4186 32.8
    endloop
  endfacet
  facet normal -0 0 1
    outer loop
      vertex 99.8737 39.2936 32.8
      vertex 113.4 0 32.8
      vertex 101.256 40.6763 32.8
    endloop
  endfacet
  facet normal -0 0 1
    outer loop
      vertex 98.1314 38.4059 32.8
      vertex 113.4 0 32.8
      vertex 99.8737 39.2936 32.8
    endloop
  endfacet
  facet normal -0 0 1
    outer loop
      vertex 96.2 38.1 32.8
      vertex 113.4 0 32.8
      vertex 98.1314 38.4059 32.8
    endloop
  endfacet
  facet normal 0 0 1
    outer loop
      vertex 76.2 12.35 32.8
      vertex 96.2 38.1 32.8
      vertex 94.2686 38.4059 32.8
    endloop
  endfacet
  facet normal 0 0 1
    outer loop
      vertex 76.2 12.35 32.8
      vertex 94.2686 38.4059 32.8
      vertex 92.5263 39.2936 32.8
    endloop
  endfacet
  facet normal 0 0 1
    outer loop
      vertex 76.2 12.35 32.8
      vertex 92.5263 39.2936 32.8
      vertex 91.1436 40.6763 32.8
    endloop
  endfacet
  facet normal -0 0 1
    outer loop
      vertex 76.2 44.35 32.8
      vertex 90.2559 42.4186 32.8
      vertex 89.95 44.35 32.8
    endloop
  endfacet
  facet normal 0 0 1
    outer loop
      vertex 76.2 44.35 32.8
      vertex 91.1436 40.6763 32.8
      vertex 90.2559 42.4186 32.8
    endloop
  endfacet
  facet normal 0 0 1
    outer loop
      vertex 76.2 12.35 32.8
      vertex 91.1436 40.6763 32.8
      vertex 76.2 44.35 32.8
    endloop
  endfacet
  facet normal 0 0 1
    outer loop
      vertex 96.2 38.1 32.8
      vertex 76.2 12.35 32.8
      vertex 113.4 0 32.8
    endloop
  endfacet
  facet normal -0 0 1
    outer loop
      vertex 37.2 12.35 32.8
      vertex 113.4 0 32.8
      vertex 76.2 12.35 32.8
    endloop
  endfacet
  facet normal -0 0 1
    outer loop
      vertex 20.8737 49.4064 32.8
      vertex 37.2 44.35 32.8
      vertex 24.7 99.5 32.8
    endloop
  endfacet
  facet normal 0 0 1
    outer loop
      vertex 23.1441 42.4186 32.8
      vertex 37.2 44.35 32.8
      vertex 23.45 44.35 32.8
    endloop
  endfacet
  facet normal 0 0 1
    outer loop
      vertex 22.2564 40.6763 32.8
      vertex 37.2 44.35 32.8
      vertex 23.1441 42.4186 32.8
    endloop
  endfacet
  facet normal 0 0 1
    outer loop
      vertex 37.2 44.35 32.8
      vertex 22.2564 40.6763 32.8
      vertex 37.2 12.35 32.8
    endloop
  endfacet
  facet normal -0 0 1
    outer loop
      vertex 20.8737 39.2936 32.8
      vertex 37.2 12.35 32.8
      vertex 22.2564 40.6763 32.8
    endloop
  endfacet
  facet normal -0 0 1
    outer loop
      vertex 19.1314 38.4059 32.8
      vertex 37.2 12.35 32.8
      vertex 20.8737 39.2936 32.8
    endloop
  endfacet
  facet normal -0 0 1
    outer loop
      vertex 17.2 38.1 32.8
      vertex 37.2 12.35 32.8
      vertex 19.1314 38.4059 32.8
    endloop
  endfacet
  facet normal 0 0 1
    outer loop
      vertex 0 0 32.8
      vertex 17.2 38.1 32.8
      vertex 15.2686 38.4059 32.8
    endloop
  endfacet
  facet normal 0 0 1
    outer loop
      vertex 0 0 32.8
      vertex 15.2686 38.4059 32.8
      vertex 13.5263 39.2936 32.8
    endloop
  endfacet
  facet normal 0 0 1
    outer loop
      vertex 0 0 32.8
      vertex 13.5263 39.2936 32.8
      vertex 12.1436 40.6763 32.8
    endloop
  endfacet
  facet normal 0 0 1
    outer loop
      vertex 0 0 32.8
      vertex 10.95 44.35 32.8
      vertex 0 113.4 32.8
    endloop
  endfacet
  facet normal 0 0 1
    outer loop
      vertex 37.2 12.35 32.8
      vertex 0 0 32.8
      vertex 113.4 0 32.8
    endloop
  endfacet
  facet normal 0 0 1
    outer loop
      vertex 17.2 38.1 32.8
      vertex 0 0 32.8
      vertex 37.2 12.35 32.8
    endloop
  endfacet
  facet normal 0 0 1
    outer loop
      vertex 11.2559 42.4186 32.8
      vertex 0 0 32.8
      vertex 12.1436 40.6763 32.8
    endloop
  endfacet
  facet normal 0 0 1
    outer loop
      vertex 10.95 44.35 32.8
      vertex 0 0 32.8
      vertex 11.2559 42.4186 32.8
    endloop
  endfacet
  facet normal 1 0 0
    outer loop
      vertex 113.4 103.4 15
      vertex 113.4 113.4 32.8
      vertex 113.4 103.4 28
    endloop
  endfacet
  facet normal 1 0 0
    outer loop
      vertex 113.4 113.4 32.8
      vertex 113.4 82.4 28
      vertex 113.4 103.4 28
    endloop
  endfacet
  facet normal 1 0 0
    outer loop
      vertex 113.4 82.4 28
      vertex 113.4 0 32.8
      vertex 113.4 82.4 15
    endloop
  endfacet
  facet normal 1 -0 0
    outer loop
      vertex 113.4 0 32.8
      vertex 113.4 82.4 28
      vertex 113.4 113.4 32.8
    endloop
  endfacet
  facet normal 1 0 0
    outer loop
      vertex 113.4 113.4 32.8
      vertex 113.4 103.4 15
      vertex 113.4 113.4 0
    endloop
  endfacet
  facet normal 1 -0 0
    outer loop
      vertex 113.4 82.4 15
      vertex 113.4 113.4 0
      vertex 113.4 103.4 15
    endloop
  endfacet
  facet normal 1 0 0
    outer loop
      vertex 113.4 0 0
      vertex 113.4 82.4 15
      vertex 113.4 0 32.8
    endloop
  endfacet
  facet normal 1 0 0
    outer loop
      vertex 113.4 82.4 15
      vertex 113.4 0 0
      vertex 113.4 113.4 0
    endloop
  endfacet
  facet normal 0 0 -1
    outer loop
      vertex 113.4 0 0
      vertex 111.3 2.3 0
      vertex 113.4 113.4 0
    endloop
  endfacet
  facet normal 0 0 -1
    outer loop
      vertex 113.4 0 0
      vertex 2.3 2.3 0
      vertex 111.3 2.3 0
    endloop
  endfacet
  facet normal 0 0 -1
    outer loop
      vertex 0 113.4 0
      vertex 2.3 2.3 0
      vertex 0 0 0
    endloop
  endfacet
  facet normal 0 0 -1
    outer loop
      vertex 0 0 0
      vertex 2.3 2.3 0
      vertex 113.4 0 0
    endloop
  endfacet
  facet normal 0 0 -1
    outer loop
      vertex 111.3 111.3 0
      vertex 113.4 113.4 0
      vertex 111.3 2.3 0
    endloop
  endfacet
  facet normal 0 0 -1
    outer loop
      vertex 2.3 111.3 0
      vertex 113.4 113.4 0
      vertex 111.3 111.3 0
    endloop
  endfacet
  facet normal 0 0 -1
    outer loop
      vertex 2.3 111.3 0
      vertex 0 113.4 0
      vertex 113.4 113.4 0
    endloop
  endfacet
  facet normal 0 0 -1
    outer loop
      vertex 2.3 2.3 0
      vertex 0 113.4 0
      vertex 2.3 111.3 0
    endloop
  endfacet
  facet normal 0 -1 0
    outer loop
      vertex 0 0 0
      vertex 113.4 0 32.8
      vertex 0 0 32.8
    endloop
  endfacet
  facet normal 0 -1 -0
    outer loop
      vertex 113.4 0 32.8
      vertex 0 0 0
      vertex 113.4 0 0
    endloop
  endfacet
  facet normal 0 1 -0
    outer loop
      vertex 113.4 113.4 0
      vertex 0 113.4 32.8
      vertex 113.4 113.4 32.8
    endloop
  endfacet
  facet normal 0 1 0
    outer loop
      vertex 0 113.4 32.8
      vertex 113.4 113.4 0
      vertex 0 113.4 0
    endloop
  endfacet
  facet normal 1 -0 0
    outer loop
      vertex 2.3 2.3 12
      vertex 2.3 111.3 0
      vertex 2.3 111.3 12
    endloop
  endfacet
  facet normal 1 0 0
    outer loop
      vertex 2.3 111.3 0
      vertex 2.3 2.3 12
      vertex 2.3 2.3 0
    endloop
  endfacet
  facet normal 0 0 -1
    outer loop
      vertex 109.5 109.5 12
      vertex 111.3 2.3 12
      vertex 109.5 3.1 12
    endloop
  endfacet
  facet normal 0 0 -1
    outer loop
      vertex 2.3 2.3 12
      vertex 109.5 3.1 12
      vertex 111.3 2.3 12
    endloop
  endfacet
  facet normal -0 0 -1
    outer loop
      vertex 3.1 3.1 12
      vertex 2.3 2.3 12
      vertex 3.1 109.5 12
    endloop
  endfacet
  facet normal -0 0 -1
    outer loop
      vertex 109.5 3.1 12
      vertex 2.3 2.3 12
      vertex 3.1 3.1 12
    endloop
  endfacet
  facet normal 0 0 -1
    outer loop
      vertex 111.3 2.3 12
      vertex 109.5 109.5 12
      vertex 111.3 111.3 12
    endloop
  endfacet
  facet normal 0 0 -1
    outer loop
      vertex 2.3 111.3 12
      vertex 109.5 109.5 12
      vertex 3.1 109.5 12
    endloop
  endfacet
  facet normal 0 0 -1
    outer loop
      vertex 109.5 109.5 12
      vertex 2.3 111.3 12
      vertex 111.3 111.3 12
    endloop
  endfacet
  facet normal 0 0 -1
    outer loop
      vertex 2.3 111.3 12
      vertex 3.1 109.5 12
      vertex 2.3 2.3 12
    endloop
  endfacet
  facet normal -1 0 0
    outer loop
      vertex 111.3 2.3 0
      vertex 111.3 111.3 12
      vertex 111.3 111.3 0
    endloop
  endfacet
  facet normal -1 -0 0
    outer loop
      vertex 111.3 111.3 12
      vertex 111.3 2.3 0
      vertex 111.3 2.3 12
    endloop
  endfacet
  facet normal 0 -1 0
    outer loop
      vertex 2.3 111.3 0
      vertex 111.3 111.3 12
      vertex 2.3 111.3 12
    endloop
  endfacet
  facet normal 0 -1 -0
    outer loop
      vertex 111.3 111.3 12
      vertex 2.3 111.3 0
      vertex 111.3 111.3 0
    endloop
  endfacet
  facet normal 0 1 -0
    outer loop
      vertex 111.3 2.3 0
      vertex 2.3 2.3 12
      vertex 111.3 2.3 12
    endloop
  endfacet
  facet normal 0 1 0
    outer loop
      vertex 2.3 2.3 12
      vertex 111.3 2.3 0
      vertex 2.3 2.3 0
    endloop
  endfacet
  facet normal 1 -0 0
    outer loop
      vertex 3.1 3.1 32
      vertex 3.1 109.5 12
      vertex 3.1 109.5 32
    endloop
  endfacet
  facet normal 1 0 0
    outer loop
      vertex 3.1 109.5 12
      vertex 3.1 3.1 32
      vertex 3.1 3.1 12
    endloop
  endfacet
  facet normal 0 0 -1
    outer loop
      vertex 109.5 3.1 32
      vertex 102.45 44.35 32
      vertex 109.5 109.5 32
    endloop
  endfacet
  facet normal 0 0 -1
    outer loop
      vertex 109.5 3.1 32
      vertex 102.144 42.4186 32
      vertex 102.45 44.35 32
    endloop
  endfacet
  facet normal 0 0 -1
    outer loop
      vertex 109.5 3.1 32
      vertex 101.256 40.6763 32
      vertex 102.144 42.4186 32
    endloop
  endfacet
  facet normal 0 0 -1
    outer loop
      vertex 109.5 3.1 32
      vertex 99.8737 39.2936 32
      vertex 101.256 40.6763 32
    endloop
  endfacet
  facet normal 0 0 -1
    outer loop
      vertex 109.5 3.1 32
      vertex 98.1314 38.4059 32
      vertex 99.8737 39.2936 32
    endloop
  endfacet
  facet normal 0 0 -1
    outer loop
      vertex 109.5 3.1 32
      vertex 96.2 38.1 32
      vertex 98.1314 38.4059 32
    endloop
  endfacet
  facet normal 0 0 -1
    outer loop
      vertex 76.2 12.35 32
      vertex 96.2 38.1 32
      vertex 109.5 3.1 32
    endloop
  endfacet
  facet normal -0 0 -1
    outer loop
      vertex 96.2 38.1 32
      vertex 76.2 12.35 32
      vertex 94.2686 38.4059 32
    endloop
  endfacet
  facet normal -0 0 -1
    outer loop
      vertex 94.2686 38.4059 32
      vertex 76.2 12.35 32
      vertex 92.5263 39.2936 32
    endloop
  endfacet
  facet normal -0 0 -1
    outer loop
      vertex 92.5263 39.2936 32
      vertex 76.2 12.35 32
      vertex 91.1436 40.6763 32
    endloop
  endfacet
  facet normal 0 0 -1
    outer loop
      vertex 91.1436 40.6763 32
      vertex 76.2 44.35 32
      vertex 90.2559 42.4186 32
    endloop
  endfacet
  facet normal 0 0 -1
    outer loop
      vertex 76.2 44.35 32
      vertex 91.1436 40.6763 32
      vertex 76.2 12.35 32
    endloop
  endfacet
  facet normal 0 0 -1
    outer loop
      vertex 109.5 3.1 32
      vertex 37.2 12.35 32
      vertex 76.2 12.35 32
    endloop
  endfacet
  facet normal 0 0 -1
    outer loop
      vertex 22.2564 40.6763 32
      vertex 37.2 44.35 32
      vertex 37.2 12.35 32
    endloop
  endfacet
  facet normal 0 0 -1
    outer loop
      vertex 37.2 44.35 32
      vertex 23.45 44.35 32
      vertex 23.1441 46.2814 32
    endloop
  endfacet
  facet normal -0 0 -1
    outer loop
      vertex 37.2 44.35 32
      vertex 23.1441 42.4186 32
      vertex 23.45 44.35 32
    endloop
  endfacet
  facet normal 0 0 -1
    outer loop
      vertex 37.2 44.35 32
      vertex 22.2564 40.6763 32
      vertex 23.1441 42.4186 32
    endloop
  endfacet
  facet normal 0 0 -1
    outer loop
      vertex 37.2 12.35 32
      vertex 20.8737 39.2936 32
      vertex 22.2564 40.6763 32
    endloop
  endfacet
  facet normal 0 0 -1
    outer loop
      vertex 37.2 12.35 32
      vertex 19.1314 38.4059 32
      vertex 20.8737 39.2936 32
    endloop
  endfacet
  facet normal 0 0 -1
    outer loop
      vertex 37.2 12.35 32
      vertex 17.2 38.1 32
      vertex 19.1314 38.4059 32
    endloop
  endfacet
  facet normal 0 0 -1
    outer loop
      vertex 3.1 3.1 32
      vertex 17.2 38.1 32
      vertex 37.2 12.35 32
    endloop
  endfacet
  facet normal -0 0 -1
    outer loop
      vertex 17.2 38.1 32
      vertex 3.1 3.1 32
      vertex 15.2686 38.4059 32
    endloop
  endfacet
  facet normal -0 0 -1
    outer loop
      vertex 15.2686 38.4059 32
      vertex 3.1 3.1 32
      vertex 13.5263 39.2936 32
    endloop
  endfacet
  facet normal -0 0 -1
    outer loop
      vertex 11.2559 42.4186 32
      vertex 3.1 3.1 32
      vertex 10.95 44.35 32
    endloop
  endfacet
  facet normal -0 0 -1
    outer loop
      vertex 12.1436 40.6763 32
      vertex 3.1 3.1 32
      vertex 11.2559 42.4186 32
    endloop
  endfacet
  facet normal -0 0 -1
    outer loop
      vertex 13.5263 39.2936 32
      vertex 3.1 3.1 32
      vertex 12.1436 40.6763 32
    endloop
  endfacet
  facet normal 0 0 -1
    outer loop
      vertex 3.1 3.1 32
      vertex 37.2 12.35 32
      vertex 109.5 3.1 32
    endloop
  endfacet
  facet normal 0 0 -1
    outer loop
      vertex 102.144 46.2814 32
      vertex 109.5 109.5 32
      vertex 102.45 44.35 32
    endloop
  endfacet
  facet normal 0 0 -1
    outer loop
      vertex 101.256 48.0237 32
      vertex 109.5 109.5 32
      vertex 102.144 46.2814 32
    endloop
  endfacet
  facet normal 0 0 -1
    outer loop
      vertex 99.8737 49.4064 32
      vertex 109.5 109.5 32
      vertex 101.256 48.0237 32
    endloop
  endfacet
  facet normal 0 0 -1
    outer loop
      vertex 98.1314 50.2941 32
      vertex 109.5 109.5 32
      vertex 99.8737 49.4064 32
    endloop
  endfacet
  facet normal 0 0 -1
    outer loop
      vertex 96.2 50.6 32
      vertex 109.5 109.5 32
      vertex 98.1314 50.2941 32
    endloop
  endfacet
  facet normal 0 0 -1
    outer loop
      vertex 94.2686 50.2941 32
      vertex 109.5 109.5 32
      vertex 96.2 50.6 32
    endloop
  endfacet
  facet normal 0 0 -1
    outer loop
      vertex 92.5263 49.4064 32
      vertex 109.5 109.5 32
      vertex 94.2686 50.2941 32
    endloop
  endfacet
  facet normal 0 0 -1
    outer loop
      vertex 76.2 44.35 32
      vertex 92.5263 49.4064 32
      vertex 91.1436 48.0237 32
    endloop
  endfacet
  facet normal 0 0 -1
    outer loop
      vertex 76.2 44.35 32
      vertex 91.1436 48.0237 32
      vertex 90.2559 46.2814 32
    endloop
  endfacet
  facet normal 0 0 -1
    outer loop
      vertex 90.2559 42.4186 32
      vertex 76.2 44.35 32
      vertex 89.95 44.35 32
    endloop
  endfacet
  facet normal 0 0 -1
    outer loop
      vertex 89.95 44.35 32
      vertex 76.2 44.35 32
      vertex 90.2559 46.2814 32
    endloop
  endfacet
  facet normal -0 0 -1
    outer loop
      vertex 92.5263 49.4064 32
      vertex 76.2 44.35 32
      vertex 109.5 109.5 32
    endloop
  endfacet
  facet normal 0 0 -1
    outer loop
      vertex 24.7 99.5 32
      vertex 76.2 44.35 32
      vertex 37.2 44.35 32
    endloop
  endfacet
  facet normal 0 0 -1
    outer loop
      vertex 76.2 44.35 32
      vertex 24.7 99.5 32
      vertex 109.5 109.5 32
    endloop
  endfacet
  facet normal -0 0 -1
    outer loop
      vertex 109.5 109.5 32
      vertex 24.7 99.5 32
      vertex 24.7 109.5 32
    endloop
  endfacet
  facet normal 0 0 -1
    outer loop
      vertex 22.2564 48.0237 32
      vertex 37.2 44.35 32
      vertex 23.1441 46.2814 32
    endloop
  endfacet
  facet normal 0 0 -1
    outer loop
      vertex 20.8737 49.4064 32
      vertex 37.2 44.35 32
      vertex 22.2564 48.0237 32
    endloop
  endfacet
  facet normal 0 0 -1
    outer loop
      vertex 37.2 44.35 32
      vertex 20.8737 49.4064 32
      vertex 24.7 99.5 32
    endloop
  endfacet
  facet normal 0 0 -1
    outer loop
      vertex 19.1314 50.2941 32
      vertex 24.7 99.5 32
      vertex 20.8737 49.4064 32
    endloop
  endfacet
  facet normal 0 0 -1
    outer loop
      vertex 17.2 50.6 32
      vertex 24.7 99.5 32
      vertex 19.1314 50.2941 32
    endloop
  endfacet
  facet normal 0 0 -1
    outer loop
      vertex 13.9 99.5 32
      vertex 17.2 50.6 32
      vertex 15.2686 50.2941 32
    endloop
  endfacet
  facet normal 0 0 -1
    outer loop
      vertex 17.2 50.6 32
      vertex 13.9 99.5 32
      vertex 24.7 99.5 32
    endloop
  endfacet
  facet normal 0 0 -1
    outer loop
      vertex 13.5263 49.4064 32
      vertex 13.9 99.5 32
      vertex 15.2686 50.2941 32
    endloop
  endfacet
  facet normal 0 0 -1
    outer loop
      vertex 12.1436 48.0237 32
      vertex 13.9 99.5 32
      vertex 13.5263 49.4064 32
    endloop
  endfacet
  facet normal -0 0 -1
    outer loop
      vertex 13.9 99.5 32
      vertex 12.1436 48.0237 32
      vertex 3.1 109.5 32
    endloop
  endfacet
  facet normal 0 0 -1
    outer loop
      vertex 3.1 109.5 32
      vertex 12.1436 48.0237 32
      vertex 11.2559 46.2814 32
    endloop
  endfacet
  facet normal 0 0 -1
    outer loop
      vertex 3.1 109.5 32
      vertex 11.2559 46.2814 32
      vertex 10.95 44.35 32
    endloop
  endfacet
  facet normal 0 0 -1
    outer loop
      vertex 3.1 109.5 32
      vertex 10.95 44.35 32
      vertex 3.1 3.1 32
    endloop
  endfacet
  facet normal 0 0 -1
    outer loop
      vertex 13.9 99.5 32
      vertex 3.1 109.5 32
      vertex 13.9 109.5 32
    endloop
  endfacet
  facet normal -1 0 0
    outer loop
      vertex 109.5 103.4 28
      vertex 109.5 109.5 12
      vertex 109.5 103.4 15
    endloop
  endfacet
  facet normal -1 0 0
    outer loop
      vertex 109.5 109.5 12
      vertex 109.5 82.4 15
      vertex 109.5 103.4 15
    endloop
  endfacet
  facet normal -1 -0 0
    outer loop
      vertex 109.5 82.4 15
      vertex 109.5 3.1 12
      vertex 109.5 82.4 28
    endloop
  endfacet
  facet normal -1 0 0
    outer loop
      vertex 109.5 3.1 12
      vertex 109.5 82.4 15
      vertex 109.5 109.5 12
    endloop
  endfacet
  facet normal -1 0 0
    outer loop
      vertex 109.5 109.5 12
      vertex 109.5 103.4 28
      vertex 109.5 109.5 32
    endloop
  endfacet
  facet normal -1 0 0
    outer loop
      vertex 109.5 82.4 28
      vertex 109.5 109.5 32
      vertex 109.5 103.4 28
    endloop
  endfacet
  facet normal -1 0 0
    outer loop
      vertex 109.5 82.4 28
      vertex 109.5 3.1 32
      vertex 109.5 109.5 32
    endloop
  endfacet
  facet normal -1 0 0
    outer loop
      vertex 109.5 3.1 32
      vertex 109.5 82.4 28
      vertex 109.5 3.1 12
    endloop
  endfacet
  facet normal 0 -1 0
    outer loop
      vertex 3.1 109.5 32
      vertex 13.9 109.5 23.1
      vertex 13.9 109.5 32
    endloop
  endfacet
  facet normal 0 -1 -0
    outer loop
      vertex 13.9 109.5 23.1
      vertex 3.1 109.5 12
      vertex 24.7 109.5 23.1
    endloop
  endfacet
  facet normal 0 -1 0
    outer loop
      vertex 3.1 109.5 12
      vertex 13.9 109.5 23.1
      vertex 3.1 109.5 32
    endloop
  endfacet
  facet normal 0 -1 0
    outer loop
      vertex 24.7 109.5 23.1
      vertex 109.5 109.5 32
      vertex 24.7 109.5 32
    endloop
  endfacet
  facet normal 0 -1 0
    outer loop
      vertex 109.5 109.5 12
      vertex 24.7 109.5 23.1
      vertex 3.1 109.5 12
    endloop
  endfacet
  facet normal 0 -1 0
    outer loop
      vertex 24.7 109.5 23.1
      vertex 109.5 109.5 12
      vertex 109.5 109.5 32
    endloop
  endfacet
  facet normal 0 1 -0
    outer loop
      vertex 109.5 3.1 12
      vertex 3.1 3.1 32
      vertex 109.5 3.1 32
    endloop
  endfacet
  facet normal 0 1 0
    outer loop
      vertex 3.1 3.1 32
      vertex 109.5 3.1 12
      vertex 3.1 3.1 12
    endloop
  endfacet
  facet normal 1 -0 0
    outer loop
      vertex 37.2 12.35 32.8
      vertex 37.2 44.35 32
      vertex 37.2 44.35 32.8
    endloop
  endfacet
  facet normal 1 0 0
    outer loop
      vertex 37.2 44.35 32
      vertex 37.2 12.35 32.8
      vertex 37.2 12.35 32
    endloop
  endfacet
  facet normal -1 0 0
    outer loop
      vertex 76.2 12.35 32
      vertex 76.2 44.35 32.8
      vertex 76.2 44.35 32
    endloop
  endfacet
  facet normal -1 -0 0
    outer loop
      vertex 76.2 44.35 32.8
      vertex 76.2 12.35 32
      vertex 76.2 12.35 32.8
    endloop
  endfacet
  facet normal 0 1 -0
    outer loop
      vertex 76.2 12.35 32
      vertex 37.2 12.35 32.8
      vertex 76.2 12.35 32.8
    endloop
  endfacet
  facet normal 0 1 0
    outer loop
      vertex 37.2 12.35 32.8
      vertex 76.2 12.35 32
      vertex 37.2 12.35 32
    endloop
  endfacet
  facet normal 0 -1 0
    outer loop
      vertex 37.2 44.35 32
      vertex 76.2 44.35 32.8
      vertex 37.2 44.35 32.8
    endloop
  endfacet
  facet normal 0 -1 -0
    outer loop
      vertex 76.2 44.35 32.8
      vertex 37.2 44.35 32
      vertex 76.2 44.35 32
    endloop
  endfacet
  facet normal -0.987688 -0.156434 0
    outer loop
      vertex 23.45 44.35 32
      vertex 23.1441 46.2814 32.8
      vertex 23.1441 46.2814 32
    endloop
  endfacet
  facet normal -0.987688 -0.156434 0
    outer loop
      vertex 23.1441 46.2814 32.8
      vertex 23.45 44.35 32
      vertex 23.45 44.35 32.8
    endloop
  endfacet
  facet normal 0.987688 -0.156434 0
    outer loop
      vertex 10.95 44.35 32.8
      vertex 11.2559 46.2814 32
      vertex 11.2559 46.2814 32.8
    endloop
  endfacet
  facet normal 0.987688 -0.156434 0
    outer loop
      vertex 11.2559 46.2814 32
      vertex 10.95 44.35 32.8
      vertex 10.95 44.35 32
    endloop
  endfacet
  facet normal 0.156434 -0.987688 0
    outer loop
      vertex 15.2686 50.2941 32
      vertex 17.2 50.6 32.8
      vertex 15.2686 50.2941 32.8
    endloop
  endfacet
  facet normal 0.156434 -0.987688 0
    outer loop
      vertex 17.2 50.6 32.8
      vertex 15.2686 50.2941 32
      vertex 17.2 50.6 32
    endloop
  endfacet
  facet normal -0.707107 -0.707107 0
    outer loop
      vertex 22.2564 48.0237 32
      vertex 20.8737 49.4064 32.8
      vertex 20.8737 49.4064 32
    endloop
  endfacet
  facet normal -0.707107 -0.707107 0
    outer loop
      vertex 20.8737 49.4064 32.8
      vertex 22.2564 48.0237 32
      vertex 22.2564 48.0237 32.8
    endloop
  endfacet
  facet normal -0.891006 -0.453991 0
    outer loop
      vertex 23.1441 46.2814 32
      vertex 22.2564 48.0237 32.8
      vertex 22.2564 48.0237 32
    endloop
  endfacet
  facet normal -0.891006 -0.453991 0
    outer loop
      vertex 22.2564 48.0237 32.8
      vertex 23.1441 46.2814 32
      vertex 23.1441 46.2814 32.8
    endloop
  endfacet
  facet normal 0.707107 -0.707107 0
    outer loop
      vertex 12.1436 48.0237 32.8
      vertex 13.5263 49.4064 32
      vertex 13.5263 49.4064 32.8
    endloop
  endfacet
  facet normal 0.707107 -0.707107 0
    outer loop
      vertex 13.5263 49.4064 32
      vertex 12.1436 48.0237 32.8
      vertex 12.1436 48.0237 32
    endloop
  endfacet
  facet normal 0.891007 -0.45399 0
    outer loop
      vertex 11.2559 46.2814 32.8
      vertex 12.1436 48.0237 32
      vertex 12.1436 48.0237 32.8
    endloop
  endfacet
  facet normal 0.891007 -0.45399 0
    outer loop
      vertex 12.1436 48.0237 32
      vertex 11.2559 46.2814 32.8
      vertex 11.2559 46.2814 32
    endloop
  endfacet
  facet normal 0.45399 -0.891007 0
    outer loop
      vertex 13.5263 49.4064 32
      vertex 15.2686 50.2941 32.8
      vertex 13.5263 49.4064 32.8
    endloop
  endfacet
  facet normal 0.45399 -0.891007 0
    outer loop
      vertex 15.2686 50.2941 32.8
      vertex 13.5263 49.4064 32
      vertex 15.2686 50.2941 32
    endloop
  endfacet
  facet normal -0.891006 0.453991 0
    outer loop
      vertex 22.2564 40.6763 32
      vertex 23.1441 42.4186 32.8
      vertex 23.1441 42.4186 32
    endloop
  endfacet
  facet normal -0.891006 0.453991 0
    outer loop
      vertex 23.1441 42.4186 32.8
      vertex 22.2564 40.6763 32
      vertex 22.2564 40.6763 32.8
    endloop
  endfacet
  facet normal 0.453991 0.891006 -0
    outer loop
      vertex 15.2686 38.4059 32
      vertex 13.5263 39.2936 32.8
      vertex 15.2686 38.4059 32.8
    endloop
  endfacet
  facet normal 0.453991 0.891006 0
    outer loop
      vertex 13.5263 39.2936 32.8
      vertex 15.2686 38.4059 32
      vertex 13.5263 39.2936 32
    endloop
  endfacet
  facet normal 0.987688 0.156435 0
    outer loop
      vertex 11.2559 42.4186 32.8
      vertex 10.95 44.35 32
      vertex 10.95 44.35 32.8
    endloop
  endfacet
  facet normal 0.987688 0.156435 0
    outer loop
      vertex 10.95 44.35 32
      vertex 11.2559 42.4186 32.8
      vertex 11.2559 42.4186 32
    endloop
  endfacet
  facet normal -0.156435 -0.987688 0
    outer loop
      vertex 17.2 50.6 32
      vertex 19.1314 50.2941 32.8
      vertex 17.2 50.6 32.8
    endloop
  endfacet
  facet normal -0.156435 -0.987688 -0
    outer loop
      vertex 19.1314 50.2941 32.8
      vertex 17.2 50.6 32
      vertex 19.1314 50.2941 32
    endloop
  endfacet
  facet normal -0.45399 -0.891007 0
    outer loop
      vertex 19.1314 50.2941 32
      vertex 20.8737 49.4064 32.8
      vertex 19.1314 50.2941 32.8
    endloop
  endfacet
  facet normal -0.45399 -0.891007 -0
    outer loop
      vertex 20.8737 49.4064 32.8
      vertex 19.1314 50.2941 32
      vertex 20.8737 49.4064 32
    endloop
  endfacet
  facet normal -0.987688 0.156435 0
    outer loop
      vertex 23.1441 42.4186 32
      vertex 23.45 44.35 32.8
      vertex 23.45 44.35 32
    endloop
  endfacet
  facet normal -0.987688 0.156435 0
    outer loop
      vertex 23.45 44.35 32.8
      vertex 23.1441 42.4186 32
      vertex 23.1441 42.4186 32.8
    endloop
  endfacet
  facet normal -0.156435 0.987688 0
    outer loop
      vertex 19.1314 38.4059 32
      vertex 17.2 38.1 32.8
      vertex 19.1314 38.4059 32.8
    endloop
  endfacet
  facet normal -0.156435 0.987688 0
    outer loop
      vertex 17.2 38.1 32.8
      vertex 19.1314 38.4059 32
      vertex 17.2 38.1 32
    endloop
  endfacet
  facet normal 0.156434 0.987688 -0
    outer loop
      vertex 17.2 38.1 32
      vertex 15.2686 38.4059 32.8
      vertex 17.2 38.1 32.8
    endloop
  endfacet
  facet normal 0.156434 0.987688 0
    outer loop
      vertex 15.2686 38.4059 32.8
      vertex 17.2 38.1 32
      vertex 15.2686 38.4059 32
    endloop
  endfacet
  facet normal 0.891007 0.45399 0
    outer loop
      vertex 12.1436 40.6763 32.8
      vertex 11.2559 42.4186 32
      vertex 11.2559 42.4186 32.8
    endloop
  endfacet
  facet normal 0.891007 0.45399 0
    outer loop
      vertex 11.2559 42.4186 32
      vertex 12.1436 40.6763 32.8
      vertex 12.1436 40.6763 32
    endloop
  endfacet
  facet normal -0.707107 0.707107 0
    outer loop
      vertex 20.8737 39.2936 32
      vertex 22.2564 40.6763 32.8
      vertex 22.2564 40.6763 32
    endloop
  endfacet
  facet normal -0.707107 0.707107 0
    outer loop
      vertex 22.2564 40.6763 32.8
      vertex 20.8737 39.2936 32
      vertex 20.8737 39.2936 32.8
    endloop
  endfacet
  facet normal 0.707107 0.707107 0
    outer loop
      vertex 13.5263 39.2936 32.8
      vertex 12.1436 40.6763 32
      vertex 12.1436 40.6763 32.8
    endloop
  endfacet
  facet normal 0.707107 0.707107 0
    outer loop
      vertex 12.1436 40.6763 32
      vertex 13.5263 39.2936 32.8
      vertex 13.5263 39.2936 32
    endloop
  endfacet
  facet normal -0.453991 0.891006 0
    outer loop
      vertex 20.8737 39.2936 32
      vertex 19.1314 38.4059 32.8
      vertex 20.8737 39.2936 32.8
    endloop
  endfacet
  facet normal -0.453991 0.891006 0
    outer loop
      vertex 19.1314 38.4059 32.8
      vertex 20.8737 39.2936 32
      vertex 19.1314 38.4059 32
    endloop
  endfacet
  facet normal -0.987689 -0.156432 0
    outer loop
      vertex 102.45 44.35 32
      vertex 102.144 46.2814 32.8
      vertex 102.144 46.2814 32
    endloop
  endfacet
  facet normal -0.987689 -0.156432 0
    outer loop
      vertex 102.144 46.2814 32.8
      vertex 102.45 44.35 32
      vertex 102.45 44.35 32.8
    endloop
  endfacet
  facet normal 0.987688 -0.156436 0
    outer loop
      vertex 89.95 44.35 32.8
      vertex 90.2559 46.2814 32
      vertex 90.2559 46.2814 32.8
    endloop
  endfacet
  facet normal 0.987688 -0.156436 0
    outer loop
      vertex 90.2559 46.2814 32
      vertex 89.95 44.35 32.8
      vertex 89.95 44.35 32
    endloop
  endfacet
  facet normal 0.156435 -0.987688 0
    outer loop
      vertex 94.2686 50.2941 32
      vertex 96.2 50.6 32.8
      vertex 94.2686 50.2941 32.8
    endloop
  endfacet
  facet normal 0.156435 -0.987688 0
    outer loop
      vertex 96.2 50.6 32.8
      vertex 94.2686 50.2941 32
      vertex 96.2 50.6 32
    endloop
  endfacet
  facet normal 0.707107 0.707107 0
    outer loop
      vertex 92.5263 39.2936 32.8
      vertex 91.1436 40.6763 32
      vertex 91.1436 40.6763 32.8
    endloop
  endfacet
  facet normal 0.707107 0.707107 0
    outer loop
      vertex 91.1436 40.6763 32
      vertex 92.5263 39.2936 32.8
      vertex 92.5263 39.2936 32
    endloop
  endfacet
  facet normal -0.707107 -0.707107 0
    outer loop
      vertex 101.256 48.0237 32
      vertex 99.8737 49.4064 32.8
      vertex 99.8737 49.4064 32
    endloop
  endfacet
  facet normal -0.707107 -0.707107 0
    outer loop
      vertex 99.8737 49.4064 32.8
      vertex 101.256 48.0237 32
      vertex 101.256 48.0237 32.8
    endloop
  endfacet
  facet normal -0.891006 -0.453991 0
    outer loop
      vertex 102.144 46.2814 32
      vertex 101.256 48.0237 32.8
      vertex 101.256 48.0237 32
    endloop
  endfacet
  facet normal -0.891006 -0.453991 0
    outer loop
      vertex 101.256 48.0237 32.8
      vertex 102.144 46.2814 32
      vertex 102.144 46.2814 32.8
    endloop
  endfacet
  facet normal 0.707107 -0.707107 0
    outer loop
      vertex 91.1436 48.0237 32.8
      vertex 92.5263 49.4064 32
      vertex 92.5263 49.4064 32.8
    endloop
  endfacet
  facet normal 0.707107 -0.707107 0
    outer loop
      vertex 92.5263 49.4064 32
      vertex 91.1436 48.0237 32.8
      vertex 91.1436 48.0237 32
    endloop
  endfacet
  facet normal 0.891006 -0.453991 0
    outer loop
      vertex 90.2559 46.2814 32.8
      vertex 91.1436 48.0237 32
      vertex 91.1436 48.0237 32.8
    endloop
  endfacet
  facet normal 0.891006 -0.453991 0
    outer loop
      vertex 91.1436 48.0237 32
      vertex 90.2559 46.2814 32.8
      vertex 90.2559 46.2814 32
    endloop
  endfacet
  facet normal 0.45399 -0.891007 0
    outer loop
      vertex 92.5263 49.4064 32
      vertex 94.2686 50.2941 32.8
      vertex 92.5263 49.4064 32.8
    endloop
  endfacet
  facet normal 0.45399 -0.891007 0
    outer loop
      vertex 94.2686 50.2941 32.8
      vertex 92.5263 49.4064 32
      vertex 94.2686 50.2941 32
    endloop
  endfacet
  facet normal -0.891006 0.453991 0
    outer loop
      vertex 101.256 40.6763 32
      vertex 102.144 42.4186 32.8
      vertex 102.144 42.4186 32
    endloop
  endfacet
  facet normal -0.891006 0.453991 0
    outer loop
      vertex 102.144 42.4186 32.8
      vertex 101.256 40.6763 32
      vertex 101.256 40.6763 32.8
    endloop
  endfacet
  facet normal 0.453991 0.891006 -0
    outer loop
      vertex 94.2686 38.4059 32
      vertex 92.5263 39.2936 32.8
      vertex 94.2686 38.4059 32.8
    endloop
  endfacet
  facet normal 0.453991 0.891006 0
    outer loop
      vertex 92.5263 39.2936 32.8
      vertex 94.2686 38.4059 32
      vertex 92.5263 39.2936 32
    endloop
  endfacet
  facet normal 0.987688 0.156436 0
    outer loop
      vertex 90.2559 42.4186 32.8
      vertex 89.95 44.35 32
      vertex 89.95 44.35 32.8
    endloop
  endfacet
  facet normal 0.987688 0.156436 0
    outer loop
      vertex 89.95 44.35 32
      vertex 90.2559 42.4186 32.8
      vertex 90.2559 42.4186 32
    endloop
  endfacet
  facet normal -0.156434 -0.987688 0
    outer loop
      vertex 96.2 50.6 32
      vertex 98.1314 50.2941 32.8
      vertex 96.2 50.6 32.8
    endloop
  endfacet
  facet normal -0.156434 -0.987688 -0
    outer loop
      vertex 98.1314 50.2941 32.8
      vertex 96.2 50.6 32
      vertex 98.1314 50.2941 32
    endloop
  endfacet
  facet normal -0.45399 -0.891007 0
    outer loop
      vertex 98.1314 50.2941 32
      vertex 99.8737 49.4064 32.8
      vertex 98.1314 50.2941 32.8
    endloop
  endfacet
  facet normal -0.45399 -0.891007 -0
    outer loop
      vertex 99.8737 49.4064 32.8
      vertex 98.1314 50.2941 32
      vertex 99.8737 49.4064 32
    endloop
  endfacet
  facet normal -0.987689 0.156433 0
    outer loop
      vertex 102.144 42.4186 32
      vertex 102.45 44.35 32.8
      vertex 102.45 44.35 32
    endloop
  endfacet
  facet normal -0.987689 0.156433 0
    outer loop
      vertex 102.45 44.35 32.8
      vertex 102.144 42.4186 32
      vertex 102.144 42.4186 32.8
    endloop
  endfacet
  facet normal -0.156434 0.987688 0
    outer loop
      vertex 98.1314 38.4059 32
      vertex 96.2 38.1 32.8
      vertex 98.1314 38.4059 32.8
    endloop
  endfacet
  facet normal -0.156434 0.987688 0
    outer loop
      vertex 96.2 38.1 32.8
      vertex 98.1314 38.4059 32
      vertex 96.2 38.1 32
    endloop
  endfacet
  facet normal 0.156435 0.987688 -0
    outer loop
      vertex 96.2 38.1 32
      vertex 94.2686 38.4059 32.8
      vertex 96.2 38.1 32.8
    endloop
  endfacet
  facet normal 0.156435 0.987688 0
    outer loop
      vertex 94.2686 38.4059 32.8
      vertex 96.2 38.1 32
      vertex 94.2686 38.4059 32
    endloop
  endfacet
  facet normal 0.891006 0.453991 0
    outer loop
      vertex 91.1436 40.6763 32.8
      vertex 90.2559 42.4186 32
      vertex 90.2559 42.4186 32.8
    endloop
  endfacet
  facet normal 0.891006 0.453991 0
    outer loop
      vertex 90.2559 42.4186 32
      vertex 91.1436 40.6763 32.8
      vertex 91.1436 40.6763 32
    endloop
  endfacet
  facet normal -0.707107 0.707107 0
    outer loop
      vertex 99.8737 39.2936 32
      vertex 101.256 40.6763 32.8
      vertex 101.256 40.6763 32
    endloop
  endfacet
  facet normal -0.707107 0.707107 0
    outer loop
      vertex 101.256 40.6763 32.8
      vertex 99.8737 39.2936 32
      vertex 99.8737 39.2936 32.8
    endloop
  endfacet
  facet normal -0.453991 0.891006 0
    outer loop
      vertex 99.8737 39.2936 32
      vertex 98.1314 38.4059 32.8
      vertex 99.8737 39.2936 32.8
    endloop
  endfacet
  facet normal -0.453991 0.891006 0
    outer loop
      vertex 98.1314 38.4059 32.8
      vertex 99.8737 39.2936 32
      vertex 98.1314 38.4059 32
    endloop
  endfacet
  facet normal 0 0 -1
    outer loop
      vertex 109.5 82.4 28
      vertex 113.4 103.4 28
      vertex 113.4 82.4 28
    endloop
  endfacet
  facet normal -0 0 -1
    outer loop
      vertex 113.4 103.4 28
      vertex 109.5 82.4 28
      vertex 109.5 103.4 28
    endloop
  endfacet
  facet normal -0 0 1
    outer loop
      vertex 109.5 103.4 15
      vertex 113.4 82.4 15
      vertex 113.4 103.4 15
    endloop
  endfacet
  facet normal 0 0 1
    outer loop
      vertex 113.4 82.4 15
      vertex 109.5 103.4 15
      vertex 109.5 82.4 15
    endloop
  endfacet
  facet normal 0 1 -0
    outer loop
      vertex 113.4 82.4 15
      vertex 109.5 82.4 28
      vertex 113.4 82.4 28
    endloop
  endfacet
  facet normal 0 1 0
    outer loop
      vertex 109.5 82.4 28
      vertex 113.4 82.4 15
      vertex 109.5 82.4 15
    endloop
  endfacet
  facet normal 0 -1 0
    outer loop
      vertex 109.5 103.4 15
      vertex 113.4 103.4 28
      vertex 109.5 103.4 28
    endloop
  endfacet
  facet normal 0 -1 -0
    outer loop
      vertex 113.4 103.4 28
      vertex 109.5 103.4 15
      vertex 113.4 103.4 15
    endloop
  endfacet
  facet normal 1 0 0
    outer loop
      vertex 13.9 110.3 32.8
      vertex 13.9 109.5 32
      vertex 13.9 110.3 23.1
    endloop
  endfacet
  facet normal 1 -0 0
    outer loop
      vertex 13.9 99.5 32.8
      vertex 13.9 109.5 32
      vertex 13.9 110.3 32.8
    endloop
  endfacet
  facet normal 1 0 0
    outer loop
      vertex 13.9 109.5 32
      vertex 13.9 99.5 32.8
      vertex 13.9 99.5 32
    endloop
  endfacet
  facet normal 1 0 0
    outer loop
      vertex 13.9 110.3 23.1
      vertex 13.9 109.5 32
      vertex 13.9 109.5 23.1
    endloop
  endfacet
  facet normal -1 0 0
    outer loop
      vertex 24.7 109.5 32
      vertex 24.7 110.3 23.1
      vertex 24.7 109.5 23.1
    endloop
  endfacet
  facet normal -1 0 0
    outer loop
      vertex 24.7 110.3 23.1
      vertex 24.7 109.5 32
      vertex 24.7 110.3 32.8
    endloop
  endfacet
  facet normal -1 0 0
    outer loop
      vertex 24.7 99.5 32.8
      vertex 24.7 109.5 32
      vertex 24.7 99.5 32
    endloop
  endfacet
  facet normal -1 0 0
    outer loop
      vertex 24.7 109.5 32
      vertex 24.7 99.5 32.8
      vertex 24.7 110.3 32.8
    endloop
  endfacet
  facet normal -0 0 1
    outer loop
      vertex 13.9 110.3 23.1
      vertex 24.7 109.5 23.1
      vertex 24.7 110.3 23.1
    endloop
  endfacet
  facet normal 0 0 1
    outer loop
      vertex 24.7 109.5 23.1
      vertex 13.9 110.3 23.1
      vertex 13.9 109.5 23.1
    endloop
  endfacet
  facet normal 0 1 -0
    outer loop
      vertex 24.7 99.5 32
      vertex 13.9 99.5 32.8
      vertex 24.7 99.5 32.8
    endloop
  endfacet
  facet normal 0 1 0
    outer loop
      vertex 13.9 99.5 32.8
      vertex 24.7 99.5 32
      vertex 13.9 99.5 32
    endloop
  endfacet
  facet normal 0 -1 0
    outer loop
      vertex 13.9 110.3 23.1
      vertex 24.7 110.3 32.8
      vertex 13.9 110.3 32.8
    endloop
  endfacet
  facet normal 0 -1 -0
    outer loop
      vertex 24.7 110.3 32.8
      vertex 13.9 110.3 23.1
      vertex 24.7 110.3 23.1
    endloop
  endfacet
endsolid OpenSCAD_Model
